<?xml version="1.0" encoding="utf-8"?>
<!-- Generator: Adobe Illustrator 28.1.0, SVG Export Plug-In . SVG Version: 6.00 Build 0)  -->
<svg version="1.1" id="Layer_1" xmlns="http://www.w3.org/2000/svg" xmlns:xlink="http://www.w3.org/1999/xlink" x="0px" y="0px"
	 viewBox="0 0 1282 1282" style="enable-background:new 0 0 1282 1282;" xml:space="preserve">
<style type="text/css">
	.st0{fill:#F5DACB;stroke:#32251E;stroke-width:2.7;stroke-linecap:round;stroke-linejoin:round;}
	.st1{fill:#261123;stroke:#32251E;stroke-width:2.7;stroke-linecap:round;stroke-linejoin:round;}
	.st2{fill:#F4A387;stroke:#32251E;stroke-width:2.7;stroke-linecap:round;stroke-linejoin:round;}
	.st3{fill:#F2DAAC;stroke:#32251E;stroke-width:2.7;stroke-linecap:round;stroke-linejoin:round;}
	.st4{fill:#D9A491;stroke:#32251E;stroke-width:2.7;stroke-linecap:round;stroke-linejoin:round;}
	.st5{fill:#DC7B4F;stroke:#32251E;stroke-width:2.7;stroke-linecap:round;stroke-linejoin:round;}
	.st6{fill:#368578;stroke:#32251E;stroke-width:2.7;stroke-linecap:round;stroke-linejoin:round;}
	.st7{fill:#73324A;stroke:#32251E;stroke-width:2.7;stroke-linecap:round;stroke-linejoin:round;}
	.st8{fill:#BF4158;stroke:#32251E;stroke-width:2.7;stroke-linecap:round;stroke-linejoin:round;}
	.st9{fill:#8DB8A5;stroke:#32251E;stroke-width:2.7;stroke-linecap:round;stroke-linejoin:round;}
	.st10{fill:none;}
</style>
<g id="layer0">
	<path class="st0" d="M44.5,1285.5h1l-1-1V1285.5z"/>
	<path class="st1" d="M45.5,1285.5h494l-31-4h-2h-68v-1h-4h-6l6-2l1-3l-4-15h-1l-36-152v-1h-1l1-18l2-5v-1l3-8l14-23l13-25l-158,158
		l-225,91l-1,1l2,7L45.5,1285.5z"/>
	<path class="st0" d="M539.5,1285.5h147l-3-3h-1l-26-22l-36-26h-4l-2-4l-1-1h-4l-1-2h-2l-88-69l-13-10h-2l-48-64h-1l-1-5v-1h-2l-2-8
		l-2-6h-2l-3-11l-21,1l-8-2l-14,23v3l-1,9l-1,1l1,17v1l38-18l44,57l13,13v83l13,34l2,6L539.5,1285.5z"/>
	<path class="st2" d="M686.5,1285.5h4v-1l-7-2L686.5,1285.5z"/>
	<path class="st0" d="M690.5,1285.5h2l-2-1V1285.5z"/>
	<path class="st1" d="M692.5,1285.5h45l7-2l43-30l11-8l1-1l42-31l2-1l7-6l8-7l15-16l9-11l25-64l1-13l-4,3l-2,11l-4,10l-2,5l-4,9
		l-4,6l-84,93l-94,48l-47-25h-1l-193-164h-1l-9-32l4-109l31,75l124,167l20,2l106,11l38-46l10,38l1,4l2-4l18-43l18-49l19-36l14-26
		l10-22l3,13l-6,60l4,48v-6l1-7l13-135l3-5l6-10l2-6h-1l-25,30l-66,80l-1,8l-19,49l-2-3l-4-23h-1l3-13l1-2l2-2l18-18l5-8l5-8l8-19
		l28-91l2-10l1-7l3-59l-1-5h-1l-27-34h-2l-3-1l-6,2l24,36l5,38l-14-13h-2l-36-9l-7-3h-3l-45-12l-10,3l-24,6l-13-6l-34,1l-36,8h-3
		v-15l-26,16l-7,6l-15,12l1,5l6-9l20,2l1,1h3l7,7l1,2l4,3l10,9l32-1l-7-10h-1l-15,7l14-16h6h17l28,3l19,1l21-4l13-1h10l39,1l8-1h10
		l24,17l-5,23l-16,45l-8,40l-6-10l-3,6l-3,6l-2,3l-8,27l-2,4l-9,11l-58,18l-10-13l11-5l-14-12l-15,1l-6,5l-9-3l-10-1h-2l-5-57l3,8
		l1,4l11-11l7-5l7-11l-20,3l-18,8l-23,7l-7-2l28,5l3,12l-3-10l-34,6l29,30l37,26l-8,13l-94-99h-1l-4-12l-23-96h-1l-7-39l-6-30h-1
		l-10-21h-2l-20-9l27,97l8,34l2,8l-1,10l-3-10l-1-3l-9-35h-1l-24-100v-45l11-2l27-2h9l14-2l38-8l5-2l13-9l9-9l38-65l2,7l1,46l-1,32
		l-6-12h-2l-4,1l-6-3l-18,5l-3,14l-2-12l-10,69l5,10l12,12l8,5l18,18l1,10l-8-1l12,14l6-3l13-16l4-3l85-49l-27,24l-35,28l-4-1l-18,5
		l-2,14v1l8,5l14-6h1l6,7l2,1l6-2l3-16h-1l1-11l1-3l7-6l15,5l9,5l1-1l11-28l1-1l1-2l7-12l2-3l3-11l1-13l-2-17l-16-39l10,43l2,7l-7,7
		l-10,1v-1h-3v-1h-1l-6-13l4-11h-1l-1-14v-12l1-10v-2l-4-2l-6,25l-2-50l-1-28h-1l-7-21l-1,2l-1,9v4l-3,16v1l-1,9l1,24l11,45l7,26
		l-8,10l-12,11l-12,6l-39-21l-1-1h-2v-29l2-5l7-32v-15h-1v-14l-1-60l2-5l6-18l1-1l5-6h1l5-3h4h13l12,17l4,16l1,1l11,28l19,42l3,7
		l6,9l8,9l42,21l27,4l50-24l-10,62l12,37l-22-19l-5-7l-17,47l-7-1l-6,4l16,12l8,6l1-12v-7l22-31l-5,42l-1,6l-6,96l10-83l18-31l-5,33
		l-6,69l16-78l1-3l5-67l1-68l-5-13h-1l-7-7l-18,12l-19,6l-5,1l-12,2l-13,1v-1h-8v-1h-6v-2l-35-14h-2l-1-2h-3l-5-8h-3l-4-6h-1l-2-5
		h-1l-2-4h-1l1-3l4,6l3,4l6,8l8,5l4,3l52,15l13-1l12-1l16-5l10-5l6-4l17-18l2-1l16-50l24-56l4-6l-37-25h-1l-4-2h-3l-4-3h-3l-9-2h-1
		l-8-4l20-1l-26-15l-8-3h-11l-5,2l-22,1l-11,2v-2l-6,1l-1-1h-10l-6,3l-2,2l-9,11l-6,3l4-4l10-15h2h2l2-3l-20,6v4l-6,11l3-12v-3l-4-1
		l-2,7l-1,6l-8,7v-1l-1-4l-1-13l-7,1l1,6l1,6l-21,27l-7,2v-1h-7l-8-1h-25l-16,1l-7,1l5-5v-3l-5,1l-3-11l-4,5l-2,5v-4l-2-17l1-6l1-3
		l-6-2v2l-2,5l-1,3l-1,5l-2-7v-4v-4l1-4l-5,1l-4,4l-2-5l-5-6l-4-1v6l-1,5l-1-1l1,5l-2,2l-2-4l-5-10h-1l-4-4h-41l-23,2l-13-1h-3
		l-11-1h-2l-15,5l-29,9l3-4l9-8l11-9l17-16l-16,4l-13,6l-23,36l-12,13l-2,4l-1,4h-5l-18,1h-12l-4-5h-1l4-27l8-30l5-7l5-9l6-3l10,32
		l1,9l1,14v10l1,4l7-13l27-34l13-9l9-10v-40l33-172l11-4l56-8h20l31-5l17-6l1-1l4-4h-1l15-4l-1,3l27-8l9-2v4l-4,3l-4,2l3,5l12,7
		l20,3l1,1l56-11l1-21h-1l-16-56h-1l3-24l6-9l2-4l3-6h-8l-16,34l27-51l4-1l-2,20l-8,9l-2,2l10,68l-4-24l-5-19h-1l1-12l2-8l6-8l41-20
		l-9-7h-4l-10-5l-10-3l-14,1l-27,36l-1,15l4,16l4,10l4,9l4,7l-3,5l-8-10l2,9l3,4l4,8l-2,2l-4-9h-1v-4h-2l-11-64l29-44l27-3l26,6l9,4
		l-46-25l-2-1l-10,2h-1l-8,2l-16,13l-4,7l-22,47l-1,21l5,24l2,9l2,5l3,19l-3,8l1-7v-7l-5-11l-3-6l-4-5h-1l-13-47l1-5l28-57l26-17
		l-4-1l-10-1l-6,1l-12,10l-20,16l-26,37l-4,25l6,33l-10-25h-1l-4-5l1,11l5,13l4,8l10,15l-12-14l-5-9h-1l-4-12l-2-10h-1l1-10v-4
		l11-27l26-31l-27,18l-9,17l-9,36l1,15l1,7l2,4l4,7l10,11l19,15l-22-12l-12-12h-1l-3-7l-1-3h-1l-9-33h-1l1-12v-2l5-19l15-23v-12
		l-21,11l-7,4l-7,7l-5,7l-4,5l-4,8l18-13l-7,8l-21,57l28,36l6,2l12,4l-2,3v-1h-6l-7-3h-2l-4-3h-2l-27-37h-1v-4l-16,3l1,20l11,24
		l15,6l-15-4h-2l-13-25h-1l-2-9h-1l1-16l7-37l-17,54l5,18l8,12l7,5l33,4l13-1l5-1v3l-3,1h-2l-14,3l-16,1v-1h-6l-11-5h-2l-6-6l-9-12
		l-6-46l21-29l2,1l10-18l-7-6l-12,10l-32,65l-1,5l14,33l-19-33v-5l30-72l24-21l6-4l32-17l9-11l-74,31l-9,6l-24,17l-10,16l-6,25l2,34
		l4,13l10,18l-13-14l-7-18l-4-30l7-29l-11,11l-12,32l-1,8l-2,15l2,15l1,1l3,20l-15-33l-1-21h-1l-4,8v14l-10,3l-4-1l-5,4l-4,13l-9,6
		l-1-1l-10,20l2-2l17-11l7-1h4l1,3l-5,1h-1l-4,1l-21,19l-2,3l12,6h6l3-1l1,2l-3,1l-8,2l-8,22l3,5l12,9l43-53l1,4l-6,4l-35,57l34-47
		l8-9l5-4l2,2l-48,109v33v10l-13,83l-27-47l20-27l-23,20l31-27l6,2l-6-1v1l8-4l-1-5l-8-8l-23,23l-1,1l-21,29l15-29l3-5v-6h-1v-49
		l1-2l2-4l3-5l30-40l-8,5l-2-12l-7,2h-8l-12-8h-2l2-5l21,11h6l-1-1h-2l-2-2h-1l-6-7h-1l-4-8h-1l-4-9h-1v-17l3-12l-8,1l-21,27l-4,2
		l-4,8l8,5l4,3l-17,30l2,17v10l-1,4l-8,18l-5,9l-1-6l-2,10l-1,1l-1,24l-1,1l-2,23l-1,1l-1,22l-1,1v79l2,8v15l-6,5l1,7l2,2l5,15l-1,1
		l-45-9h-1v-1h-2h-4l-2,1l-3,1l-1,1l-1,1l-1,1l-1,2l-2,10v16l2,8l2,11l1,7l2,10l2,5l1,3l12,35l15,40l11,22l4,6l2,4l1,1l55,39l1,1
		l1,2l1,6l-4-19l-1-8h-1v-9v-2h-1v-9v-2v-11l-2-10h-1l-5-27h-1l-4-12l-5-13l-3-15l-1,5l-1-15l-1-9h-1l-1-28h-1l1-11l1-7l1-9l4-13
		l-13-16h-2l-9-10l41,37l9,50l2,13l2,14l4,27v5v1l2,5l4,21l2,9l4,18l-3,42v-6l-3,2l-2,4l-3,16l-1,11v19l1,55v1l1,7l5,18l5,9l24,35
		l19,21l36,44l-37-42h-1l-17-23h-2l-23-31l-5-8l-9-15v7l-1,2v2v1l-1,33v8v1l-1,26v5v12l-3,23l-3,19l1,6l2,6l4,8v1l3,4l49,65l13,10
		l91,68l4,3l1,1l6,4l36,26l27,22l7,2L692.5,1285.5z M725.5,1214.5l-1,1L725.5,1214.5z M720.5,1203.5l-4,1l-28-23h-1l-6-5h-2v-14
		l46-5l12-2l-1-2h-10l11-5l17-3l9-1l-26,41L720.5,1203.5z M742.5,1199.5l-2,1L742.5,1199.5z M655.5,1191.5l-6,1l-6-1h-18l13-3
		L655.5,1191.5z M763.5,1175.5l-4,1L763.5,1175.5z M761.5,1140.5l-2,1L761.5,1140.5z M689.5,1114.5l-31,1l-56-24h-1l-48-51l50,50
		l56,21L689.5,1114.5z M749.5,1112.5l-5,1L749.5,1112.5z M819.5,1108.5l-1,1v-8l2,1L819.5,1108.5z M841.5,1055.5l-1,1l29-38l2,1
		L841.5,1055.5z M456.5,949.5l-1,1L456.5,949.5z M514.5,946.5l-1,1L514.5,946.5z M506.5,937.5l-3,1l-22-52h-1h1l5-30l-1-16
		L506.5,937.5z M718.5,898.5l-4,1h-4l-2-4l55-8l5,5l-6-2L718.5,898.5z M701.5,897.5l-2,1l-32-8l-12,2l12-5L701.5,897.5z
		 M729.5,799.5l-2,1l24-24l6-2h6l20,2l-26,3l-3,2L729.5,799.5z M909.5,789.5l-3,1l-3-24l6-10l3,24L909.5,789.5z M429.5,784.5l-7,1
		L429.5,784.5z M648.5,774.5l-4,1l-7-8l21-25l1,4l-7,24L648.5,774.5z M401.5,762.5l-2,1l12-24l-1,11L401.5,762.5z M384.5,732.5l-2,1
		v-2h-1l-9-21l-4-15l-4-52l17,25l14,23l1,29l-2,3l-6,6L384.5,732.5z M425.5,729.5l-1,1l-2-3h-2v-2h-1l-2-3l-7-12l-2-14l2-8v-1v-3
		l5-3l1,2l2,7l4,24l2,8l1,4V729.5z M650.5,727.5l-2,1L650.5,727.5z M546.5,723.5l-6,1l-35-5h-4l-20-22h-2l-16-57v-2h-1l-4-44l3-1
		l1,1l10,36l6,17l12,30l33,31l6,3l44,6l9-1l26-6l22-13l24-29h2l-22,29l-25,17l-5,2l-6,1l-46,4l-10-3l-11-3l-3,2L546.5,723.5z
		 M577.5,711.5l-22,1v-1h-3l-15-3h-1l-24-13h-1l-2-4h-2l-29-76h-1v-3h-1l6-41l6-7l1,2l-5,9l-4,37l1,8l31,70l25,13l2-2h-2l-13-7h-1
		l-27-32l-4-13v-5l5-17l8-4h2l9,6l20,8l21,2l25-3l46-10l11,14l-7,21l-1,3l-3,8v4l12-26l-5,20l-7,14l5-4l1,4l-4,4l-9,8l-11,6
		L577.5,711.5z M861.5,711.5l-21,1v-1h-3l-49-20h-1l-17-32l-5-11h-1l3-2l1-7v-2l-5-17h-1v-4h-1l3-7l2-4v-2l18-22l2-1l2,2l-2,2
		l-12,15l-2,3l-3,14l17-21l3-3l9-7l1,2l-7,8l-2,2l11,5l-4,1l-12,5l11-9l5-4l27,15l22-2l7-10l12,4l7,4l28,16l13,1l4,5l-2-1l-9,15
		l-32,61l23-12l6-6l25-59l1-8l-1-2l-1-3h-1l-7-18h-1v-3h-1v-9l6-4l-2-7l-1-2l-13,10l-4-19h-2l3-4l17,11l14,9l1,6v13v1l-1,9l-1,7v4
		l-1,2l-2,8l-26,60L861.5,711.5z M401.5,680.5l-1,1L401.5,680.5z M414.5,665.5l-2,1L414.5,665.5z M646.5,648.5l-2,1L646.5,648.5z
		 M757.5,647.5l-1,1l-3-16l-3-20l19-50l36-10l-34,12l-17,46v9l1,11L757.5,647.5z M350.5,643.5l-1,1L350.5,643.5z M655.5,643.5l-4,1
		L655.5,643.5z M657.5,637.5l-3,1L657.5,637.5z M662.5,635.5l-1,1v-11v-5l4-46l-2,50v1L662.5,635.5z M644.5,632.5l-2,1v-13l-7-4h-2
		l-1-1h-35h-1l6-7l26,2l10,4l5,5h1l-8-18h-1l-1-3h-1l-42-24h-4l-1-1h-5h-2h-1l-10,1v-1l-10,1l-2,1l-47,24l47-30h2l19-2l4,3h5l10,1
		l40,25l2,3l8,17L644.5,632.5z M572.5,630.5l-20,1l-3-1h-1l2-11l15,7l4,3l3-1l11-5l-2-7l-1-2l-19,1l-11-3h-6l-5-2h-6l-14,10l14-13
		h11l16,3l8,1h9l4,1l5,2l5,3l3,2l-3,3v-1h-1L572.5,630.5z M658.5,626.5l-3,1L658.5,626.5z M390.5,619.5l-1,1v-1h-2l-2-4h-4l-3-4h-1
		l-5-6l-26-18l-3,1l8-7l36,17h2h4h2l1,8l-2,2l-1,7L390.5,619.5z M919.5,617.5l-8,1l-17-9h-1l1-5L919.5,617.5z M914.5,611.5l-3,1
		l-22-21h-2l-38-17h-1h-3l-12-2h-3l4-4h13h4l40,21L914.5,611.5z M584.5,606.5l-15,1l-3-2h-1l-2-2h-1l-2-4h-1l4-1l6,2l12-4l8-5v-4h-1
		l-2-2h-8l11-4l2,3l3,7L584.5,606.5z M414.5,605.5l-2,1l-2-7l4,2V605.5z M842.5,605.5l-10,1l-13-5h-1l-2-13l5,1l3,3l9,1h-4l6-2l12,1
		L842.5,605.5z M556.5,603.5l-2,1l-4-2h-3l3-4L556.5,603.5z M629.5,603.5l-4,1L629.5,603.5z M885.5,594.5l-2,1L885.5,594.5z
		 M850.5,591.5l-1,1L850.5,591.5z M843.5,586.5l-3,1L843.5,586.5z M508.5,584.5l-2,1l74-29L508.5,584.5z M719.5,570.5l-11,1v-1h-3
		l2-4h13v4H719.5z M409.5,549.5l-2,1l-5-26l-1-59l17-90l8-8l4-7l4-9l6-15l9-15l9-2l-4,10l-6,12l-10,10l8,5l-4,5l-5,13l-3,17v25v22
		l2,17l-3,24l-13,22l-1,4l-3,15L409.5,549.5z M651.5,541.5l-2,1l-6-8l2-1L651.5,541.5z M828.5,532.5l-9,1L828.5,532.5z M649.5,531.5
		l-2,1L649.5,531.5z M867.5,531.5l-2,1L867.5,531.5z M618.5,529.5l-1,1l-6-9h-1l1-3L618.5,529.5z M546.5,528.5l-9,1L546.5,528.5z
		 M625.5,524.5l-1,1L625.5,524.5z M470.5,500.5l-2,1L470.5,500.5z M443.5,427.5l-1,1L443.5,427.5z M462.5,309.5l-4,1l-5-3h-1l3-4
		L462.5,309.5z M486.5,278.5l-3,1l-7-6h-1l3-2L486.5,278.5z M495.5,255.5l-3,1h-7l9-4l6-3l2,3L495.5,255.5z M483.5,251.5l-1,1l17-13
		l6-3l1,2l-4,3L483.5,251.5z M796.5,247.5l-19,1L796.5,247.5z M588.5,242.5l-10,1L588.5,242.5z M759.5,240.5l-2,1h-5l6-4h13l31-17
		l8-1l-3-15l3-1l2,18l-41,18L759.5,240.5z M641.5,237.5l-5,1l-85-25h-1l-6-18l9-9l8,24l46,21l-32-35l-1-4v-54l4,52l1,7L641.5,237.5z
		 M531.5,228.5l-1,1l-7-7h-2l4-2L531.5,228.5z M622.5,225.5l-2,1l-19-36L622.5,225.5z M765.5,224.5l-1,1L765.5,224.5z M790.5,222.5
		l-2,1l-4-24h-1l-4-9l-9-33l6-38l-1,15l1,27l8,30l2,8L790.5,222.5z M781.5,220.5l-1,1L781.5,220.5z M796.5,218.5l-1,1L796.5,218.5z
		 M672.5,215.5l-2,1l-8-5h-1l-2-3h-2l-18-31h-1l1-15l21,46l4,3L672.5,215.5z M649.5,208.5l-1,1L649.5,208.5z M697.5,208.5l-4,1
		L697.5,208.5z M748.5,207.5l-1,1l-11-12h-1l-1-2h-1l3-2l2,3L748.5,207.5z M688.5,202.5l-2,1l-29-36l17-41l-9,39L688.5,202.5z
		 M674.5,198.5l-2,1L674.5,198.5z M584.5,177.5l-1,1l-5-47l10-1L584.5,177.5z M736.5,174.5l-1,1l-6-22v-6l18-45l-12,45l-1,5
		L736.5,174.5z"/>
	<path class="st0" d="M737.5,1285.5h113l24-4l12-22l8-69l-21-5l-15,14l-8,7l-7,6l-2,1l-42,32v-1l-1,1l-11,9l-43,29L737.5,1285.5z
		 M860.5,1222.5l-1,1l30-30L860.5,1222.5z"/>
	<path class="st1" d="M850.5,1285.5h87h15h129l97-8h-1v-1h-2v-1l-16-7h-1v-1l-138-65h-1v-1l-6-3h-1v-1l-69-67h-1v-1l-5-5h-1v-1h-1
		v-1l-6-11h-1v-2l-2-9l2,21l6,42l2,27v13l-5,31l-12,18l-11,11l-7,5l-5-2h-2l-3-5l-1-26l3-22l2-21l-1-2l-8,69l4,11l36-14l9,16l2-6
		v-19l3-13v-4h2l5,5l5,9l9,33v3h-2h-2h-6l-17,1h-50h-10L850.5,1285.5z M1034.5,1280.5l-9,1l-10-1h-2l-52-99l-15-31l2-9l8,8l43,44
		l4,8l13,14l31,40l21,22v2l-11,1h-12H1034.5z M1158.5,1276.5l-31,1l-75-51L1158.5,1276.5z M1066.5,1273.5l-3,1L1066.5,1273.5z
		 M949.5,1213.5l-1,1L949.5,1213.5z"/>
	<path class="st3" d="M744.5,1283.5l43-29v-1L744.5,1283.5z"/>
	<path class="st2" d="M682.5,1282.5h1l-27-22L682.5,1282.5z"/>
	<path class="st4" d="M438.5,1281.5h68v-6l-13-34l-4,1l2-82h-1l-54-72l-38,18v6l2,9l38,158v1V1281.5z"/>
	<path class="st2" d="M506.5,1281.5h2l-2-6V1281.5z"/>
	<path class="st4" d="M874.5,1281.5h10l6-11l-4-11L874.5,1281.5z"/>
	<path class="st5" d="M884.5,1281.5h50l1-9l-9-16l-36,14L884.5,1281.5z"/>
	<path class="st2" d="M934.5,1281.5l17-1l-14-14l-2,6L934.5,1281.5z"/>
	<path class="st5" d="M1025.5,1281.5l9-1h11l-12-25h-1l-31-55l-3-5l-18,8l-2,2l21,45l16,30L1025.5,1281.5z"/>
	<path class="st1" d="M428.5,1280.5h6v-2L428.5,1280.5z"/>
	<path class="st6" d="M434.5,1280.5h4v-1h-2l-1-4l-1,3V1280.5z"/>
	<path class="st6" d="M710.5,1280.5l94-48l-11-31l-1-4l-45,14l-38,14l-29-7l-17,37L710.5,1280.5z"/>
	<path class="st5" d="M951.5,1280.5h6l-20-33v19L951.5,1280.5z"/>
	<path class="st6" d="M957.5,1280.5h2l-7-36l-5-9h-6l-1-1l-3,13L957.5,1280.5z"/>
	<path class="st7" d="M959.5,1280.5h2v-3l-9-33L959.5,1280.5z"/>
	<path class="st7" d="M1013.5,1280.5h2l-16-30l-3,2l-35-71L1013.5,1280.5z"/>
	<path class="st7" d="M1045.5,1280.5h12l-10-25l-31-40l17,40L1045.5,1280.5z"/>
	<path class="st7" d="M1057.5,1280.5l11-1v-2l-21-22L1057.5,1280.5z"/>
	<path class="st8" d="M436.5,1279.5h2l-38-158h-2l1,8l32,131l4,15L436.5,1279.5z"/>
	<path class="st1" d="M1127.5,1277.5l31-1l-106-50L1127.5,1277.5z"/>
	<path class="st0" d="M1177.5,1277.5h1l-1-1V1277.5z"/>
	<path class="st3" d="M901.5,1268.5l7-5l-6,2l-5-1h-1v2L901.5,1268.5z"/>
	<path class="st0" d="M1158.5,1268.5h1l-1-1V1268.5z"/>
	<path class="st4" d="M894.5,1266.5h2v-2h-2l-3-3L894.5,1266.5z"/>
	<path class="st0" d="M902.5,1265.5l6-2l11-11l11-27l2-13l1-5l-5-78h-5l-17-4l-24,47l-9,11v2l21,5l1,2l-2,21l-3,22l7,29
		L902.5,1265.5z"/>
	<path class="st3" d="M894.5,1264.5h2h1l-7-29l1,26L894.5,1264.5z"/>
	<path class="st7" d="M430.5,1260.5h1l-32-131h-1l-1-8h-1l-2-13L430.5,1260.5z"/>
	<path class="st7" d="M662.5,1255.5h1l17-37l-45-19h-2l-15-7h-3l-102-120l-44,19L662.5,1255.5z"/>
	<path class="st8" d="M1032.5,1255.5h1l-17-40l-13-14h-1l-1-1L1032.5,1255.5z"/>
	<path class="st3" d="M787.5,1254.5l11-9l-11,8V1254.5z"/>
	<path class="st2" d="M919.5,1252.5l12-18v-1h-1v-8L919.5,1252.5z"/>
	<path class="st6" d="M996.5,1252.5l3-2l-21-45h-1l-26-52h-1l-4-3l15,31L996.5,1252.5z"/>
	<path class="st2" d="M799.5,1245.5l42-32l-42,31V1245.5z"/>
	<path class="st3" d="M489.5,1242.5l4-1v-83l-1,1l-1,1L489.5,1242.5z"/>
	<path class="st1" d="M941.5,1235.5h6l-5-5h-2v4L941.5,1235.5z"/>
	<path class="st2" d="M616.5,1234.5h4l-6-4L616.5,1234.5z"/>
	<path class="st5" d="M931.5,1234.5l5-31v-13l-2-27l-1,52l-1,7l-1,11V1234.5z"/>
	<path class="st2" d="M930.5,1233.5h1l1-11v-10l-2,13V1233.5z"/>
	<path class="st6" d="M804.5,1232.5l84-93l-2,2l-5,5l-6-4l-4-48h-1l-22-8l-53,111l-2,4L804.5,1232.5z"/>
	<path class="st2" d="M609.5,1229.5h4l-4-3l-1,1L609.5,1229.5z"/>
	<path class="st2" d="M606.5,1227.5h2l1-1l-91-68L606.5,1227.5z"/>
	<path class="st7" d="M709.5,1225.5l38-14h-2l-1-6l-106-11l-3,5l45,19L709.5,1225.5z"/>
	<path class="st1" d="M859.5,1223.5l1-1l29-29L859.5,1223.5z"/>
	<path class="st2" d="M932.5,1222.5l1-7v-8l-1,5V1222.5z"/>
	<path class="st2" d="M933.5,1215.5l1-52l-6-42v8l5,78V1215.5z"/>
	<path class="st7" d="M745.5,1211.5h2l45-14l-10-38l-38,46L745.5,1211.5z"/>
	<path class="st5" d="M977.5,1205.5h1l2-2l-24-54l-8-8l3,12L977.5,1205.5z"/>
	<path class="st7" d="M716.5,1204.5l4-1l17-18l-1-22l-12,1l-36,17L716.5,1204.5z"/>
	<path class="st2" d="M980.5,1203.5l18-8l1-2l-43-44L980.5,1203.5z"/>
	<path class="st0" d="M1019.5,1202.5h1l-1-1V1202.5z"/>
	<path class="st8" d="M1002.5,1201.5h1l-4-8l-1,2l3,5L1002.5,1201.5z"/>
	<path class="st1" d="M633.5,1199.5h2l3-5l-20-2L633.5,1199.5z"/>
	<path class="st0" d="M858.5,1199.5l15-14v-2L858.5,1199.5z"/>
	<path class="st0" d="M1012.5,1198.5h1l-1-1V1198.5z"/>
	<path class="st7" d="M795.5,1197.5l53-111l29-52l-3-13l-10,22l-14,26l-17,37l-20,48L795.5,1197.5z"/>
	<path class="st1" d="M615.5,1192.5h3l-124-167l10,23l9,24L615.5,1192.5z M537.5,1112.5l-1,1L537.5,1112.5z"/>
	<path class="st1" d="M649.5,1192.5l6-1l-17-3l5,3L649.5,1192.5z"/>
	<path class="st1" d="M625.5,1191.5h18l-5-3L625.5,1191.5z"/>
	<path class="st7" d="M737.5,1185.5l26-41l-9,1l-17,3l-1,5l1,2l-1,8L737.5,1185.5z"/>
	<path class="st1" d="M687.5,1181.5h1l36-17l1-7l-46,5l2,14L687.5,1181.5z"/>
	<path class="st1" d="M679.5,1176.5h2l-2-14V1176.5z"/>
	<path class="st3" d="M882.5,1172.5l24-47l1-17L882.5,1172.5z"/>
	<path class="st1" d="M724.5,1164.5l12-1l1-8l-12,2L724.5,1164.5z"/>
	<path class="st1" d="M490.5,1160.5h1l1-1h-1l-11-14l-44-57L490.5,1160.5z"/>
	<path class="st2" d="M491.5,1159.5h1l1-1l-13-13L491.5,1159.5z"/>
	<path class="st7" d="M813.5,1154.5l20-48h-1l-1-1L813.5,1154.5z"/>
	<path class="st1" d="M726.5,1153.5h10l1-5L726.5,1153.5z"/>
	<path class="st8" d="M950.5,1153.5h1l-3-12l-2,9L950.5,1153.5z"/>
	<path class="st2" d="M503.5,1148.5h2l-49-65l-1,1L503.5,1148.5z"/>
	<path class="st5" d="M881.5,1146.5l5-5h-5l-4-5h-2v6L881.5,1146.5z"/>
	<path class="st2" d="M881.5,1141.5h5l2-2l4-6l-1-1h-1l-6-34l8-67v-8l1-18h-1v-8l-2,2l-13,130v7L881.5,1141.5z"/>
	<path class="st5" d="M788.5,1140.5l19-49l-1,9l-9,33l-1-1h-1l-8-1l-1,6L788.5,1140.5z"/>
	<path class="st5" d="M786.5,1137.5l1-6l-1-2h-1l-2-18l-1,3L786.5,1137.5z"/>
	<path class="st4" d="M875.5,1136.5h2v-7h-1L875.5,1136.5z"/>
	<path class="st9" d="M797.5,1133.5l9-33l-10,32L797.5,1133.5z"/>
	<path class="st9" d="M892.5,1133.5l4-9l-5,8L892.5,1133.5z"/>
	<path class="st2" d="M795.5,1132.5h1l10-32l1-9l1-8h-1l-2-4l-18,18l-1,32l1,2L795.5,1132.5z"/>
	<path class="st3" d="M890.5,1132.5h1l5-8l2-5v-3h-2l-12-18L890.5,1132.5z"/>
	<path class="st0" d="M942.5,1130.5h1l-1-1V1130.5z"/>
	<path class="st1" d="M398.5,1129.5h1l-1-8v-1l-1,1L398.5,1129.5z"/>
	<path class="st9" d="M785.5,1129.5h1l1-32l-2,2l-2,10v2L785.5,1129.5z"/>
	<path class="st5" d="M876.5,1129.5h1l13-130l-1-5L876.5,1129.5z"/>
	<path class="st0" d="M923.5,1129.5h5v-8l-2-21l-18-38v33l-1,13l-1,17L923.5,1129.5z"/>
	<path class="st0" d="M936.5,1124.5h1l-1-1V1124.5z"/>
	<path class="st0" d="M935.5,1123.5h1l-1-1V1123.5z"/>
	<path class="st8" d="M396.5,1121.5h1l1-1v-8v-6v-1h-2l1-17l1-1l-2-3l-2,5v18v1L396.5,1121.5z"/>
	<path class="st9" d="M398.5,1121.5h2l-2-9v8V1121.5z"/>
	<path class="st2" d="M898.5,1119.5l4-10l-4,7V1119.5z"/>
	<path class="st3" d="M896.5,1116.5h2l4-7l2-11h-6l-6-67l-8,67L896.5,1116.5z"/>
	<path class="st1" d="M658.5,1115.5l31-1l-30-3l-56-21l-1,1L658.5,1115.5z"/>
	<path class="st6" d="M781.5,1114.5h1l1-3v-2l1-8L781.5,1114.5z"/>
	<path class="st0" d="M928.5,1111.5h1l-1-2V1111.5z"/>
	<path class="st8" d="M783.5,1109.5l2-10l-1,2L783.5,1109.5z"/>
	<path class="st1" d="M818.5,1109.5l1-1l1-6l-2-1V1109.5z"/>
	<path class="st7" d="M393.5,1107.5h1v-18L393.5,1107.5z"/>
	<path class="st1" d="M832.5,1106.5h1l17-37l-19,36L832.5,1106.5z"/>
	<path class="st9" d="M396.5,1105.5h2l-1-17L396.5,1105.5z"/>
	<path class="st0" d="M898.5,1098.5h6l4-3v-33v-8l1-8v-9l2-31v-17l2-10l1-34l1-1l1-2l1-2l19-47v-6l1-1v-2l1-7v-2l1-6l1-20l1-5l5-50
		l-1-2l3-21l4-21l2-8l6-17l5,1l8,3l2-3l4-9l4-9v-9v-5l-4-8h-1l-1-3h-1l-2-57v-7h-1v-17l1-20l-9-5l-2-1l-24,56l-10,67l-2,69l-3,28
		l-2,47l-25,114l-4,4l6,12h1l-8,50v8L898.5,1098.5z"/>
	<path class="st1" d="M722.5,1096.5l58-18l9-11l2-4l-3-7l-16,13l-22,13l14-15l-17,10l-16,4l-8-3l-11,5L722.5,1096.5z"/>
	<path class="st1" d="M675.5,1094.5l8-13l-37-26l-29-30l34-6v-2l-28-5l-2-2l-8,5l-41-64h-1l-1-12l-3-27h-1l-1-18h-1l-3-1l-2,17
		l-2-25l-2-3l-2,5l23,96l5,12L675.5,1094.5z M645.5,1061.5l-1,1L645.5,1061.5z M616.5,1034.5l-1,1L616.5,1034.5z M596.5,1003.5l-1,1
		L596.5,1003.5z"/>
	<path class="st7" d="M870.5,1094.5h1l6-60l-29,52L870.5,1094.5z"/>
	<path class="st7" d="M468.5,1091.5h1l44-19l-9-24l-45,11L468.5,1091.5z"/>
	<path class="st1" d="M601.5,1091.5h1l1-1l-50-50L601.5,1091.5z"/>
	<path class="st4" d="M398.5,1087.5l1-9l-3,5v1L398.5,1087.5z"/>
	<path class="st2" d="M454.5,1084.5h1l1-1l-3-4L454.5,1084.5z"/>
	<path class="st8" d="M396.5,1083.5l3-5v-3L396.5,1083.5z"/>
	<path class="st2" d="M807.5,1083.5h1l66-80h-1l20-42l4-4l-1-2l-7,5l7-6l21-73h-1v-17v-6l-16,78l-12,14l-5-2l6-96l-18,96l-18-5
		l-2,10l-28,91l-8,19l-5,8l-5,8L807.5,1083.5z"/>
	<path class="st1" d="M750.5,1082.5l22-13l-8-2L750.5,1082.5z"/>
	<path class="st7" d="M731.5,1081.5l16-4h-3v-1l-4,1l-26-12l-5,1l14,12L731.5,1081.5z"/>
	<path class="st2" d="M451.5,1078.5h2l-4-8L451.5,1078.5z"/>
	<path class="st1" d="M740.5,1077.5l4-1l23-32l-24,27h-11l-8-4l-10-2L740.5,1077.5z"/>
	<path class="st7" d="M744.5,1077.5h3l17-10l8,2l16-13l11-20l2-3l3-6l3-6v-3l-17-10l-2,2l-4,9l-10,6l-10-6l-5,9v17l-2-8l-2,14
		l-12,20l24-27l-23,32V1077.5z M770.5,1054.5l-2,1L770.5,1054.5z"/>
	<path class="st6" d="M688.5,1072.5l6-5l-10,3l-5-1L688.5,1072.5z"/>
	<path class="st8" d="M732.5,1071.5h11l12-20h-2l-3,2l-8,7l-18,7L732.5,1071.5z"/>
	<path class="st5" d="M684.5,1070.5l10-3l15-1l5-1l10,2l18-7l-8,2v-2l-6,1l-16-14l-16,6l-17,9l-13-5l3,11l10,1L684.5,1070.5z"/>
	<path class="st6" d="M667.5,1068.5h2l-3-11l3-28h1l1-1h-1l-4-5l-1-4l-3-8L667.5,1068.5z"/>
	<path class="st3" d="M445.5,1064.5h2l-1-6h-1l-1-16h-2v11L445.5,1064.5z"/>
	<path class="st1" d="M791.5,1063.5l8-27l-11,20L791.5,1063.5z"/>
	<path class="st1" d="M679.5,1062.5l17-9l-9,4l-8,1l-2-1l-8-3h-3v-8l1-6l2-11l-3,28L679.5,1062.5z"/>
	<path class="st1" d="M734.5,1062.5l8-2l8-7l-6-26l-7,31l-3,2V1062.5z"/>
	<path class="st9" d="M728.5,1061.5l6-1l3-2l-25-11L728.5,1061.5z"/>
	<path class="st7" d="M459.5,1059.5l45-11l-10-23l-31-75L459.5,1059.5z"/>
	<path class="st9" d="M445.5,1058.5h1l3-19h-5v3L445.5,1058.5z"/>
	<path class="st5" d="M679.5,1058.5l8-1h-10L679.5,1058.5z"/>
	<path class="st3" d="M737.5,1058.5l7-31l-15-29v-1l-2-7l-55,40l-3,24l8,3h10l9-4l16-6L737.5,1058.5z"/>
	<path class="st1" d="M840.5,1056.5l1-1l30-36h-1l-1-1L840.5,1056.5z"/>
	<path class="st0" d="M421.5,1054.5l21-1v-11l-1-35l-15,20l-13,25L421.5,1054.5z"/>
	<path class="st5" d="M666.5,1054.5h3l3-24h-2v-1h-1l-2,11l-1,6V1054.5z"/>
	<path class="st9" d="M750.5,1053.5l3-2l-1-24l2-8l3-8l-28-13l15,29L750.5,1053.5z"/>
	<path class="st8" d="M753.5,1051.5h2l2-14l-5-10L753.5,1051.5z"/>
	<path class="st1" d="M759.5,1045.5v-17l-5-9l-2,8l5,10L759.5,1045.5z"/>
	<path class="st3" d="M442.5,1042.5h2v-3l7-34v-1l1-10l-5,2l-1,1l-1,2l-1,2l-1,2l-1,2l-1,2L442.5,1042.5z"/>
	<path class="st2" d="M444.5,1039.5h5v-1l1-9l1-13v-11L444.5,1039.5z"/>
	<path class="st8" d="M449.5,1039.5l3-23h-1l-1,13l-1,9V1039.5z"/>
	<path class="st7" d="M549.5,1038.5l-36-44l-1,2L549.5,1038.5z"/>
	<path class="st1" d="M813.5,1031.5l8-40l-12,28l-2-1v3L813.5,1031.5z"/>
	<path class="st9" d="M670.5,1030.5h2l55-40l-14,1h-11h-11v5l-7,11l-7,5l-6,16l-1,1V1030.5z"/>
	<path class="st6" d="M654.5,1029.5l-3-12v2L654.5,1029.5z"/>
	<path class="st5" d="M670.5,1028.5h1l6-16l-11,11L670.5,1028.5z"/>
	<path class="st8" d="M759.5,1028.5l5-9l-7-8l-3,8L759.5,1028.5z"/>
	<path class="st1" d="M774.5,1025.5l10-6h-10v-1l3-4l-3,1l-2-2h-1l-2-2l-25-12h-2l-13-2v1l28,13l7,8L774.5,1025.5z"/>
	<path class="st0" d="M892.5,1023.5l8-50l-2,6l-5,26L892.5,1023.5z"/>
	<path class="st7" d="M774.5,1019.5h10l-10-1V1019.5z"/>
	<path class="st8" d="M784.5,1019.5l4-9l-2,1l-9,2v1l-3,4L784.5,1019.5z"/>
	<path class="st7" d="M809.5,1019.5l12-28l16-45l-21,15l-26,47l17,10L809.5,1019.5z M795.5,1005.5l-2,1L795.5,1005.5z"/>
	<path class="st7" d="M870.5,1019.5h1l-2-1L870.5,1019.5z"/>
	<path class="st9" d="M451.5,1016.5h1v-12h-1v1V1016.5z"/>
	<path class="st7" d="M613.5,1015.5l8-5l-24-45h-2l-2-2l7,17l-25-32l-3,3L613.5,1015.5z"/>
	<path class="st8" d="M774.5,1015.5l3-1v-1h-1v-1h-2l-2,1L774.5,1015.5z"/>
	<path class="st6" d="M630.5,1014.5l23-7l-13,2l3-14h-2l23-5l13-1l-55-44l2-18l-10-9l-13,38l-16-21l-8-16h-1l-4-7l-1-5l-1,3l1,10
		l6,18l5,7l6,6l1,3l8,11l24,45l2,2L630.5,1014.5z"/>
	<path class="st9" d="M771.5,1013.5h1l2-1l-5-1L771.5,1013.5z"/>
	<path class="st9" d="M776.5,1013.5h1l9-2h-1l3-10h-2l-27-10l17,21V1013.5z"/>
	<path class="st2" d="M774.5,1012.5h2l-17-21l-4-1l-11,9l25,12L774.5,1012.5z"/>
	<path class="st8" d="M785.5,1011.5h1l2-1l2-2l26-47l-5,1l5-1l21-15l5-23l-33,37l-18,7l-6-13h-1l-7-9l-21,8l10,2l1,4l-3,6l-2,2l-5,6
		l-22,10l53,18L785.5,1011.5z"/>
	<path class="st5" d="M640.5,1009.5l13-2l18-8l-14-7l-14,3L640.5,1009.5z"/>
	<path class="st3" d="M892.5,1005.5h1l5-26l-6,10v8V1005.5z"/>
	<path class="st2" d="M451.5,1004.5h1v-5v-5L451.5,1004.5z"/>
	<path class="st0" d="M873.5,1003.5h1l25-30l-6-12L873.5,1003.5z"/>
	<path class="st1" d="M786.5,1001.5h2l-53-18h-4l25-10l6-6l2-2l3-6l-1-4l-19,2l-48,27l-36-22h-11l12-6l82-2l10-1l21-8l20-12l-2-2
		l-18,9l-18,7l-20,2l-50,1l-19,1v-1h-6l-10-3h-2l-30-2l55,44l14,2h11h11l14-1h28l4,1L786.5,1001.5z M652.5,966.5l-1,1L652.5,966.5z"
		/>
	<path class="st9" d="M452.5,999.5l1-26h-1v21V999.5z"/>
	<path class="st5" d="M671.5,999.5l20-3v-5l-14-2l-13,1l-7,2L671.5,999.5z"/>
	<path class="st9" d="M742.5,999.5h2l11-9h-28l2,7L742.5,999.5z"/>
	<path class="st4" d="M890.5,999.5l2-2v-8l-3,5L890.5,999.5z"/>
	<path class="st5" d="M511.5,996.5h1l1-2l-19-21L511.5,996.5z"/>
	<path class="st1" d="M580.5,995.5h1l-5-12L580.5,995.5z"/>
	<path class="st1" d="M641.5,995.5h2l14-3l7-2L641.5,995.5z"/>
	<path class="st1" d="M699.5,984.5l48-27l-1-3l-82,2l-1,6L699.5,984.5z"/>
	<path class="st7" d="M731.5,983.5h4l22-10h-1L731.5,983.5z"/>
	<path class="st1" d="M600.5,980.5l-7-17l-4-9l-1-3h-1l-5-6l-5-7h-1l-5-18l-1-10l-3,2l3,27l5,9L600.5,980.5z"/>
	<path class="st0" d="M452.5,973.5h1v-1L452.5,973.5z"/>
	<path class="st5" d="M492.5,973.5h2l-24-35l-1,4L492.5,973.5z"/>
	<path class="st7" d="M756.5,973.5h1l5-6L756.5,973.5z"/>
	<path class="st9" d="M791.5,967.5l18-7l21-27l-12,6l-11-29h-1l-10,11l-4,4l3,6l2,2l-12,21L791.5,967.5z"/>
	<path class="st7" d="M595.5,965.5h2l-8-11l4,9L595.5,965.5z"/>
	<path class="st2" d="M453.5,964.5l1-33h-1V964.5z"/>
	<path class="st7" d="M652.5,962.5h11l1-6L652.5,962.5z"/>
	<path class="st5" d="M809.5,960.5l33-37l-24-17v1l14,21l-2,5L809.5,960.5z"/>
	<path class="st1" d="M889.5,960.5l7-5v-1L889.5,960.5z"/>
	<path class="st7" d="M747.5,957.5l19-2l-10-2l-10,1L747.5,957.5z"/>
	<path class="st3" d="M897.5,957.5l25-114v-5l-5,43l-21,73v1L897.5,957.5z"/>
	<path class="st5" d="M601.5,956.5l13-38l-4-3l-20,26l-5-6L601.5,956.5z"/>
	<path class="st5" d="M784.5,954.5h1l12-21l-20,12L784.5,954.5z"/>
	<path class="st1" d="M571.5,951.5h1l3-3l-5-9L571.5,951.5z"/>
	<path class="st7" d="M587.5,951.5h1l-6-6L587.5,951.5z"/>
	<path class="st6" d="M670.5,951.5l19-1h-1h-18V951.5z"/>
	<path class="st8" d="M664.5,950.5h6h18l2-1v-12l-21,5l-13-3l-2,8L664.5,950.5z"/>
	<path class="st8" d="M688.5,950.5h1l50-1h-49L688.5,950.5z"/>
	<path class="st5" d="M888.5,950.5l12-14l6-69h-5l-8-2l-10,83L888.5,950.5z"/>
	<path class="st9" d="M690.5,949.5h49l20-2l-1-8l-6,1l-10,1v-1l-52-3V949.5z"/>
	<path class="st0" d="M871.5,948.5l18-96l1-6l3-41l-19,31l-1,10l-1,8l-8-6l-8,24l1,5l-3,60v-1l-1,7L871.5,948.5z"/>
	<path class="st7" d="M652.5,947.5h2l2-8v-2v-11l-32,1l-2,18L652.5,947.5z"/>
	<path class="st5" d="M759.5,947.5l18-7l-3-5l-16,4L759.5,947.5z"/>
	<path class="st9" d="M469.5,942.5l1-4l-5-9l-1,5L469.5,942.5z"/>
	<path class="st1" d="M669.5,942.5l21-5l52,3h10l6-1l16-4l18-10l4-4l4-7l-45,16l-11,3l-37-15l11,1h2l19,4l-15,12l-12,1v-1h-2l-9-1
		l-5,2l4-18l-22,6l-22,13v2L669.5,942.5z"/>
	<path class="st2" d="M590.5,941.5l20-26l-1-2h-3l-4-7h-3h-9v-1h-5l-7-1l-1,15l8,16L590.5,941.5z"/>
	<path class="st9" d="M742.5,941.5l10-1h-10V941.5z"/>
	<path class="st5" d="M777.5,940.5l18-9l-3-6l-18,10L777.5,940.5z"/>
	<path class="st3" d="M818.5,939.5l12-6l2-5l-14-21h-9l-2,3L818.5,939.5z"/>
	<path class="st1" d="M503.5,938.5l3-1l-21-97l1,16l-5,30L503.5,938.5z"/>
	<path class="st7" d="M576.5,938.5h1l-6-18L576.5,938.5z"/>
	<path class="st1" d="M542.5,937.5l1-10h-4L542.5,937.5z"/>
	<path class="st8" d="M656.5,937.5l22-13l20-13v-1l-28-3h-16l-5,9l7,10V937.5z"/>
	<path class="st2" d="M854.5,937.5l3-60l-3,59V937.5z"/>
	<path class="st3" d="M696.5,936.5l5-2l17-15l-11-1h-7L696.5,936.5z"/>
	<path class="st3" d="M712.5,936.5l12-1h-12V936.5z"/>
	<path class="st0" d="M710.5,935.5h2h12l15-12h-2l-17-4h-2l-17,15L710.5,935.5z"/>
	<path class="st2" d="M464.5,934.5l1-5l-5-18h-2l1-7v-1h-2v-14h-1l1-76v-3l-4,8v54l1,10l1,37L464.5,934.5z"/>
	<path class="st9" d="M744.5,933.5l11-3l-17-23l-21,4l-14,2l-5-2l-20,13l22-6h7L744.5,933.5z"/>
	<path class="st0" d="M453.5,931.5h1v-1L453.5,931.5z"/>
	<path class="st8" d="M755.5,930.5l45-16l1-5l-1-2l-39-1h-10l-13,1L755.5,930.5z"/>
	<path class="st1" d="M539.5,927.5h4l-2-8l-3,5L539.5,927.5z"/>
	<path class="st7" d="M538.5,924.5l3-5l-8-34l-4,4L538.5,924.5z"/>
	<path class="st7" d="M633.5,923.5l15-7l-1-9L633.5,923.5z"/>
	<path class="st3" d="M737.5,923.5h2l-19-4L737.5,923.5z"/>
	<path class="st5" d="M796.5,921.5l10-11l-5-1l-1,5L796.5,921.5z"/>
	<path class="st5" d="M576.5,919.5h1l1-15v-1l-6,9L576.5,919.5z"/>
	<path class="st7" d="M648.5,916.5h1l5-9h-1h-6L648.5,916.5z"/>
	<path class="st8" d="M606.5,913.5h3l-7-7L606.5,913.5z"/>
	<path class="st6" d="M703.5,913.5l14-2l-19-1v1L703.5,913.5z"/>
	<path class="st6" d="M846.5,913.5l-5-38l-8,10l-9-6l-1,3l-12-15l-19,6l3,12l-3-1l-5,4l7,3l38,9L846.5,913.5z"/>
	<path class="st6" d="M566.5,912.5h1l3-2l1-3l15-12l7-6l26-16l3,15l36-8h-6l-9,2l-13,3v-5l-3,1l15-15l25-6l-12-14l-8-8l-1-2l-50,34
		v-2l-11,10l-9-7l-2,3l2-5l-1-6l-6,3l-1,7l-3,21L566.5,912.5z"/>
	<path class="st5" d="M458.5,911.5h2l-1-7L458.5,911.5z"/>
	<path class="st1" d="M559.5,910.5l2-17l-4-8L559.5,910.5z"/>
	<path class="st8" d="M806.5,910.5h1l2-3h-1v-1l-8,1l1,2L806.5,910.5z"/>
	<path class="st7" d="M653.5,907.5h1h16H653.5z"/>
	<path class="st9" d="M808.5,907.5h1h9v-1h-10V907.5z"/>
	<path class="st9" d="M590.5,906.5h9l-1-1h-8V906.5z"/>
	<path class="st8" d="M585.5,905.5h5h8l-20-2v1L585.5,905.5z"/>
	<path class="st5" d="M457.5,903.5h2l-1-55h-1v41V903.5z"/>
	<path class="st7" d="M830.5,900.5h2l-38-9L830.5,900.5z"/>
	<path class="st1" d="M710.5,899.5h4l-6-4L710.5,899.5z"/>
	<path class="st1" d="M714.5,899.5l4-1l44-8l1-3l-55,8L714.5,899.5z"/>
	<path class="st1" d="M699.5,898.5l2-1l-34-10v3L699.5,898.5z"/>
	<path class="st7" d="M564.5,894.5h1l3-21l-6,12l-1-14l-6,8v3l2,3l4,8L564.5,894.5z"/>
	<path class="st1" d="M655.5,892.5l12-2v-3L655.5,892.5z"/>
	<path class="st1" d="M768.5,892.5l-5-5l-1,3L768.5,892.5z"/>
	<path class="st9" d="M456.5,889.5h1v-41l1-19l1-11l3-16v-2h-2l-3,13L456.5,889.5z"/>
	<path class="st1" d="M528.5,889.5h1l4-4l-27-97l-2,1L528.5,889.5z"/>
	<path class="st1" d="M619.5,888.5h3l-3-15V888.5z"/>
	<path class="st5" d="M784.5,888.5h3l5-4l-3-2l-5,3l-45-9L784.5,888.5z"/>
	<path class="st1" d="M552.5,887.5h1l2-5v-3h-1l-9-31L552.5,887.5z"/>
	<path class="st1" d="M562.5,885.5l6-12l1-7l-8,5L562.5,885.5z"/>
	<path class="st5" d="M630.5,885.5l13-3l-1-6l-12,4V885.5z"/>
	<path class="st2" d="M705.5,885.5l24-6l-23-5l4,1l24-17l-6,8l-8,3v-2l-2-1h-2l-4-7h-1l-14,6l-4,1l-4-6v-1h-1l-10-3l-36,20l1,6l9-2
		l40-1L705.5,885.5z"/>
	<path class="st3" d="M784.5,885.5l5-3l-42-21l-13-3l-24,17h-1l-3-1l23,5l10-3L784.5,885.5z"/>
	<path class="st1" d="M795.5,885.5l-3-12l-45-12l42,21l3,2L795.5,885.5z"/>
	<path class="st5" d="M833.5,885.5l8-10l-24-36l-14,1l-15-10l-2-1v5l-4-9l-8-10h-2v-4l-10,27l-1,1l-6,9l1,7l-16-18l-10-2l-1,3v11
		l-3,16l2,1l6-8l13,3l45,12l19-6l13,12L833.5,885.5z M808.5,844.5l-6,1L808.5,844.5z M779.5,836.5l-2,1L779.5,836.5z"/>
	<path class="st1" d="M823.5,882.5l1-3l-13-12L823.5,882.5z"/>
	<path class="st1" d="M627.5,881.5l3-1l12-4l36-20l-5,1l-6,3l-25,6L627.5,881.5z"/>
	<path class="st2" d="M916.5,881.5h1l5-43v-41v-9l-5,67l-1,9V881.5z"/>
	<path class="st5" d="M652.5,880.5h6l34-1L652.5,880.5z"/>
	<path class="st7" d="M554.5,879.5h1l6-8l8-5l6-3l2-13h-2l-2,6l-14-5l-12-34l-8,1l6,30L554.5,879.5z"/>
	<path class="st8" d="M585.5,878.5l11-10l10-14l14-14h-1v-1l-4-4l-4,3l-15,9l6-4l-17,1l-2,3l-6-3v6l-2,13l1,6v2L585.5,878.5z"/>
	<path class="st1" d="M709.5,875.5h1l-4-1L709.5,875.5z"/>
	<path class="st1" d="M574.5,874.5l2-3v-2L574.5,874.5z"/>
	<path class="st2" d="M855.5,872.5h1l8-24l-16-12h-1l-6-11l-13,13L855.5,872.5z"/>
	<path class="st1" d="M596.5,870.5l50-34v-1l-3-5l-37,24l-10,14V870.5z"/>
	<path class="st5" d="M720.5,869.5l8-3l-2-1l-6,2V869.5z"/>
	<path class="st6" d="M901.5,867.5h5l5-33l-18,31L901.5,867.5z"/>
	<path class="st5" d="M693.5,866.5l4-1l-8-5L693.5,866.5z"/>
	<path class="st5" d="M716.5,866.5h2l-6-7L716.5,866.5z"/>
	<path class="st2" d="M916.5,864.5l1-9l-1,3V864.5z"/>
	<path class="st8" d="M688.5,859.5h1l2-14l-5-4l-13,16l5-1L688.5,859.5z"/>
	<path class="st1" d="M573.5,856.5l2-6h-1h-8l-7,1L573.5,856.5z"/>
	<path class="st1" d="M756.5,855.5l-1-7h-1l-14-11L756.5,855.5z"/>
	<path class="st6" d="M606.5,854.5l37-24l-8-12l-3,3l-12,19L606.5,854.5z"/>
	<path class="st2" d="M872.5,854.5l1-8v-4L872.5,854.5z"/>
	<path class="st6" d="M559.5,851.5l7-1h8h1h2v-6l-1-2l-2-1l-11,1l-15-100l3-1v-1h-9l-23,3l-2,13l1,2l6,10l22,43l1,6L559.5,851.5z"/>
	<path class="st6" d="M728.5,849.5h1v-11L728.5,849.5z"/>
	<path class="st8" d="M457.5,848.5h1v-19L457.5,848.5z"/>
	<path class="st6" d="M754.5,848.5h1l6-9l-9-5l-1,1l-14-6l-7,6l10,2L754.5,848.5z"/>
	<path class="st1" d="M583.5,847.5l2-3h-2l-7-2l1,2L583.5,847.5z"/>
	<path class="st1" d="M596.5,847.5l15-9l-4,2l-5,3L596.5,847.5z"/>
	<path class="st7" d="M663.5,847.5l-1-10h-1l-17-18l-8-5l-2,2l1,2l8,12l3,5l5,5l-4-2l8,8L663.5,847.5z"/>
	<path class="st2" d="M873.5,846.5l1-10l-1-1v7V846.5z"/>
	<path class="st2" d="M890.5,846.5l5-42l-2,1L890.5,846.5z"/>
	<path class="st7" d="M691.5,845.5l18-5l-19-2l-4,3L691.5,845.5z"/>
	<path class="st9" d="M583.5,844.5h2l17-1l5-3l-15,2l-18-3v2l2,1L583.5,844.5z"/>
	<path class="st0" d="M922.5,843.5l2-47v-9l-2,10v41V843.5z"/>
	<path class="st5" d="M563.5,842.5l11-1v-2l-23-97h-3L563.5,842.5z"/>
	<path class="st2" d="M592.5,842.5l15-2l4-2l4-3l13-9l-3-71v-19l-17-8l-5,2l-26,8l17,83l-23-82l-14,2l-6,1l23,97L592.5,842.5z"/>
	<path class="st1" d="M713.5,841.5l35-28l27-24l-85,49l19,2L713.5,841.5z"/>
	<path class="st1" d="M619.5,840.5h1l12-19h-1l-1-2l-2,7l-9,13V840.5z"/>
	<path class="st1" d="M651.5,840.5l-5-5v1l1,2L651.5,840.5z"/>
	<path class="st4" d="M803.5,840.5l14-1l6-2l-35-7L803.5,840.5z"/>
	<path class="st9" d="M619.5,839.5l9-13l-13,9L619.5,839.5z"/>
	<path class="st6" d="M762.5,838.5l10-27l1-1L762.5,838.5z"/>
	<path class="st0" d="M826.5,838.5h2l13-13l-5-22h-4l7-65l-53,13l2,17l-1,13l-3,11l-10,18v5l8,10l4,4l2,1l35,7L826.5,838.5z"/>
	<path class="st1" d="M661.5,837.5h1l-18-18L661.5,837.5z"/>
	<path class="st9" d="M847.5,836.5h1l6-4l6-35l16-25l-23-34h-6l-11,65l5,22L847.5,836.5z"/>
	<path class="st2" d="M874.5,836.5l19-31l2-1l-22,31L874.5,836.5z"/>
	<path class="st7" d="M751.5,835.5l1-1l-15-5L751.5,835.5z"/>
	<path class="st1" d="M786.5,834.5v-5l-4-4L786.5,834.5z"/>
	<path class="st8" d="M861.5,833.5l17-47l15-11l10-62l-50,24v1l23,34l-16,26v-1l-6,35L861.5,833.5z"/>
	<path class="st5" d="M628.5,826.5l2-7l-11-27l10-69l-8-4l-13,9l17,8v19L628.5,826.5z"/>
	<path class="st3" d="M594.5,821.5l-17-83h-6v1L594.5,821.5z"/>
	<path class="st6" d="M631.5,821.5h1l3-3l-1-2h-1l-9-14l-5-10l11,27L631.5,821.5z"/>
	<path class="st0" d="M452.5,819.5l1-1h-1V819.5z"/>
	<path class="st3" d="M452.5,818.5h1l4-8l3-11l-7-95l-17,5v4l6,27l2,10l1,11v10v1v2l1,5l1,12l4,19v4L452.5,818.5z"/>
	<path class="st7" d="M538.5,818.5h1l8-1l-1-6h-2l-27-55l2-13h-1l-3-1l-11,2l24,53L538.5,818.5z"/>
	<path class="st7" d="M633.5,816.5h1l2-2l-12-12L633.5,816.5z"/>
	<path class="st2" d="M772.5,815.5h2v-5v-1l-1,1l-1,1V815.5z"/>
	<path class="st4" d="M457.5,813.5l3-13v-1l-3,11V813.5z"/>
	<path class="st7" d="M905.5,812.5l-12-37l-15,11l5,7L905.5,812.5z"/>
	<path class="st1" d="M544.5,811.5h2l-22-43h-1l-5-10l-1-2L544.5,811.5z"/>
	<path class="st2" d="M774.5,810.5l10-18l-2,3l-7,12l-1,2V810.5z"/>
	<path class="st0" d="M449.5,804.5h1l-1-2V804.5z"/>
	<path class="st3" d="M832.5,803.5h4l11-65h-1h-7L832.5,803.5z"/>
	<path class="st0" d="M448.5,802.5h1l-1-1V802.5z"/>
	<path class="st5" d="M462.5,802.5l2-4l2-56l-2-9h-1l-3-21l-2-5l4,93V802.5z"/>
	<path class="st7" d="M467.5,802.5l3-42l-3,36V802.5z"/>
	<path class="st2" d="M460.5,800.5h2l-4-93v-1h-2l-8-49h-1v-5h-1l-1-6v-5h-1v-6h-1v-6h-1v-7h-1v-7h-1l13,89l7,95V800.5z"/>
	<path class="st1" d="M727.5,800.5l2-1l25-18h-1l-2-5L727.5,800.5z"/>
	<path class="st8" d="M464.5,798.5l3-2l3-36l-4-18L464.5,798.5z"/>
	<path class="st5" d="M860.5,798.5l16-26l-16,25V798.5z"/>
	<path class="st1" d="M526.5,797.5h2l-24-53v45l2-1L526.5,797.5z M517.5,778.5l-1,1L517.5,778.5z"/>
	<path class="st2" d="M922.5,797.5l2-10l3-19l-4-48l-1,68V797.5z"/>
	<path class="st2" d="M958.5,797.5h10v-1L958.5,797.5z"/>
	<path class="st0" d="M968.5,797.5l6-2h-1v-1l-5,2V797.5z"/>
	<path class="st0" d="M924.5,796.5l3-28l-3,19V796.5z"/>
	<path class="st1" d="M958.3,797.9l10.2-1.4l5-2l4-8v-24h-1l-11-6l-4-8h-1l2-10l3-12l-5-1l-5,17l-3,8l-4,21l-3,21l1,2h5l2,1
		C953.5,795.5,957.3,796.9,958.3,797.9z M968.5,789.5l-4,1l-4-2h-1l14-18L968.5,789.5z"/>
	<path class="st0" d="M951.5,795.5h2l-2-1V795.5z"/>
	<path class="st0" d="M973.5,795.5h1h1l1-1h1l1-1l1-1h1l-3-6l-4,8V795.5z"/>
	<path class="st7" d="M718.5,793.5l12-6l-14,2l-37-17L718.5,793.5z"/>
	<path class="st0" d="M980.5,792.5l16-31l-2,2l2-15l-19,38L980.5,792.5z"/>
	<path class="st9" d="M447.5,791.5l-1-12v4L447.5,791.5z"/>
	<path class="st5" d="M906.5,790.5l3-1l3-9l-6,6l-3-20L906.5,790.5z"/>
	<path class="st4" d="M964.5,790.5l4-1l5-19l-13,18L964.5,790.5z"/>
	<path class="st6" d="M716.5,789.5l14-2l12-11h-1v-1l-12,8l-12,2l-6-3l-35-18l2,7l1,1L716.5,789.5z"/>
	<path class="st5" d="M959.5,788.5h1l13-18L959.5,788.5z"/>
	<path class="st2" d="M906.5,786.5l6-6l-3-24l-6,10L906.5,786.5z"/>
	<path class="st0" d="M977.5,786.5l19-38l-28-5h-1l2-8l4-6l-8-3l-3,12l-1,10l4,8l12,6V786.5z"/>
	<path class="st1" d="M422.5,785.5l7-1L422.5,785.5z M414.5,776.5l-1,1L414.5,776.5z"/>
	<path class="st8" d="M717.5,785.5l12-2h-12l-6-1L717.5,785.5z"/>
	<path class="st8" d="M445.5,783.5h1v-4l-1-5V783.5z"/>
	<path class="st9" d="M717.5,783.5h12l12-8l9-9l-7-26h-1l-7-23l-8,6l6,23l-10,30v-1h-6l-11-3l-23-6h-1l-1-11l-1-2l-3,9l-1,2l35,18
		L717.5,783.5z"/>
	<path class="st7" d="M753.5,781.5h1l3-2v-5l-6,2L753.5,781.5z"/>
	<path class="st6" d="M757.5,779.5l26-3h-2l-18-2h-6V779.5z"/>
	<path class="st1" d="M723.5,776.5l10-30v4v16l-10,9V776.5z"/>
	<path class="st8" d="M741.5,776.5h1l8-10l-9,9V776.5z"/>
	<path class="st5" d="M781.5,776.5h2l-20-2L781.5,776.5z"/>
	<path class="st1" d="M644.5,775.5l4-1l4-4l-8,2l-7-5L644.5,775.5z"/>
	<path class="st2" d="M717.5,775.5h6l10-9l-21,7l-6-1L717.5,775.5z"/>
	<path class="st0" d="M712.5,773.5l21-7v-16l-28-117l-20,125l-2,8l23,6L712.5,773.5z M723.5,770.5l-12,1L723.5,770.5z"/>
	<path class="st8" d="M444.5,772.5h1v-1l-1-8V772.5z"/>
	<path class="st7" d="M644.5,772.5l8-2l7-24l-6,17l-1,1l-3,3l9-25l-21,25L644.5,772.5z"/>
	<path class="st4" d="M445.5,771.5v-10h-1v2L445.5,771.5z"/>
	<path class="st7" d="M676.5,771.5h2l-2-7l1-2h-1v-18v-2V771.5z"/>
	<path class="st5" d="M765.5,770.5l10-1h-10V770.5z"/>
	<path class="st2" d="M762.5,769.5h3h10l7-7l-20,6V769.5z"/>
	<path class="st7" d="M523.5,768.5h1l-6-10L523.5,768.5z"/>
	<path class="st0" d="M761.5,768.5h1l20-6l-2-7h-25L761.5,768.5z"/>
	<path class="st3" d="M927.5,768.5l2-69h-3l-1-2l-2,7l-1-1l-4,4l5,13L927.5,768.5z"/>
	<path class="st8" d="M649.5,767.5l3-3h-1l2-1l6-17l-1-4L649.5,767.5z"/>
	<path class="st4" d="M682.5,766.5h1l2-8h-1v-3h-3L682.5,766.5z"/>
	<path class="st9" d="M651.5,764.5h1l1-1L651.5,764.5z"/>
	<path class="st5" d="M399.5,763.5l2-1l9-12l1-11L399.5,763.5z M405.5,748.5l-4,1L405.5,748.5z"/>
	<path class="st1" d="M994.5,763.5l2-2v-1l1-2v-1l1-1v-1l1-2v-1l2-3v-2l1-1v-3v-1l-5,6l4-21l6-21v-15l-3-11h-1l-4-7h-1v-25l7-21l1-2
		l2-3h3l-1,12v15l1,10l3,21v10l1,4v-2l1-2v-1l1-2v-2l1-1v-1l1-2v-1l1-2l1-3l1-3l2-6l1-1v-1l1-3v-1l1-2v-1l1-1v-1l1-5v-3l1-1v-1v-2
		l1-13l1-1v-3v-1l1-16l-4-12h-1l-2-2l-14,6l-3,6l-4,6l-5,7l-8,18l-8,24l-5,14v10l4,8l1,15v-1h-1l-3,12l14-14l1-3v-4l7-1l-1,5v5
		l-28,21l-4,6l-1,8l28,5L994.5,763.5z M1021.5,651.5l-1,1L1021.5,651.5z M1016.5,608.5l-3,1L1016.5,608.5z"/>
	<path class="st0" d="M392.5,762.5h1l-1-1V762.5z"/>
	<path class="st8" d="M676.5,762.5h1l3-9v-15h-1l-3,6V762.5z"/>
	<path class="st2" d="M976.5,762.5h1l-12-6L976.5,762.5z"/>
	<path class="st2" d="M444.5,761.5h1l-1-11V761.5z"/>
	<path class="st3" d="M684.5,758.5h1l20-125l28,117v-4l-6-23h-1l-6-89l-14-9l-6,8l-13,111l-1,2l-2,9V758.5z"/>
	<path class="st5" d="M681.5,755.5h3l2-9h-1l2-7l10-60l-2,4l2-46h-1l-8-18v1l1,27v65v-4l-9,30v15L681.5,755.5z"/>
	<path class="st2" d="M755.5,755.5h25l-10-43l16,39l53-13h7l-20-5l-42-21h-1l-7-9l-6-9h-1l-3-7l-8,19v2l-1,10v12l2,14L755.5,755.5z"
		/>
	<path class="st0" d="M952.5,750.5l3-8h-1L952.5,750.5z"/>
	<path class="st2" d="M960.5,748.5h1l1-10L960.5,748.5z"/>
	<path class="st0" d="M997.5,748.5l5-6h1v-1l1-3v-2l1-2v-1l1-3v-2l1-1v-2l1-1v-2l1-3v-3l1-1v-1l1-5v-2l3-17v-10h-1l-3-21v-1l-6,22
		l3,11l1,6l-7,30L997.5,748.5z"/>
	<path class="st9" d="M685.5,746.5h1l1-2v-5L685.5,746.5z"/>
	<path class="st7" d="M676.5,744.5l3-6h-1v-1l-2,5V744.5z"/>
	<path class="st9" d="M687.5,744.5l13-111l-3,46l-10,60V744.5z"/>
	<path class="st9" d="M758.5,744.5h1l-2-14L758.5,744.5z"/>
	<path class="st7" d="M518.5,743.5h1l23-3l-27,2L518.5,743.5z"/>
	<path class="st2" d="M967.5,743.5h1l1-8L967.5,743.5z"/>
	<path class="st0" d="M1002.5,743.5l1-1h-1V743.5z"/>
	<path class="st5" d="M548.5,742.5h3l6-1h-6L548.5,742.5z"/>
	<path class="st0" d="M954.5,742.5h1l5-17L954.5,742.5z"/>
	<path class="st5" d="M551.5,741.5h6l14-2v-1h-6l-14,2V741.5z"/>
	<path class="st2" d="M441.5,740.5h1l-6-27L441.5,740.5z"/>
	<path class="st8" d="M742.5,740.5h1l-11-45l3,22L742.5,740.5z"/>
	<path class="st5" d="M565.5,738.5h6h6l26-8L565.5,738.5z"/>
	<path class="st6" d="M678.5,738.5h1h1l9-30v-61l-1-27h-1h-2v-9l-2,5l2,89l-7,32V738.5z"/>
	<path class="st5" d="M846.5,738.5h1h6v-1l-27-4L846.5,738.5z"/>
	<path class="st6" d="M631.5,735.5l3-14l-4-11l-9,9l8,4L631.5,735.5z"/>
	<path class="st8" d="M382.5,733.5l2-1l4-3l-6,2V733.5z"/>
	<path class="st8" d="M463.5,733.5h1l-4-21L463.5,733.5z"/>
	<path class="st2" d="M381.5,731.5h1l6-2l5-6l-21-13L381.5,731.5z"/>
	<path class="st1" d="M424.5,730.5l1-1v-3l-3,1L424.5,730.5z"/>
	<path class="st1" d="M670.5,730.5l1-32l-7,20L670.5,730.5z"/>
	<path class="st8" d="M388.5,729.5l6-6h-1L388.5,729.5z"/>
	<path class="st8" d="M748.5,729.5l6-25l-8-25L748.5,729.5z"/>
	<path class="st4" d="M973.5,729.5l28-21h-6l-1-2l-14,14h-1l-4,6L973.5,729.5z"/>
	<path class="st7" d="M420.5,727.5h2l3-1l-1-4l-4,3V727.5z"/>
	<path class="st3" d="M1001.5,727.5l7-30l-1,9L1001.5,727.5z"/>
	<path class="st0" d="M975.5,726.5l4-6v-3L975.5,726.5z"/>
	<path class="st7" d="M419.5,725.5h1l4-3l-2-8l-5,8L419.5,725.5z"/>
	<path class="st7" d="M540.5,724.5l6-1l-18-6h-3l-35-40l-12-30l-12,2l8,30l11,18l20,22L540.5,724.5z"/>
	<path class="st5" d="M393.5,723.5h1l2-3l-3-23l-13,3l-12-5l4,15L393.5,723.5z"/>
	<path class="st9" d="M726.5,723.5h1l8-6l-3-22l-1-24l1-9v-1l3-16v-4l1-9l1-2v-13l-1-1l-16,18L726.5,723.5z"/>
	<path class="st5" d="M417.5,722.5l5-8l-4-24l2,22v2l-4,4l-1-3h-1l-3-6l-1,1L417.5,722.5z"/>
	<path class="st5" d="M843.5,722.5l13-1h-13V722.5z"/>
	<path class="st5" d="M552.5,721.5l46-4l-43,3l-13-2L552.5,721.5z"/>
	<path class="st7" d="M634.5,721.5l18-5l10,2h2l7-20l-1-46l-2-7l-38,65L634.5,721.5z"/>
	<path class="st2" d="M835.5,721.5h8h13l12-2h-32l-6-1l5,2V721.5z"/>
	<path class="st6" d="M396.5,720.5l-1-29h-2v6L396.5,720.5z"/>
	<path class="st2" d="M555.5,720.5l43-3l6-1l5-3l-1-3l-26,6l-9,1l-44-6l-2,1l4,3l11,3L555.5,720.5z"/>
	<path class="st5" d="M829.5,720.5h6l-5-2h-1V720.5z"/>
	<path class="st3" d="M979.5,720.5h1l3-12l-4,9V720.5z"/>
	<path class="st1" d="M501.5,719.5h4l-20-22h-4L501.5,719.5z"/>
	<path class="st1" d="M658.5,719.5l4-1l-10-2L658.5,719.5z"/>
	<path class="st0" d="M836.5,719.5h32l5-1l-1-3l-12,1l-13,2v-1l-52-15l-1,2l35,14h1L836.5,719.5z"/>
	<path class="st2" d="M416.5,718.5l4-4l-5,1L416.5,718.5z"/>
	<path class="st2" d="M847.5,718.5l13-2l-13,1V718.5z"/>
	<path class="st9" d="M873.5,718.5l19-6l6-6l-10,4l-16,5L873.5,718.5z"/>
	<path class="st6" d="M525.5,717.5h3l3-2l-4-3h-2l-2-4l-33-31L525.5,717.5z"/>
	<path class="st5" d="M604.5,716.5l5-2v-1L604.5,716.5z"/>
	<path class="st3" d="M414.5,715.5h1l5-1v-2h-1l-9-25v1l1,21L414.5,715.5z"/>
	<path class="st5" d="M609.5,714.5l25-17h-4l-22,13l1,3V714.5z"/>
	<path class="st2" d="M435.5,713.5h1v-4l-4-8h-1L435.5,713.5z"/>
	<path class="st4" d="M419.5,712.5h1l-2-22l-2-7h-5l-1,1v3L419.5,712.5z"/>
	<path class="st5" d="M525.5,712.5h2l2-1l-6-3L525.5,712.5z"/>
	<path class="st9" d="M555.5,712.5l22-1h-22V712.5z"/>
	<path class="st1" d="M689.5,712.5v-65v61V712.5z"/>
	<path class="st5" d="M783.5,712.5h1l-8-9L783.5,712.5z"/>
	<path class="st9" d="M840.5,712.5l21-1h-21V712.5z"/>
	<path class="st8" d="M892.5,712.5l18-12l-7,3l-5,2v1L892.5,712.5z"/>
	<path class="st3" d="M552.5,711.5h3h22l33-9l12-49l-65-6l-11,3l-7,51l-2,2v5L552.5,711.5z"/>
	<path class="st0" d="M837.5,711.5h3h21l48-24h-1l-7,4l-23,12l-7,1l-6-56h-4l-10-3h-5l-78-8v2l20,52L837.5,711.5z"/>
	<path class="st9" d="M410.5,710.5l1-1l-1-21l-2,8L410.5,710.5z"/>
	<path class="st8" d="M888.5,710.5l10-4v-1L888.5,710.5z"/>
	<path class="st0" d="M436.5,709.5l17-5l-13-89v-9l1-9l-41-37l11,10l13,16l-4,17v5v7l2,48l1,10l3,15l6,13L436.5,709.5z"/>
	<path class="st4" d="M984.5,709.5l-1-15v5l1,9V709.5z"/>
	<path class="st3" d="M536.5,708.5h1v-5l-25-13v5L536.5,708.5z"/>
	<path class="st3" d="M983.5,708.5h1l-1-9V708.5z"/>
	<path class="st5" d="M995.5,708.5h6v-5l-6,1v-1l-1,3L995.5,708.5z"/>
	<path class="st4" d="M917.5,707.5h1l4-4l3-13l1-2h-2l-3-5l-17,18l-1,2l7-3L917.5,707.5z"/>
	<path class="st0" d="M1011.5,707.5l4-13l-1-4L1011.5,707.5z"/>
	<path class="st9" d="M456.5,706.5h2v-5h-1l-3-27l-2-14h-1h-1l-2-11v8L456.5,706.5z"/>
	<path class="st5" d="M758.5,706.5l8-19h1l-19-42l-3,6l1,28l8,25L758.5,706.5z"/>
	<path class="st4" d="M1007.5,706.5l1-9l-1-6V706.5z"/>
	<path class="st7" d="M685.5,705.5l-2-89l1,60l1,14V705.5z"/>
	<path class="st8" d="M898.5,705.5l5-2l1-2L898.5,705.5z"/>
	<path class="st2" d="M792.5,704.5h2l1-2l-4-3v3L792.5,704.5z"/>
	<path class="st4" d="M871.5,704.5l7-1l32-61l-7,2l-8-4l-30,8L871.5,704.5z"/>
	<path class="st1" d="M923.5,704.5l2-7v-7l-3,13L923.5,704.5z"/>
	<path class="st8" d="M995.5,704.5l6-1l1-5l-7,1v4V704.5z"/>
	<path class="st2" d="M610.5,702.5l11-6l5-44l-4,2v-1L610.5,702.5z"/>
	<path class="st5" d="M788.5,702.5h3v-3l-8-5L788.5,702.5z"/>
	<path class="st3" d="M431.5,701.5h1l-6-13L431.5,701.5z"/>
	<path class="st8" d="M457.5,701.5h1l-4-27L457.5,701.5z"/>
	<path class="st3" d="M537.5,701.5h2l7-51h-13l-9,44L537.5,701.5z"/>
	<path class="st7" d="M380.5,700.5l13-3v-6l-8,1l-6-26l1-5l-2-6l-14-12l4,52L380.5,700.5z"/>
	<path class="st0" d="M926.5,699.5h3l10-67l-16,50l3,6l-1,2v7L926.5,699.5z"/>
	<path class="st1" d="M479.5,697.5h2l-7-18l-8-30h-1l-2-9L479.5,697.5z"/>
	<path class="st7" d="M481.5,697.5h4l-11-18L481.5,697.5z"/>
	<path class="st7" d="M630.5,697.5h4l22-29h-2L630.5,697.5z"/>
	<path class="st5" d="M621.5,696.5l9-8l-2-3h-2l2-9v-4h-1l4-8l1-3l2-17h-1l-7,8L621.5,696.5z"/>
	<path class="st3" d="M511.5,695.5h1v-5l-3,1L511.5,695.5z"/>
	<path class="st2" d="M523.5,694.5h1l9-44l-16-1l-21,13L523.5,694.5z"/>
	<path class="st5" d="M769.5,694.5h1l-3-7h-1L769.5,694.5z"/>
	<path class="st6" d="M780.5,694.5h3l-6-8l-1,2L780.5,694.5z"/>
	<path class="st1" d="M385.5,692.5l8-1h2l-14-23h-1l-1-2L385.5,692.5z"/>
	<path class="st2" d="M507.5,691.5h2l3-1l-31-70h-1l-1-8v-2l-1,5L507.5,691.5z"/>
	<path class="st3" d="M787.5,691.5h1l-20-52l-1,7l-2,2l5,11L787.5,691.5z"/>
	<path class="st4" d="M901.5,691.5l7-4l-1-2L901.5,691.5z"/>
	<path class="st7" d="M684.5,690.5h1l-1-14V690.5z"/>
	<path class="st6" d="M630.5,688.5l4-4l-1-4l-5,4v1L630.5,688.5z"/>
	<path class="st7" d="M775.5,688.5h1l1-2l-3-4l-1,1L775.5,688.5z"/>
	<path class="st2" d="M924.5,688.5h2l-3-6l-2,1L924.5,688.5z"/>
	<path class="st0" d="M908.5,687.5h1l26-60h-1l-2-1l-25,59L908.5,687.5z"/>
	<path class="st3" d="M978.5,686.5h1v-10l-2,7L978.5,686.5z"/>
	<path class="st7" d="M626.5,685.5h2v-1l7-14l5-20l-12,26L626.5,685.5z"/>
	<path class="st6" d="M410.5,684.5l1-1l4-2L410.5,684.5z"/>
	<path class="st5" d="M411.5,683.5h5l-1-2L411.5,683.5z"/>
	<path class="st1" d="M695.5,683.5l2-4l3-46l6-8l-9,12L695.5,683.5z"/>
	<path class="st1" d="M772.5,683.5h1l1-1l-4-6v3L772.5,683.5z"/>
	<path class="st0" d="M976.5,683.5h1l2-7l5-14l-4-24l-5,26v-38h-1L976.5,683.5z"/>
	<path class="st2" d="M1003.5,680.5h1l6-22v-9h-1l-4-22l-7,21l1,25L1003.5,680.5z"/>
	<path class="st2" d="M1013.5,680.5h1l-3-21h-1L1013.5,680.5z"/>
	<path class="st1" d="M769.5,679.5h1v-3L769.5,679.5z"/>
	<path class="st9" d="M422.5,678.5l1-5l-1-10h-1L422.5,678.5z"/>
	<path class="st9" d="M998.5,673.5h1l-1-25V673.5z"/>
	<path class="st7" d="M627.5,672.5h1l3-8L627.5,672.5z"/>
	<path class="st1" d="M380.5,668.5h1l-17-25l14,12l2,6l-1,5L380.5,668.5z"/>
	<path class="st1" d="M975.5,664.5l5-26l34-44l1-4l-2,1l-2,1l-1,1l-2,1l-2,1l-1,1l-1,1l-1,1l-1,1l-4,2l-2,1l-7-14l1-1v-2l1-1v-4h-1
		l1-8v-2h-1l1-9v-9l1-3l-3-9l-8,9l5,33l-16-8l-5,3l9,5l4,2v9l-3,10v23V664.5z"/>
	<path class="st2" d="M421.5,663.5h1l-2-48v18v21L421.5,663.5z"/>
	<path class="st8" d="M496.5,662.5l21-13l1-5l-7,1v-1l-19,5L496.5,662.5z"/>
	<path class="st2" d="M984.5,662.5l8-24l14-30l6-7l14-6l-12-1l-34,44L984.5,662.5z"/>
	<path class="st7" d="M632.5,661.5l7-21h-2l-3,4L632.5,661.5z"/>
	<path class="st5" d="M450.5,660.5h1l-1-13l-9-50l-1,9l1,6l1,7l1,6l1,6l1,4l1,4l1,5l1,5L450.5,660.5z"/>
	<path class="st8" d="M451.5,660.5h1l-2-13L451.5,660.5z"/>
	<path class="st9" d="M1010.5,659.5h1l-1-10v9V659.5z"/>
	<path class="st4" d="M447.5,657.5h1v-8l-1-5v8V657.5z"/>
	<path class="st5" d="M419.5,654.5h1v-21h-1v-25l-1,7v11L419.5,654.5z"/>
	<path class="st9" d="M622.5,654.5l4-2l7-8v-12l-5-6l-46,10l-24,7l-1,4l65,6V654.5z"/>
	<path class="st4" d="M446.5,652.5h1v-8l-1-5l-1,7L446.5,652.5z"/>
	<path class="st8" d="M744.5,651.5h1l3-6l-11-28v13L744.5,651.5z"/>
	<path class="st9" d="M533.5,650.5h13l11-3l1-4l-1-1l-22,2h-17l-1,5L533.5,650.5z"/>
	<path class="st7" d="M465.5,649.5h1l12-2l-6-17l-9,8v2L465.5,649.5z"/>
	<path class="st6" d="M492.5,649.5l19-5h24l22-2v-3l-21-2l-44,7V649.5z"/>
	<path class="st9" d="M1009.5,649.5h1v-15l-4-9l-1,2L1009.5,649.5z"/>
	<path class="st1" d="M756.5,648.5l1-1l-2-17l-1,3l-1-1L756.5,648.5z"/>
	<path class="st9" d="M764.5,648.5h1l2-2L764.5,648.5z"/>
	<path class="st9" d="M861.5,648.5h4l30-8l-18-2l-24,4l-1-1l-1,4L861.5,648.5z"/>
	<path class="st4" d="M445.5,646.5l1-7l-1-4v6V646.5z"/>
	<path class="st1" d="M511.5,645.5l7-1h17h-24V645.5z"/>
	<path class="st2" d="M846.5,645.5h5l1-4v-1h-10l-12-3l-6,1l-36-13l24-15h7l3,4l3-2h2l1-2l-27-15v7l-11-5l-4-2l-17,21l-6,4l5,17
		L846.5,645.5z"/>
	<path class="st0" d="M1030.5,645.5l1-2h-1V645.5z"/>
	<path class="st7" d="M492.5,644.5l44-7l-20-8h-4l-5-6h-2l-8,4L492.5,644.5z"/>
	<path class="st8" d="M633.5,644.5h1l3-4l-4-8V644.5z"/>
	<path class="st8" d="M903.5,644.5l7-2l9-15l-2-4l-13-1h-2l-17,9l-11,5l3,2l18,2L903.5,644.5z"/>
	<path class="st5" d="M558.5,643.5l24-7l-25,3v3L558.5,643.5z"/>
	<path class="st4" d="M1030.5,643.5h1v-13L1030.5,643.5z"/>
	<path class="st9" d="M853.5,642.5l24-4l-3-2l-1,1l-21,3v1L853.5,642.5z"/>
	<path class="st2" d="M444.5,641.5h1v-6l-1-4v4V641.5z"/>
	<path class="st6" d="M637.5,640.5h2l-11-14l5,6L637.5,640.5z"/>
	<path class="st6" d="M842.5,640.5h10l21-3l-19,2l-28-5l4,3L842.5,640.5z"/>
	<path class="st1" d="M854.5,639.5l19-2l1-1l11-5l7-7h-2l-4-1l-10,4l-9-14h-9l-4,3l8,9v6l-18,1l-10-10h2l4-5l-1-1l-2-1h-2l-2-1l-2,3
		l-1,2l-2,3l-1,2l-6,3l3-6l2-4h-1v-3l-16,8l3-12l-24,15l38,9L854.5,639.5z"/>
	<path class="st1" d="M462.5,638.5h1l9-8l-10-36l-2,3l-1-3h-1L462.5,638.5z"/>
	<path class="st9" d="M824.5,638.5l6-1l-4-3l-38-9L824.5,638.5z"/>
	<path class="st9" d="M992.5,638.5l8-18l5-7l1-4v-1L992.5,638.5z"/>
	<path class="st4" d="M696.5,637.5h1l9-12l14,9l16-18l-4-16l-11,5l-24-19l-5,6l-4,27L696.5,637.5z"/>
	<path class="st1" d="M661.5,636.5l1-1l1-10h-2V636.5z"/>
	<path class="st2" d="M443.5,635.5h1v-4l-1-6v4V635.5z"/>
	<path class="st5" d="M1010.5,634.5l1-12h-3l-2,3L1010.5,634.5z"/>
	<path class="st2" d="M419.5,633.5h1v-18v-7h-1V633.5z"/>
	<path class="st1" d="M642.5,633.5l2-1l2-16l-2,3h-1l-1,1V633.5z"/>
	<path class="st1" d="M754.5,633.5l1-3l-1-11h-1v-8l-2,3l-1-2l3,20L754.5,633.5z"/>
	<path class="st6" d="M844.5,632.5l18-1v-6h-2l-6-9l4-3h-5l-2,4v8l-11-8l-4,5l-2,2v-2L844.5,632.5z"/>
	<path class="st1" d="M552.5,631.5l20-1v-2l-3,1l-2,1l-2-4l-15-7l-1,11L552.5,631.5z"/>
	<path class="st6" d="M885.5,631.5l17-9l-10,2L885.5,631.5z"/>
	<path class="st1" d="M548.5,630.5h1l1-11L548.5,630.5z"/>
	<path class="st6" d="M567.5,630.5l2-1l-4-3L567.5,630.5z"/>
	<path class="st6" d="M572.5,630.5l18-9v-2h-4l-3,4l-11,5V630.5z"/>
	<path class="st2" d="M442.5,629.5h1v-4l-1-6v3V629.5z"/>
	<path class="st1" d="M512.5,629.5h4l-9-6L512.5,629.5z"/>
	<path class="st6" d="M921.5,628.5l-4-5l2,4L921.5,628.5z"/>
	<path class="st7" d="M821.5,627.5l6-3h-2l-1-3L821.5,627.5z"/>
	<path class="st7" d="M876.5,627.5l10-4h-5l-12-14l-1-1l-1,5L876.5,627.5z"/>
	<path class="st9" d="M934.5,627.5h1l2-8h-2l-2-1l-1,8L934.5,627.5z"/>
	<path class="st6" d="M417.5,626.5h1v-11L417.5,626.5z"/>
	<path class="st2" d="M974.5,626.5h1v-23h-1v16V626.5z"/>
	<path class="st0" d="M1032.5,626.5l1-1h-1V626.5z"/>
	<path class="st6" d="M661.5,625.5h2v-1l-2-4V625.5z"/>
	<path class="st1" d="M851.5,625.5v-8h-2l-1-2l-9,1l1,1L851.5,625.5z"/>
	<path class="st7" d="M860.5,625.5h2l-8-9L860.5,625.5z"/>
	<path class="st3" d="M1032.5,625.5h1v-4l1-1v-11h-1L1032.5,625.5z"/>
	<path class="st1" d="M663.5,624.5l2-50l-4,46L663.5,624.5z"/>
	<path class="st6" d="M825.5,624.5h2l1-2h-1v-5h-1l-2,4L825.5,624.5z"/>
	<path class="st5" d="M834.5,624.5l2-2h-2V624.5z"/>
	<path class="st7" d="M890.5,624.5h2l10-2h2l-28-16h-1l-7,2l1,1l17,14L890.5,624.5z"/>
	<path class="st5" d="M583.5,623.5l3-4l-3,2v-4h-1l-1-1L583.5,623.5z"/>
	<path class="st1" d="M881.5,623.5h5l-17-14L881.5,623.5z"/>
	<path class="st2" d="M441.5,622.5h1v-3l-1-7v3V622.5z"/>
	<path class="st6" d="M591.5,622.5l3-3l-3,2V622.5z"/>
	<path class="st7" d="M809.5,622.5l16-8v-2l-3,2l-4,3l1-7h-7L809.5,622.5z"/>
	<path class="st5" d="M827.5,622.5h1l2-3h-2v-2h-1V622.5z"/>
	<path class="st9" d="M583.5,621.5l3-2h-1l-2-2V621.5z"/>
	<path class="st5" d="M590.5,621.5h1l3-2l-3-2l-1,2V621.5z"/>
	<path class="st1" d="M389.5,620.5l1-1l3-4l-4,4V620.5z"/>
	<path class="st6" d="M480.5,620.5h1l-1-8h-1L480.5,620.5z"/>
	<path class="st1" d="M519.5,620.5l14-10v-3L519.5,620.5z"/>
	<path class="st6" d="M642.5,620.5l1-1l-5-5l-3,2L642.5,620.5z"/>
	<path class="st6" d="M685.5,620.5h2l4-27l-6,18V620.5z"/>
	<path class="st5" d="M687.5,620.5h1v-1l4-27l-1,1L687.5,620.5z"/>
	<path class="st9" d="M762.5,620.5h1l6-4l3-14l-6,3l-2,4l-2,7V620.5z"/>
	<path class="st7" d="M387.5,619.5h2l4-4l1-7l-1-10h-4l-4,16v1L387.5,619.5z"/>
	<path class="st5" d="M585.5,619.5h1h4l1-2l-5-3l-3,3L585.5,619.5z"/>
	<path class="st6" d="M644.5,619.5l2-3l-8-17l-2,2L644.5,619.5z"/>
	<path class="st1" d="M753.5,619.5h1v-9l-1,1V619.5z"/>
	<path class="st9" d="M828.5,619.5h2l1-2h-2l-2-5l1,5V619.5z"/>
	<path class="st2" d="M935.5,619.5h2l1-2h-3l-3-1l1,2L935.5,619.5z"/>
	<path class="st3" d="M973.5,619.5h1v-16l-1-1V619.5z"/>
	<path class="st7" d="M911.5,618.5l8-1l-25-13v5L911.5,618.5z"/>
	<path class="st0" d="M582.5,617.5h1l3-3l-5-2l-1,2l1,2L582.5,617.5z"/>
	<path class="st9" d="M818.5,617.5l4-3l-3-4L818.5,617.5z"/>
	<path class="st7" d="M825.5,617.5h1h1h1l-1-5h-2v2V617.5z"/>
	<path class="st3" d="M829.5,617.5h2l2-3l4,1l2,1l9-1l5-2v-1l-3-4l-22,2l-1,2L829.5,617.5z"/>
	<path class="st9" d="M849.5,617.5h2l2-4l-5,2L849.5,617.5z"/>
	<path class="st0" d="M935.5,617.5h3v-4h-7l1,3L935.5,617.5z"/>
	<path class="st9" d="M633.5,616.5h2l3-2l-10-4l4,5L633.5,616.5z"/>
	<path class="st6" d="M761.5,616.5h1l2-7L761.5,616.5z"/>
	<path class="st7" d="M381.5,615.5h4v-1h-1l-4-4l-2,1L381.5,615.5z"/>
	<path class="st2" d="M440.5,615.5h1v-3l-1-6V615.5z"/>
	<path class="st5" d="M477.5,615.5h1l1-5l-2,2V615.5z"/>
	<path class="st2" d="M561.5,615.5l19-1l1-2l-4-1l-9,1v-1l-8-1l-10,2L561.5,615.5z"/>
	<path class="st0" d="M596.5,615.5h1l5-7L596.5,615.5z"/>
	<path class="st4" d="M597.5,615.5h35l-4-5l-26-2L597.5,615.5z"/>
	<path class="st6" d="M835.5,615.5h2l-4-1L835.5,615.5z"/>
	<path class="st8" d="M384.5,614.5h1l4-16h-2l-6,10l-35-22v1l26,18l8,5L384.5,614.5z"/>
	<path class="st7" d="M751.5,614.5l2-3l1-1l17-46l-2-2l-19,50L751.5,614.5z"/>
	<path class="st8" d="M853.5,613.5h5h9l1-5l7-2h-5l-1-2l-10,4l-6,4V613.5z"/>
	<path class="st9" d="M930.5,613.5h1h7l1-7l1-9v-1v-13l-1-6l-8,1l-3,2l-5,15L930.5,613.5z"/>
	<path class="st5" d="M1005.5,613.5l4-6l-3,2L1005.5,613.5z"/>
	<path class="st6" d="M476.5,612.5h1l2-2v2h1l4-37l-2-4L476.5,612.5z"/>
	<path class="st5" d="M544.5,612.5h6l10-2l-16-3l-5,3L544.5,612.5z"/>
	<path class="st6" d="M568.5,612.5l9-1h-9V612.5z"/>
	<path class="st2" d="M853.5,612.5l6-4l-2-10l-7,10L853.5,612.5z"/>
	<path class="st7" d="M911.5,612.5l3-1l-23-22l-2,2L911.5,612.5z"/>
	<path class="st7" d="M377.5,611.5h1l2-1l-8-5L377.5,611.5z"/>
	<path class="st6" d="M533.5,610.5h6l5-3h-11V610.5z"/>
	<path class="st1" d="M893.5,609.5h1v-5L893.5,609.5z"/>
	<path class="st9" d="M1006.5,609.5l3-2l3-6l-6,7V609.5z"/>
	<path class="st0" d="M1033.5,609.5h1l-13-21l8,9L1033.5,609.5z"/>
	<path class="st9" d="M381.5,608.5l6-10l-36-17l-5,5L381.5,608.5z"/>
	<path class="st1" d="M394.5,608.5l2-2l-1-8h-2L394.5,608.5z"/>
	<path class="st5" d="M419.5,608.5h1v-5v-4L419.5,608.5z"/>
	<path class="st2" d="M785.5,608.5l12-5l-1-4L785.5,608.5z"/>
	<path class="st5" d="M859.5,608.5l10-4v-2l-12-4L859.5,608.5z"/>
	<path class="st5" d="M569.5,607.5l15-1l10-15h-5l-8,5l-15,9L569.5,607.5z"/>
	<path class="st7" d="M412.5,606.5l2-1v-4l-2,1l-2-3L412.5,606.5z"/>
	<path class="st6" d="M832.5,606.5l10-1l5-13l-12,1h-2l-9-1l-5,9L832.5,606.5z"/>
	<path class="st7" d="M870.5,606.5h5h1l-7-4v2L870.5,606.5z"/>
	<path class="st6" d="M565.5,605.5h1l15-9l-12,4l-6,3L565.5,605.5z"/>
	<path class="st2" d="M721.5,605.5l11-5l-12-17h-13h-4l-5,3h-1L721.5,605.5z"/>
	<path class="st8" d="M766.5,605.5l6-3l2-3l-8,4V605.5z"/>
	<path class="st6" d="M554.5,604.5l2-1l-6-5v4L554.5,604.5z"/>
	<path class="st4" d="M420.5,603.5l4-17l-4,13V603.5z"/>
	<path class="st7" d="M562.5,603.5h1l6-3l-6-2l-3,1L562.5,603.5z"/>
	<path class="st7" d="M766.5,603.5l8-4l12-15l-2-3L766.5,603.5z"/>
	<path class="st8" d="M797.5,603.5l4-1v-7l-5,4L797.5,603.5z"/>
	<path class="st4" d="M974.5,603.5h1l3-10h-1l1-9l-4-2l-1,20L974.5,603.5z"/>
	<path class="st8" d="M412.5,602.5l2-1l-4-2L412.5,602.5z"/>
	<path class="st7" d="M547.5,602.5h3v-4L547.5,602.5z"/>
	<path class="st7" d="M635.5,601.5h1l2-2l-2-3l-2,2L635.5,601.5z"/>
	<path class="st7" d="M818.5,601.5h1l5-9l-3-3h-1l-4-1L818.5,601.5z"/>
	<path class="st1" d="M509.5,599.5l47-24v-6L509.5,599.5z"/>
	<path class="st1" d="M559.5,599.5h1l3-1L559.5,599.5z"/>
	<path class="st1" d="M633.5,598.5h1l2-2l-40-25l-5,3L633.5,598.5z"/>
	<path class="st8" d="M460.5,597.5l2-3l-1-1l-2,1L460.5,597.5z"/>
	<path class="st8" d="M790.5,597.5l2-2l-3-3l-3,3L790.5,597.5z"/>
	<path class="st0" d="M1028.5,597.5h1l-8-9h-3l-1,1l-2,1l-1,4l12,1L1028.5,597.5z"/>
	<path class="st7" d="M792.5,595.5l7-8l-1-2l-9,7L792.5,595.5z"/>
	<path class="st8" d="M922.5,595.5h1l5-15l-1-1l-6,4l1,9V595.5z"/>
	<path class="st4" d="M458.5,594.5h1l2-1L458.5,594.5z"/>
	<path class="st1" d="M829.5,593.5h4h2v-2L829.5,593.5z"/>
	<path class="st7" d="M835.5,593.5l12-1l-12-1V593.5z"/>
	<path class="st5" d="M977.5,593.5h1v-9L977.5,593.5z"/>
	<path class="st6" d="M921.5,592.5h1l-1-9V592.5z"/>
	<path class="st1" d="M589.5,591.5h5l-3-7l-2,3V591.5z"/>
	<path class="st1" d="M887.5,591.5h2l2-2l-40-21l-2,6L887.5,591.5z"/>
	<path class="st1" d="M820.5,589.5h1l-5-1L820.5,589.5z"/>
	<path class="st2" d="M343.5,588.5l3-1v-1l5-5L343.5,588.5z"/>
	<path class="st5" d="M588.5,587.5h1l2-3l-2-3l-3,4L588.5,587.5z"/>
	<path class="st1" d="M506.5,585.5l2-1l72-28L506.5,585.5z"/>
	<path class="st4" d="M578.5,585.5h8l3-4L578.5,585.5z"/>
	<path class="st1" d="M786.5,584.5l2-2h-1l-1-2l-2,1L786.5,584.5z"/>
	<path class="st1" d="M787.5,582.5h1l-2-2L787.5,582.5z"/>
	<path class="st0" d="M986.5,582.5l-5-33l-1-38h2l7,29l3,9l1-2h-1l6-102v-1l-2-28h-1v-1l-1-14h-1v-2l-2-10h-1h-1l3-59l2-4v-9v-3h-1
		v-1l-4-9l-2,1l4-40l-2-6h-1v-1l-2-21h-1v-5h-1l-18-38v-9h-1v-3l-1-6h-1v-3l-1-1v-1v-2h-1v-1v-2h-1v-1l-3-7l-192-117l-228,89l-8,10
		l-18,29l14,7h1l12,3l1-8l12-32l11-11l7,1l10-16l107-54l-9,11l-32,17l-6,4l-4,18l7,6l-3,8l10,5l15-15l4-5l5-7l7-7l8-6l20-9v12
		l-10,19l10,5l10-13l27-18l38-21l6-1l10,1l23,3l66,42l6,10l2,6l-2,1l3,4l29,58l1,35l48,148v9l1,16l-3-8h-2l-3-5h-1l-8-13h-1l-12-26
		l-2-5l-28-48h-3l-10-18l-15-20h-3l-2-5l-12-13l-21,11l66,92v7l3,12l-5,3l-1,2l-1,2l8,9l2,9l26,28l-9,43l-6,13l-26,39l27,37l-1-1
		l-3,5l37,25l3,4L986.5,582.5z M757.5,60.5l-4,1L757.5,60.5z"/>
	<path class="st1" d="M911.5,580.5l13-10l1-2l-17-11l-1,4L911.5,580.5z"/>
	<path class="st8" d="M928.5,580.5l3-2l-6-6l2,7L928.5,580.5z"/>
	<path class="st0" d="M990.5,580.5h1v-8L990.5,580.5z"/>
	<path class="st0" d="M355.5,578.5h1l-1-1V578.5z"/>
	<path class="st4" d="M931.5,578.5l8-1l-14-9l-1,2l1,2L931.5,578.5z"/>
	<path class="st2" d="M965.5,577.5l5-3l-3-4l-4,6L965.5,577.5z"/>
	<path class="st7" d="M484.5,575.5l5-9h-1v-2l-6,7L484.5,575.5z"/>
	<path class="st1" d="M556.5,575.5l2-1v-5h-2V575.5z"/>
	<path class="st7" d="M558.5,574.5l10-1h4l5-6l-19,2V574.5z"/>
	<path class="st1" d="M568.5,574.5l10-1h-6h-4V574.5z"/>
	<path class="st1" d="M587.5,574.5h4l5-3l-10-1v3L587.5,574.5z"/>
	<path class="st1" d="M845.5,574.5h3l-1-6h-13l-1,4L845.5,574.5z"/>
	<path class="st6" d="M848.5,574.5h1l2-6h-4L848.5,574.5z"/>
	<path class="st8" d="M572.5,573.5h6h1l-2-6L572.5,573.5z"/>
	<path class="st1" d="M579.5,573.5h2v-3l-4-3L579.5,573.5z"/>
	<path class="st1" d="M581.5,573.5h5v-3h-5V573.5z"/>
	<path class="st1" d="M830.5,572.5h3l1-4L830.5,572.5z"/>
	<path class="st0" d="M395.5,571.5h2l-2-2V571.5z"/>
	<path class="st7" d="M708.5,571.5l11-1h-11V571.5z"/>
	<path class="st2" d="M409.5,570.5h2l-11-10L409.5,570.5z"/>
	<path class="st6" d="M705.5,570.5h3l-1-4L705.5,570.5z"/>
	<path class="st5" d="M708.5,570.5h11h1v-4h-13L708.5,570.5z"/>
	<path class="st0" d="M990.5,570.5h1v-1l1-1l-1-7L990.5,570.5z"/>
	<path class="st0" d="M394.5,569.5h1l-1-7V569.5z"/>
	<path class="st1" d="M488.5,566.5h1l-1-2V566.5z"/>
	<path class="st6" d="M678.5,564.5l7-1l-2-4L678.5,564.5z"/>
	<path class="st5" d="M741.5,564.5l7-2v-5l-7,6V564.5z"/>
	<path class="st1" d="M771.5,564.5l34-12l-36,10L771.5,564.5z"/>
	<path class="st9" d="M685.5,563.5l16-1v-1h-5l-27-35l-1,3l4,4l11,23v3L685.5,563.5z M696.5,552.5l-3,1L696.5,552.5z"/>
	<path class="st4" d="M734.5,563.5h7l7-6v-1l-1-11l3-6l5-4v-1v-7l-30,27v1l-1,6l2,1L734.5,563.5z"/>
	<path class="st5" d="M701.5,562.5h25l-2-1h-23V562.5z"/>
	<path class="st7" d="M748.5,562.5l21-27h-2l-1-2l-11,12v-11v1l-5,4v4l-1,8l-1,5v1V562.5z"/>
	<path class="st3" d="M696.5,561.5h5h23l1-6h-1l1-1l30-27h8l4-4l7-1h2l6-2h5l4,1h3l20-6l53,2l5-2l11-1l-37-14l-40-37l-10-3l-92,60
		l-61-38l-3,2l2,30l5,6l6,1l5-1l5,4l6,2L696.5,561.5z"/>
	<path class="st1" d="M905.5,561.5h2l1-4L905.5,561.5z"/>
	<path class="st0" d="M424.5,557.5h12l18-1h5l1-4l2-4l-2-3l-1-4h-1l-1-11h-1l-16-46l-4,4l-4,8l-8,31l-4,25L424.5,557.5z"/>
	<path class="st6" d="M678.5,557.5l5-1l-11-23l-1,3l4,10L678.5,557.5z"/>
	<path class="st6" d="M669.5,556.5l2-5l-2,1V556.5z"/>
	<path class="st5" d="M748.5,556.5l1-5l-1-6h-1L748.5,556.5z"/>
	<path class="st1" d="M724.5,555.5h1v-1L724.5,555.5z"/>
	<path class="st2" d="M419.5,552.5h1l4-25h-1v-2L419.5,552.5z"/>
	<path class="st7" d="M669.5,552.5l2-1l-4-14v-2L669.5,552.5z"/>
	<path class="st6" d="M671.5,551.5l4-5l-4-10l-4,1L671.5,551.5z"/>
	<path class="st1" d="M749.5,551.5l1-8l-2,2L749.5,551.5z"/>
	<path class="st2" d="M407.5,550.5l2-1l7-29l-4,5l-10-1L407.5,550.5z"/>
	<path class="st3" d="M981.5,549.5l8-9l-7-29l-3,30l1-30L981.5,549.5z"/>
	<path class="st3" d="M462.5,548.5l12-13h-3l-4-3l-7,13L462.5,548.5z"/>
	<path class="st1" d="M992.5,547.5h1v-1l1-3v-1l2-10v-5l1-2v-2l1-3v-2l1-1v-34h-1v-38L992.5,547.5z"/>
	<path class="st5" d="M747.5,545.5h1l2-2v-4L747.5,545.5z"/>
	<path class="st1" d="M755.5,545.5l11-12l-3-6h-8v7V545.5z"/>
	<path class="st4" d="M929.5,545.5h1l3-5l-7-2l-1,5L929.5,545.5z"/>
	<path class="st8" d="M922.5,543.5h3l1-5l-32-35l1,16l-4-1l26,15l1,7L922.5,543.5z"/>
	<path class="st1" d="M649.5,542.5l2-1l-6-8l-2,1L649.5,542.5z"/>
	<path class="st3" d="M458.5,541.5h1v-10h-1v-1h-1L458.5,541.5z"/>
	<path class="st1" d="M934.5,541.5l-27-37l-6-20h-1l-1-5l-5,7v6l-3-3l-3,3l5,10l1,1l32,35l7,2L934.5,541.5z"/>
	<path class="st1" d="M979.5,541.5l3-30h-2L979.5,541.5z"/>
	<path class="st7" d="M776.5,540.5l8-7h-2l-5,6h-1V540.5z"/>
	<path class="st7" d="M915.5,540.5h3l-1-7l-20,1l9,4L915.5,540.5z"/>
	<path class="st1" d="M659.5,539.5l1-5h-1l-2-2L659.5,539.5z"/>
	<path class="st7" d="M776.5,539.5h1l2-7l-4,3L776.5,539.5z"/>
	<path class="st1" d="M777.5,539.5l5-6l1-6l-1-7l-6,2l3,10L777.5,539.5z"/>
	<path class="st1" d="M905.5,538.5h1l-9-4L905.5,538.5z"/>
	<path class="st5" d="M667.5,537.5l4-1l1-3l-4-4l-1,6V537.5z"/>
	<path class="st1" d="M794.5,537.5l6-3h-1l-1-1L794.5,537.5z"/>
	<path class="st7" d="M788.5,536.5l6-11h-3v-1L788.5,536.5z"/>
	<path class="st0" d="M471.5,535.5h3l23-36h-2l-1-1l-27,34L471.5,535.5z"/>
	<path class="st8" d="M767.5,535.5h2l-1-6l-2,4L767.5,535.5z"/>
	<path class="st7" d="M775.5,535.5l4-3l-3-10h-2L775.5,535.5z"/>
	<path class="st7" d="M659.5,534.5h1l1-3h-1l-3-3v4L659.5,534.5z"/>
	<path class="st7" d="M799.5,534.5h1l9-11l-1-5l-10,15L799.5,534.5z"/>
	<path class="st4" d="M766.5,533.5l2-4l-1-6l-4,4L766.5,533.5z"/>
	<path class="st7" d="M782.5,533.5h2l1-6h-2L782.5,533.5z"/>
	<path class="st5" d="M458.5,531.5h1l-1-14h-1v1v2l1,10V531.5z"/>
	<path class="st6" d="M660.5,531.5h1l2-5l-3,1l-3-3v4L660.5,531.5z"/>
	<path class="st2" d="M456.5,530.5h1h1l-1-10h-2l-9-39l-6,3L456.5,530.5z"/>
	<path class="st1" d="M617.5,530.5l1-1l-7-11v3L617.5,530.5z"/>
	<path class="st1" d="M635.5,530.5l2-2h-1l-1-2h-2L635.5,530.5z"/>
	<path class="st1" d="M636.5,528.5h1l-1-5v-3h-1l-3-4l3,10L636.5,528.5z"/>
	<path class="st3" d="M423.5,527.5h1l8-31l-1-1l-8,30V527.5z"/>
	<path class="st5" d="M660.5,527.5l3-1v-2l-5-4l-1,4L660.5,527.5z"/>
	<path class="st9" d="M783.5,527.5h2l2-7h-5L783.5,527.5z"/>
	<path class="st8" d="M486.5,526.5l29-9h-4l-10,2l-12,4v-1L486.5,526.5z"/>
	<path class="st7" d="M633.5,526.5h2l-3-10h-4L633.5,526.5z"/>
	<path class="st3" d="M412.5,525.5l4-5l3-15h-2l7-33l1-11v-6l-9,12l-15-2l1,59L412.5,525.5z"/>
	<path class="st5" d="M649.5,525.5l4-4l-6-1L649.5,525.5z"/>
	<path class="st5" d="M791.5,525.5h3v-4h-3v3V525.5z"/>
	<path class="st7" d="M637.5,524.5l1-5l-2,1v3L637.5,524.5z"/>
	<path class="st5" d="M489.5,523.5l12-4l-3-5l-9,8V523.5z"/>
	<path class="st7" d="M809.5,523.5l2-2h-1v-3h-2L809.5,523.5z"/>
	<path class="st1" d="M610.5,521.5h1v-3L610.5,521.5z"/>
	<path class="st8" d="M810.5,521.5h1l6-3h-1h-4h-2V521.5z"/>
	<path class="st4" d="M455.5,520.5h2v-2h-1l-2-18l-7-23l-1,1v3L455.5,520.5z"/>
	<path class="st5" d="M635.5,520.5h1l2-1v-6h-6v3L635.5,520.5z"/>
	<path class="st0" d="M704.5,520.5l92-60l-121,7l-32,15L704.5,520.5z"/>
	<path class="st8" d="M834.5,520.5l11-2h-11V520.5z"/>
	<path class="st2" d="M501.5,519.5l10-2l19-5h2h15h25l54-1l6,2h6l4,1l-2-30h-1l36-17l121-7l10,3l-8-54l-24-88l-18-42l31-23h-8l-13-3
		l-1-1l-6,1l-14-4h-3l-9-7l-3-5l-45,8l-1-1l-17,6l3,38l-1,10l-26,90l-34,79l-32,26l-39,1l-1-1l-28,12l-11,9L501.5,519.5z
		 M731.5,440.5l-9,1l2-128L731.5,440.5z"/>
	<path class="st9" d="M828.5,519.5l6-1h11l22-1l-53-2l-2,3h4h11L828.5,519.5z"/>
	<path class="st9" d="M895.5,519.5l-1-16l-1-1h-1l-6-9h-1l-13-14l-7,1l-67-71l8,54l40,37l37,14v1l8,3L895.5,519.5z"/>
	<path class="st5" d="M456.5,518.5h1v-1v-8h-1l-2-9L456.5,518.5z"/>
	<path class="st8" d="M816.5,518.5h1h10H816.5z"/>
	<path class="st8" d="M457.5,517.5h1l-1-9v1V517.5z"/>
	<path class="st5" d="M511.5,517.5h4l15-5L511.5,517.5z"/>
	<path class="st7" d="M627.5,516.5h1l-2-5l-3,1L627.5,516.5z"/>
	<path class="st8" d="M628.5,516.5h4v-3l-6-2L628.5,516.5z"/>
	<path class="st8" d="M872.5,515.5h11v-1L872.5,515.5z"/>
	<path class="st5" d="M559.5,514.5l23-2h-10h-25l-1,1L559.5,514.5z"/>
	<path class="st5" d="M543.5,513.5h3l1-1h-15L543.5,513.5z"/>
	<path class="st5" d="M572.5,512.5h10h41l3-1L572.5,512.5z"/>
	<path class="st8" d="M456.5,509.5h1v-1l-10-32v1l7,23L456.5,509.5z"/>
	<path class="st2" d="M417.5,505.5h2l1-4l4-29L417.5,505.5z"/>
	<path class="st5" d="M509.5,505.5l28-12h40l32-26h-2l-3-79l-31-72l-47,173L509.5,505.5z M595.5,490.5l-8,1L595.5,490.5z"/>
	<path class="st3" d="M907.5,504.5l26-39l6-13l9-43l-25,1l-2,22l-3,23l-1,8l-2,23h-1l-4,1l-5-6l-4,3L907.5,504.5z M941.5,447.5l-1,1
		L941.5,447.5z"/>
	<path class="st8" d="M892.5,502.5h1l-5-10l-2,1L892.5,502.5z"/>
	<path class="st9" d="M420.5,501.5l13-22l1-22v-15l-4,12l-5,7l-1,11L420.5,501.5z"/>
	<path class="st8" d="M495.5,499.5h2l13-6h-1l-2-4l-13,9L495.5,499.5z"/>
	<path class="st2" d="M432.5,496.5l4-8l-5,7L432.5,496.5z"/>
	<path class="st5" d="M538.5,494.5l39-1h-40L538.5,494.5z"/>
	<path class="st6" d="M509.5,493.5h1l16-4l47-173l-6-48l-2-2l-12,4l-4-3l-33,172v40l-9,10L509.5,493.5z M528.5,443.5l-8,1l10-71
		l13,52l-7-23L528.5,443.5z"/>
	<path class="st6" d="M885.5,493.5h1l2-1l3-3l3-3l5-7l2-2l2-112l-56-98l25,212L885.5,493.5z"/>
	<path class="st8" d="M894.5,492.5v-6l-3,3L894.5,492.5z"/>
	<path class="st1" d="M485.5,490.5l13-83h-4l-8,4l-8,5l-20,27L485.5,490.5z M486.5,444.5l-2,1L486.5,444.5z"/>
	<path class="st9" d="M436.5,488.5l4-4l6-3v-3l-5,1L436.5,488.5z"/>
	<path class="st9" d="M910.5,487.5l4-1h-1l-8-5L910.5,487.5z"/>
	<path class="st1" d="M913.5,486.5h1h1l2-23l1-8l3-23l2-22v-2h-1l-2-36l-8-9h-3l-25-38l-2-5l-2-12l-2-5h-1l-14-25h-1l-9-15l-7-4h-1
		l-8-4l10,12l56,98l-2,112l4,4L913.5,486.5z"/>
	<path class="st3" d="M639.5,484.5h1l3-2l32-15L639.5,484.5z"/>
	<path class="st9" d="M900.5,484.5h1l4-3l-4-4l-2,2L900.5,484.5z"/>
	<path class="st0" d="M998.5,483.5h1v-38h-1V483.5z"/>
	<path class="st5" d="M865.5,480.5l7-1l-25-212l-10-12l-1-10v-1l-2,1l1-3h-6l-1,1l-4,6l-9,4l-28,3l-31,23l18,42l24,88L865.5,480.5z"
		/>
	<path class="st5" d="M433.5,479.5l3-24l-2,2L433.5,479.5z"/>
	<path class="st5" d="M441.5,479.5l5-1l1-1v-1L441.5,479.5z"/>
	<path class="st0" d="M416.5,467.5l9-12l7-41l2-28l-16-11l-17,90L416.5,467.5z"/>
	<path class="st9" d="M607.5,467.5h2l34-79l26-90l1-10l-3-38l-31,5l-12,2l-28,4l-15,4l-14,3l6,48l31,72L607.5,467.5z"/>
	<path class="st3" d="M425.5,461.5l5-7l2-38v-2l-7,41V461.5z"/>
	<path class="st5" d="M434.5,457.5l2-2l-2-17v4V457.5z"/>
	<path class="st2" d="M430.5,454.5l4-12v-4v-22h-2L430.5,454.5z"/>
	<path class="st8" d="M440.5,447.5l21-29l-4,3l-2-3L440.5,447.5z"/>
	<path class="st0" d="M998.5,445.5h1l-1-1V445.5z"/>
	<path class="st8" d="M520.5,444.5l8-1l8-41l-6-29L520.5,444.5z"/>
	<path class="st0" d="M722.5,441.5l9-1l-7-127L722.5,441.5z"/>
	<path class="st7" d="M455.5,436.5l23-20l8-5v-1v-1L455.5,436.5z"/>
	<path class="st1" d="M543.5,425.5l-13-52l6,29L543.5,425.5z"/>
	<path class="st9" d="M457.5,421.5l4-3l1-1h-2l-2-4l-3,5L457.5,421.5z"/>
	<path class="st2" d="M460.5,417.5h2l23-23l10,5l2-5v-30l-32,45l-7-2v6L460.5,417.5z M480.5,387.5l-1,1L480.5,387.5z"/>
	<path class="st2" d="M432.5,416.5h2v-25v-5l-2,28V416.5z"/>
	<path class="st0" d="M995.5,416.5h1l-1-1V416.5z"/>
	<path class="st1" d="M492.5,411.5l-6-2v1L492.5,411.5z"/>
	<path class="st3" d="M923.5,410.5l25-1l-26-28l1,27V410.5z"/>
	<path class="st0" d="M465.5,409.5l32-45h1l48-109h-1l-1-2l-5,4l-8,9l-34,47l-34,34l-3,5l-2,5v-1l-1,2l1,49L465.5,409.5z"/>
	<path class="st9" d="M922.5,408.5h1l-1-27l-2-9L922.5,408.5z"/>
	<path class="st4" d="M457.5,407.5h1l-1-49V407.5z"/>
	<path class="st7" d="M494.5,407.5h4v-10l-1,1l-2,4h-2L494.5,407.5z"/>
	<path class="st5" d="M493.5,402.5h2v-3l-10-5L493.5,402.5z"/>
	<path class="st5" d="M495.5,402.5l2-4v-4l-2,5V402.5z"/>
	<path class="st0" d="M993.5,401.5h1l-1-2V401.5z"/>
	<path class="st5" d="M497.5,398.5l1-1v-33h-1v30V398.5z"/>
	<path class="st1" d="M976.5,395.5l-1-16h-1l-8-27h-1l-3-23l-7-28h-2v-5l-10-15h-1l-2-2h-1l-28-38l-3-8l-1-1h-2l-6-7l-2-4h-2l-4-4
		h-1l2-5l1-4l-21,12l-2,13l1,1l12,13l5,5l15,20l13,18l28,48l15,26v1l9,16l5,6L976.5,395.5z M955.5,314.5l-1,1L955.5,314.5z
		 M949.5,307.5l-1,1l-4-2h-3l3-2L949.5,307.5z M937.5,290.5l-1,1L937.5,290.5z M929.5,271.5l-3,1l-3-3l-2,1l-1-1h-3l-13-13
		L929.5,271.5z M900.5,241.5l-1,1L900.5,241.5z M883.5,226.5l-4,1l6-9l4,4l-1-1L883.5,226.5z"/>
	<path class="st4" d="M434.5,391.5l3-17l4-16l-9,3l-6,6l-8,8l16,11V391.5z"/>
	<path class="st1" d="M989.5,389.5h1v-5l1-52l1-2L989.5,389.5z"/>
	<path class="st0" d="M990.5,389.5h1l-1-5V389.5z"/>
	<path class="st2" d="M971.5,387.5h2l-5-6v1L971.5,387.5z"/>
	<path class="st2" d="M967.5,382.5h1v-1l-9-16v4L967.5,382.5z"/>
	<path class="st2" d="M974.5,379.5h1v-9h-1l-81-162l-1,4l2,5h1l5,8l7,7l1,1l6,9l5,7l21,27l3,5l10,15l2,5l7,28l4,23L974.5,379.5z"/>
	<path class="st0" d="M409.5,378.5l5-9l8-18l1-4l-1-9h-2l1-18l17-30h-1l-3-3l-8-5l-8,1l-9,83v-9l-1,15L409.5,378.5z"/>
	<path class="st5" d="M437.5,374.5l5-13l-1-3L437.5,374.5z"/>
	<path class="st3" d="M974.5,370.5h1l-48-148h-2l1-35l-29-58l9,15l1,3l14,43l-5-10l-7,3l-31-31l-6-7h-2l-4-6l-4-4l-8,2l9,80l-14-56
		l-11,21l-3-3h-1l7,63l9,3l21-11l-1-1h-2l4-13l21-12L974.5,370.5z"/>
	<path class="st3" d="M958.5,369.5h1v-4v-1h-2l-11-21L958.5,369.5z"/>
	<path class="st5" d="M426.5,367.5l6-6h-1l-1-1L426.5,367.5z"/>
	<path class="st1" d="M409.5,366.5l9-83l63-90l30-24l18-29l8-10l228-89l192,117l-2-5h-1v-1l-1-1v-2h-1v-2l-1-1v-1l-1-1v-1l-1-2h-1
		v-2h-1v-1l-1-1v-1l-1-1v-1l-1-2h-1v-1l-1-2h-1v-1l-1-2h-1v-1l-36-37h-1v-1l-3-2h-1v-1l-2-1h-1v-1l-2-1h-1v-1h-1v-1h-1v-1h-1v-1h-2
		v-1h-1v-1h-2v-1h-2v-1l-5-3h-1v-1h-2v-1l-165-26h-1v-1l-179,89l-1,1l-1,1l-13,16l-1,1l-3,6l-1,1l-12,22l-1,1l-40,32l-1,1l-1,2l-1,1
		l-1,2l-1,2l-1,1l-1,1l-1,2l-1,2l-1,2l-5,10l-1,1l-4,6l-1,1l-1,2l-1,1l-2,4l-1,1l-3,5l-1,1l-2,4l-1,1l-1,2l-1,1l-1,2l-1,2l-1,2v2
		l-1,1l-1,4l-1,1l-1,7l-1,2l-1,15l-1,1v2l-1,1l-1,9l-1,1v15l1,23V366.5z"/>
	<path class="st2" d="M957.5,364.5h2l-15-26l2,5L957.5,364.5z"/>
	<path class="st3" d="M909.5,363.5h3l1-2h-2l-23-38l-4,2L909.5,363.5z"/>
	<path class="st6" d="M431.5,361.5h1l9-3l1,3l4-5l-8-4l-2,1l-2-2l-4,9L431.5,361.5z"/>
	<path class="st1" d="M911.5,361.5h2l1-2v-3l-2-4h-1l-7-10h-1l-8-14l-7-5L911.5,361.5z"/>
	<path class="st3" d="M914.5,359.5l5-3h-1l-1-2l-3,2V359.5z"/>
	<path class="st4" d="M458.5,357.5l2-5l-2,4V357.5z"/>
	<path class="st7" d="M446.5,356.5l-8-5v1L446.5,356.5z"/>
	<path class="st2" d="M914.5,356.5l3-2l-2-3l-3,1L914.5,356.5z"/>
	<path class="st1" d="M918.5,356.5h1l-3-12l-2-7l-14-30h-1l-7-6l4,23l10,16l9,11l2,3L918.5,356.5z"/>
	<path class="st7" d="M436.5,353.5l2-1v-1l10-10l-8,1v-6l-6,15L436.5,353.5z"/>
	<path class="st3" d="M911.5,352.5h1l3-1l-9-11l-2,2L911.5,352.5z"/>
	<path class="st9" d="M965.5,352.5h1l-4-23L965.5,352.5z"/>
	<path class="st2" d="M423.5,347.5v-10l-1,1L423.5,347.5z"/>
	<path class="st5" d="M463.5,347.5l34-34l35-57l-37,46l-1-1l-1,6L463.5,347.5z"/>
	<path class="st3" d="M916.5,344.5v-7h-2L916.5,344.5z"/>
	<path class="st8" d="M440.5,342.5l8-1l6-12l4-10l-9,2l-9,15V342.5z"/>
	<path class="st3" d="M903.5,342.5h1l2-2l-10-16l-1,4L903.5,342.5z"/>
	<path class="st9" d="M420.5,338.5h2l1-1l-2-17L420.5,338.5z"/>
	<path class="st3" d="M914.5,337.5h2l-66-92l-9-3l-2,1l-2,2l9,14l7,4l6,5l19,35l2,5l2,12l2,5l4-2l7,5l1-4l-4-23l8,6L914.5,337.5z"/>
	<path class="st0" d="M993.5,314.5h1l-1-1V314.5z"/>
	<path class="st6" d="M485.5,312.5l8-5l1-6l-12-9v2v5l1,1L485.5,312.5z"/>
	<path class="st6" d="M458.5,310.5l4-1l-7-6l-2,4L458.5,310.5z"/>
	<path class="st7" d="M948.5,308.5l1-1l-5-3v2L948.5,308.5z"/>
	<path class="st1" d="M452.5,307.5h1l2-4L452.5,307.5z"/>
	<path class="st2" d="M899.5,307.5h1l-8-6L899.5,307.5z"/>
	<path class="st1" d="M941.5,306.5h3v-2L941.5,306.5z"/>
	<path class="st1" d="M987.5,305.5l2-1l4-9l1-1l1-1l1-2v-6h-1v-3h-1v-2v-2h-1v-1v-8h-1l-1-4L987.5,305.5z"/>
	<path class="st2" d="M877.5,303.5h1l-19-35l4,10L877.5,303.5z"/>
	<path class="st6" d="M468.5,302.5h8l1-2l-21-11v5L468.5,302.5z"/>
	<path class="st1" d="M476.5,302.5l7-2h-6L476.5,302.5z"/>
	<path class="st6" d="M495.5,302.5l37-46l6-4l-1-4l-43,53L495.5,302.5z"/>
	<path class="st9" d="M953.5,301.5h2l-2-5V301.5z"/>
	<path class="st9" d="M480.5,299.5h2v-5l-4,3L480.5,299.5z"/>
	<path class="st3" d="M477.5,297.5h1l4-3v-2l-3-5l-8,3L477.5,297.5z"/>
	<path class="st1" d="M454.5,294.5h2v-5L454.5,294.5z"/>
	<path class="st5" d="M437.5,290.5h1l-4-3L437.5,290.5z"/>
	<path class="st9" d="M470.5,290.5h1l8-3l8-22l1-4l-12-6l-13-11l-3,12l1,17l5,9L470.5,290.5z"/>
	<path class="st3" d="M913.5,290.5h3l-13-18L913.5,290.5z"/>
	<path class="st0" d="M995.5,285.5h1l-1-3V285.5z"/>
	<path class="st0" d="M418.5,283.5l8-1l4-8l38-50l13-31L418.5,283.5z"/>
	<path class="st6" d="M465.5,282.5h1l-5-9L465.5,282.5z"/>
	<path class="st0" d="M994.5,282.5h1l-1-2V282.5z"/>
	<path class="st9" d="M942.5,281.5h1l-3-5h-1l1,3L942.5,281.5z"/>
	<path class="st1" d="M483.5,279.5l3-1l-8-7l-2,2L483.5,279.5z"/>
	<path class="st5" d="M939.5,279.5h1l-1-3h-1l-19-27l-5-7h-2l-1-1L939.5,279.5z"/>
	<path class="st5" d="M862.5,278.5h1l-4-10l-6-5L862.5,278.5z"/>
	<path class="st0" d="M993.5,278.5h1l-1-1V278.5z"/>
	<path class="st9" d="M938.5,276.5h1h1l-21-27L938.5,276.5z"/>
	<path class="st2" d="M430.5,274.5l4-2l21-27l8-1l13,11h-1l3-13l10-20l33-38l4-8l-14-7l-30,24l-13,31l-6,9l6-9L430.5,274.5z"/>
	<path class="st6" d="M460.5,273.5h1l-1-17V273.5z"/>
	<path class="st6" d="M475.5,273.5h1l2-2L475.5,273.5z"/>
	<path class="st6" d="M926.5,272.5l3-1l-25-15l15,10l4,3L926.5,272.5z"/>
	<path class="st7" d="M553.5,270.5l12-4l51-11l-56,8l-11,4L553.5,270.5z"/>
	<path class="st7" d="M921.5,270.5l2-1l-4-3l1,3L921.5,270.5z"/>
	<path class="st7" d="M917.5,269.5h3l-1-3l-15-10L917.5,269.5z"/>
	<path class="st0" d="M992.5,269.5h1l-4-10l2,6L992.5,269.5z"/>
	<path class="st8" d="M567.5,268.5l14-3l11-4l32-4l12-2h-20l-51,11L567.5,268.5z"/>
	<path class="st6" d="M487.5,265.5l8-2l-1-2h-6L487.5,265.5z"/>
	<path class="st5" d="M581.5,265.5l15-4h-4L581.5,265.5z"/>
	<path class="st1" d="M495.5,263.5l3-1l-1-2l-3,1L495.5,263.5z"/>
	<path class="st5" d="M592.5,261.5h4l28-4L592.5,261.5z"/>
	<path class="st2" d="M845.5,259.5h1l-9-14h-1l1,10L845.5,259.5z"/>
	<path class="st0" d="M988.5,259.5h1l-1-1V259.5z"/>
	<path class="st7" d="M485.5,256.5h7l2-4L485.5,256.5z"/>
	<path class="st1" d="M492.5,256.5l3-1l7-3l-2-3l-6,3L492.5,256.5z"/>
	<path class="st8" d="M779.5,256.5h8l28-3l9-4l4-6h-6v-1l-56,11L779.5,256.5z"/>
	<path class="st9" d="M475.5,255.5h1l2-3l2-12l-2,2L475.5,255.5z"/>
	<path class="st5" d="M545.5,255.5h1l-2-2L545.5,255.5z"/>
	<path class="st5" d="M759.5,253.5l6-1l-20-3L759.5,253.5z"/>
	<path class="st5" d="M478.5,252.5l21-19l1-4h-3l-17,11L478.5,252.5z"/>
	<path class="st7" d="M482.5,252.5l1-1l19-10l-3-2L482.5,252.5z"/>
	<path class="st3" d="M885.5,252.5h3l-5-5L885.5,252.5z"/>
	<path class="st5" d="M742.5,249.5h3l-12-7L742.5,249.5z"/>
	<path class="st9" d="M685.5,245.5l45-8l4-2l-5-5l-27,8l-17,5l-1,1L685.5,245.5z"/>
	<path class="st1" d="M834.5,245.5l2-1l3-5l-3,1l-1,2L834.5,245.5z"/>
	<path class="st9" d="M836.5,245.5h1l2-2v-4l-3,5V245.5z"/>
	<path class="st8" d="M685.5,243.5l17-5l1-3l-14,4L685.5,243.5z"/>
	<path class="st8" d="M822.5,243.5h6l1-1v-1l1-11l-2,3v-9h-3v-3h-2l-1,21V243.5z"/>
	<path class="st2" d="M839.5,243.5l2-1l-7-63l-10,8l7,25l2,8v19l3,1l3-1V243.5z"/>
	<path class="st9" d="M829.5,242.5h6l1-2l-3-1l-4,2V242.5z"/>
	<path class="st5" d="M912.5,242.5h2l-6-9l3,8L912.5,242.5z"/>
	<path class="st1" d="M502.5,241.5l4-3l-1-2l-6,3L502.5,241.5z"/>
	<path class="st7" d="M752.5,241.5h5l1-4L752.5,241.5z"/>
	<path class="st1" d="M757.5,241.5l2-1l12-1v-2h-13L757.5,241.5z"/>
	<path class="st5" d="M829.5,241.5l4-2v-19l-3,10L829.5,241.5z"/>
	<path class="st7" d="M688.5,239.5h1l14-4L688.5,239.5z"/>
	<path class="st1" d="M771.5,239.5l41-18h-2v-2l-8,1l-31,17V239.5z"/>
	<path class="st1" d="M636.5,238.5l5-1l-62-40h-1l-3-1l32,35l-46-21l-10,3L636.5,238.5z"/>
	<path class="st0" d="M985.5,237.5h1l-6-9l5,4V237.5z"/>
	<path class="st8" d="M734.5,235.5l4-3v-4l-9,2L734.5,235.5z"/>
	<path class="st7" d="M499.5,233.5l4-1l-3-3L499.5,233.5z"/>
	<path class="st1" d="M828.5,233.5l2-3l3-10l-2-8l-3,12V233.5z"/>
	<path class="st2" d="M868.5,233.5h2l2-13L868.5,233.5z"/>
	<path class="st7" d="M503.5,232.5h1v-4l-7,1h3L503.5,232.5z"/>
	<path class="st1" d="M504.5,232.5l5-1l-1-3h-4V232.5z"/>
	<path class="st5" d="M905.5,232.5h2l-7-7h-1L905.5,232.5z"/>
	<path class="st1" d="M984.5,232.5h1l-5-4l-6-6h-1l-1-7h-1v-2l-1-1v-1l-4-17L984.5,232.5z"/>
	<path class="st8" d="M649.5,231.5l16-1h-16V231.5z"/>
	<path class="st5" d="M542.5,230.5l-3-20l-5,7l-7-20L542.5,230.5z"/>
	<path class="st2" d="M643.5,230.5h6h16l14-3l-13-2l-33-4l-1,4L643.5,230.5z"/>
	<path class="st1" d="M530.5,229.5l1-1l-6-8l-2,2L530.5,229.5z"/>
	<path class="st8" d="M679.5,227.5h2l-2-3l-13,1L679.5,227.5z"/>
	<path class="st7" d="M681.5,227.5l3-1v-3l-5,1L681.5,227.5z"/>
	<path class="st6" d="M879.5,227.5l4-1l5-5l-3-3L879.5,227.5z"/>
	<path class="st1" d="M620.5,226.5l2-1l-21-35L620.5,226.5z"/>
	<path class="st1" d="M773.5,226.5l3-8l-2,1L773.5,226.5z"/>
	<path class="st5" d="M630.5,225.5h2l1-4l-7-5l-2,3L630.5,225.5z"/>
	<path class="st9" d="M899.5,225.5h1l-5-8l2,4L899.5,225.5z"/>
	<path class="st5" d="M825.5,224.5h3l3-12l-7-25l-4-8l4,24l1,18V224.5z"/>
	<path class="st5" d="M489.5,223.5l9-6l4-13l5-4l14-2v-14l-33,38L489.5,223.5z"/>
	<path class="st7" d="M656.5,223.5l-15-6v2L656.5,223.5z"/>
	<path class="st1" d="M788.5,223.5l2-1l-4-23h-2L788.5,223.5z"/>
	<path class="st7" d="M521.5,222.5h2l2-2L521.5,222.5z"/>
	<path class="st1" d="M604.5,222.5l-14-33h-5L604.5,222.5z"/>
	<path class="st5" d="M889.5,222.5l-4-4l3,3L889.5,222.5z"/>
	<path class="st0" d="M925.5,222.5h2l-1-35L925.5,222.5z"/>
	<path class="st0" d="M973.5,222.5h1l-2-7L973.5,222.5z"/>
	<path class="st7" d="M810.5,221.5h2l-2-18l-2,2l-1-1l3,15V221.5z"/>
	<path class="st7" d="M822.5,221.5h1h2l-1-18l-10-68v-3l-6,9l-2,24L822.5,221.5z"/>
	<path class="st5" d="M895.5,221.5h2l-2-4h-1h-3L895.5,221.5z"/>
	<path class="st1" d="M579.5,219.5l-10-18l-3,4L579.5,219.5z"/>
	<path class="st5" d="M624.5,219.5l2-3l-8-12l-3,3L624.5,219.5z"/>
	<path class="st1" d="M639.5,219.5h2v-2l-11-24l-4,1L639.5,219.5z"/>
	<path class="st1" d="M774.5,219.5l2-1l-2-6V219.5z"/>
	<path class="st1" d="M694.5,218.5l2-3l-2,2V218.5z"/>
	<path class="st1" d="M776.5,218.5l-3-19l-4,2l5,11L776.5,218.5z"/>
	<path class="st4" d="M534.5,217.5l5-7l-1-1h-1l-1-15l2-15l-12-3l1,21L534.5,217.5z"/>
	<path class="st7" d="M688.5,217.5h6l2-2l-12-4l-3,3L688.5,217.5z"/>
	<path class="st0" d="M863.5,217.5l-9-80l-6,9l1,15L863.5,217.5z"/>
	<path class="st9" d="M890.5,217.5h1h3l-2-5L890.5,217.5z"/>
	<path class="st1" d="M670.5,216.5l2-1l-8-4h-2L670.5,216.5z"/>
	<path class="st0" d="M971.5,215.5h1l-1-2V215.5z"/>
	<path class="st8" d="M679.5,214.5h2l3-3l-6-2l-3,2L679.5,214.5z"/>
	<path class="st1" d="M737.5,214.5l-19-15l-3,3L737.5,214.5z"/>
	<path class="st7" d="M550.5,213.5h1l10-3l-8-24l-9,9L550.5,213.5z"/>
	<path class="st1" d="M661.5,211.5h1h2l-4-3h-1L661.5,211.5z"/>
	<path class="st4" d="M673.5,211.5h2l3-2l-28-36l-1-3l-3,4L673.5,211.5z"/>
	<path class="st5" d="M537.5,209.5h1l-2-15L537.5,209.5z"/>
	<path class="st1" d="M801.5,209.5l2-2h-1l-3-8l-2,1L801.5,209.5z"/>
	<path class="st7" d="M657.5,208.5h2h1l-21-46v15L657.5,208.5z"/>
	<path class="st1" d="M747.5,208.5l1-1l-10-12l-2,1L747.5,208.5z"/>
	<path class="st9" d="M615.5,207.5l3-3l-5-18h-1l-3-25L615.5,207.5z"/>
	<path class="st7" d="M802.5,207.5h1l-4-8L802.5,207.5z"/>
	<path class="st7" d="M566.5,205.5l3-4l-4-13l-3,1l-3-2L566.5,205.5z"/>
	<path class="st7" d="M808.5,205.5l2-2l-3,1L808.5,205.5z"/>
	<path class="st1" d="M686.5,203.5l2-1l-23-37l-8,2L686.5,203.5z"/>
	<path class="st1" d="M715.5,202.5l3-3l-10-11l-5,2L715.5,202.5z"/>
	<path class="st6" d="M511.5,201.5l10-3l-14,2L511.5,201.5z"/>
	<path class="st1" d="M732.5,201.5l-10-15l-2,1L732.5,201.5z"/>
	<path class="st7" d="M769.5,201.5l4-2l-2-5h-4l-1,1L769.5,201.5z"/>
	<path class="st1" d="M796.5,200.5h1l2-1l-3-4v1V200.5z"/>
	<path class="st8" d="M783.5,199.5h1h2l-2-8l-2,3l-3-4L783.5,199.5z"/>
	<path class="st7" d="M578.5,197.5h1l-1-7l-3,3l-1-1l1,4L578.5,197.5z"/>
	<path class="st1" d="M735.5,196.5h1l2-1l-2-3l-2,2L735.5,196.5z"/>
	<path class="st8" d="M794.5,196.5h2v-1l-2-9l-5-37l1-15l-7-2L794.5,196.5z"/>
	<path class="st9" d="M802.5,196.5l3-5h-2l-2-7h-1l-3-9h-1l-3-10l-4-16l5,37L802.5,196.5z"/>
	<path class="st1" d="M766.5,195.5l1-1l-2-6l-5-11h-3l5,13L766.5,195.5z"/>
	<path class="st7" d="M625.5,194.5h1l4-1l-1-20l-4,9l-2-3v6L625.5,194.5z"/>
	<path class="st7" d="M733.5,194.5h1l2-2L733.5,194.5z"/>
	<path class="st8" d="M767.5,194.5h4l-2-9l-2,5l-2-2L767.5,194.5z"/>
	<path class="st9" d="M782.5,194.5l2-3l-8-30h-1l-5-4l9,33L782.5,194.5z"/>
	<path class="st6" d="M575.5,193.5l3-3l-4-52v54L575.5,193.5z"/>
	<path class="st8" d="M803.5,191.5h2l-4-7L803.5,191.5z"/>
	<path class="st7" d="M702.5,190.5h1l5-2l-4-7l-3,4l-2-2L702.5,190.5z"/>
	<path class="st7" d="M761.5,190.5h1l-5-13h-1l-6-23h-1l-1-11L761.5,190.5z"/>
	<path class="st9" d="M767.5,190.5l2-5l-5-24h-1l2-21l22-47v-2h-1l-2-1l-28,44l18-47l-1-1l-13,91l5,11L767.5,190.5z"/>
	<path class="st1" d="M921.5,190.5l-14-43l-2,1l-2-4h-1l-24-19l-46,9l-6,11l18-6l18-4l4,4l6,6l6,7l11-2l14,14l13,16L921.5,190.5z
		 M883.5,150.5l-3,1L883.5,150.5z"/>
	<path class="st6" d="M562.5,189.5l3-1l-2-34l-4,5l-4-2l4,30L562.5,189.5z"/>
	<path class="st7" d="M585.5,189.5h5l1-5h-6V189.5z"/>
	<path class="st1" d="M720.5,187.5l2-1l-4-8h-3L720.5,187.5z"/>
	<path class="st4" d="M824.5,187.5l10-8h1l1-6h-1l9-34l-18,6l1-5h-2l-6-2l-2,2l-2,8v12l5,19L824.5,187.5z"/>
	<path class="st6" d="M612.5,186.5h1l17-54l-21,29L612.5,186.5z"/>
	<path class="st7" d="M622.5,185.5h1v-6v-10L622.5,185.5z"/>
	<path class="st8" d="M701.5,185.5l3-4l-2-4l-4,3l1,3L701.5,185.5z"/>
	<path class="st0" d="M965.5,185.5h1l-1-3V185.5z"/>
	<path class="st6" d="M585.5,184.5h6l32-65l-8,4v-11L585.5,184.5z"/>
	<path class="st4" d="M727.5,184.5l-6-33l-4,8L727.5,184.5z"/>
	<path class="st8" d="M800.5,184.5h1l-4-9L800.5,184.5z"/>
	<path class="st2" d="M909.5,183.5l7-3l-13-16h-1l-13-14l-11,2L909.5,183.5z"/>
	<path class="st8" d="M625.5,182.5l4-9l16-3h4l1,3l21-57l7-8l-18,13l-22,22l-6-10l-2-1l-7,37v10L625.5,182.5z"/>
	<path class="st3" d="M838.5,182.5l11-21l-1-15l-12,27l-1,6L838.5,182.5z"/>
	<path class="st5" d="M697.5,180.5h1l4-3l-1-7h-1l-1-2l-3,5l-1-57h-2l-5,17v2v12L697.5,180.5z"/>
	<path class="st6" d="M583.5,178.5l1-1l4-47l-5,5l-5-4L583.5,178.5z"/>
	<path class="st7" d="M714.5,178.5h1h3l-5-13l-3,1L714.5,178.5z"/>
	<path class="st7" d="M638.5,177.5h1v-15L638.5,177.5z"/>
	<path class="st8" d="M756.5,177.5h1h3l13-91l4-5l-28,57l1,16L756.5,177.5z"/>
	<path class="st0" d="M963.5,176.5h1l-1-3V176.5z"/>
	<path class="st1" d="M735.5,175.5l1-1l-2-22l-5,1L735.5,175.5z"/>
	<path class="st8" d="M796.5,175.5h1l-4-10L796.5,175.5z"/>
	<path class="st5" d="M645.5,174.5h1l3-4h-4V174.5z"/>
	<path class="st2" d="M696.5,173.5l3-5v-4h-1l9-45l1-4l-10-5l-3,6L696.5,173.5z"/>
	<path class="st2" d="M835.5,173.5h1l12-27l6-9l8-2l-18,4L835.5,173.5z"/>
	<path class="st8" d="M700.5,170.5h1l-1-15l-1,9v4L700.5,170.5z"/>
	<path class="st0" d="M961.5,169.5h1l-1-1V169.5z"/>
	<path class="st1" d="M657.5,167.5l8-2l9-39L657.5,167.5z"/>
	<path class="st8" d="M710.5,166.5l3-1l-1-11l-4-12v4v10L710.5,166.5z"/>
	<path class="st0" d="M960.5,166.5h1l-1-1V166.5z"/>
	<path class="st7" d="M805.5,165.5h1l2-24L805.5,165.5z"/>
	<path class="st5" d="M698.5,164.5h1l1-9l9-36h-2L698.5,164.5z"/>
	<path class="st9" d="M902.5,164.5h1l-14-14L902.5,164.5z"/>
	<path class="st8" d="M763.5,161.5h1l1-21L763.5,161.5z"/>
	<path class="st8" d="M775.5,161.5h1l-1-27l1-15l-6,38L775.5,161.5z"/>
	<path class="st5" d="M814.5,160.5h1v-12L814.5,160.5z"/>
	<path class="st9" d="M559.5,159.5l4-5l6-25l-7-1l-7,29L559.5,159.5z"/>
	<path class="st5" d="M716.5,159.5h1l4-8l4-25h-1l-5-11l-11,27l4,12L716.5,159.5z"/>
	<path class="st7" d="M707.5,156.5h1v-10L707.5,156.5z"/>
	<path class="st7" d="M795.5,156.5l16-34l10-15l1-2L795.5,156.5z"/>
	<path class="st6" d="M749.5,154.5h1l-1-16l-1,5L749.5,154.5z"/>
	<path class="st1" d="M729.5,153.5l5-1l1-5h-6V153.5z"/>
	<path class="st0" d="M954.5,153.5h1l-1-1V153.5z"/>
	<path class="st0" d="M952.5,149.5h1l-1-2V149.5z"/>
	<path class="st2" d="M905.5,148.5l2-1l-1-3h-1l-2-2v2L905.5,148.5z"/>
	<path class="st8" d="M687.5,147.5h1v-12L687.5,147.5z"/>
	<path class="st7" d="M729.5,147.5h6l12-45L729.5,147.5z"/>
	<path class="st5" d="M826.5,145.5l6-11h-1l-8-2l-6,8l2-2l8,2L826.5,145.5z"/>
	<path class="st5" d="M870.5,145.5h2l-6-6L870.5,145.5z"/>
	<path class="st5" d="M902.5,144.5h1v-2l-17-26h-2l-7-6l-6,12l7,3L902.5,144.5z"/>
	<path class="st2" d="M905.5,144.5h1l-9-15l-3-4l-1-1h-1l-4-8h-1h-1l17,26L905.5,144.5z"/>
	<path class="st5" d="M638.5,143.5l22-22l4-8l-15,15l-3,4l-7-9l3-8l-10,18L638.5,143.5z"/>
	<path class="st0" d="M948.5,141.5h1l-1-2V141.5z"/>
	<path class="st9" d="M825.5,140.5h2l-8-2L825.5,140.5z"/>
	<path class="st0" d="M947.5,139.5h1l-1-1V139.5z"/>
	<path class="st8" d="M583.5,135.5l5-5l-10,1L583.5,135.5z"/>
	<path class="st7" d="M814.5,135.5l2-2v-5l-2,4V135.5z"/>
	<path class="st3" d="M756.5,134.5l28-44l-10-3L756.5,134.5z"/>
	<path class="st7" d="M790.5,134.5l27-36h-1l-4-10l-29,44L790.5,134.5z"/>
	<path class="st6" d="M831.5,134.5h1l46-9l-7-3h-1l-6-10l-41,20L831.5,134.5z"/>
	<path class="st8" d="M688.5,133.5l5-17v-2L688.5,133.5z"/>
	<path class="st6" d="M816.5,133.5l8-9h-1l-4-2l-3,6V133.5z"/>
	<path class="st9" d="M646.5,132.5l3-4l-10-5L646.5,132.5z"/>
	<path class="st0" d="M943.5,132.5h1l-1-1V132.5z"/>
	<path class="st0" d="M941.5,129.5h1l-1-1V129.5z"/>
	<path class="st9" d="M724.5,126.5h1l26-37l20-16l12-10l-38,21l-26,31L724.5,126.5z"/>
	<path class="st0" d="M939.5,126.5h1l-1-1V126.5z"/>
	<path class="st7" d="M823.5,124.5h1l2-20l-5,3l-10,15h8L823.5,124.5z"/>
	<path class="st3" d="M892.5,124.5h1h3l-2-6h-1l-5-2L892.5,124.5z"/>
	<path class="st5" d="M615.5,123.5l8-4l12-10l4-18l-24,21V123.5z"/>
	<path class="st5" d="M870.5,122.5h1l6-12l-18-7h-4v2l9,7L870.5,122.5z"/>
	<path class="st9" d="M707.5,119.5h2l9-17l-10,13L707.5,119.5z"/>
	<path class="st3" d="M893.5,118.5h1l-6-10h-1l-10-10l10,18h1L893.5,118.5z"/>
	<path class="st9" d="M693.5,116.5h2l3-6l10-19l-15,23V116.5z"/>
	<path class="st9" d="M884.5,116.5h2h1l-10-18l-3-3l-9-4l-6,12l18,7L884.5,116.5z"/>
	<path class="st2" d="M579.5,113.5l24-17l9-6l74-31L579.5,113.5z"/>
	<path class="st3" d="M887.5,108.5h1l-66-42l6,4l46,25l3,3L887.5,108.5z"/>
	<path class="st7" d="M821.5,107.5l5-3l-4,1L821.5,107.5z"/>
	<path class="st8" d="M851.5,105.5h4v-2h-2l-12-3L851.5,105.5z"/>
	<path class="st5" d="M853.5,103.5h2h4l6-12l-26-6l-8,12l10,3L853.5,103.5z"/>
	<path class="st6" d="M816.5,98.5h1l14-1l8-12l-27,3L816.5,98.5z"/>
	<path class="st2" d="M680.5,94.5l7-4l1-2L680.5,94.5z"/>
	<path class="st5" d="M787.5,93.5l4-7l-4,5V93.5z"/>
	<path class="st9" d="M786.5,91.5h1l4-5l16-13l8-2h1l10-2l2,1l-6-4h-15l-4-2l-26,17l-4,5l1,1l10,3L786.5,91.5z"/>
	<path class="st9" d="M687.5,90.5l21-11l-20,9L687.5,90.5z"/>
	<path class="st0" d="M902.5,88.5h1l-1-1V88.5z"/>
	<path class="st0" d="M898.5,85.5h1l-1-1V85.5z"/>
	<path class="st0" d="M895.5,83.5h1l-1-1V83.5z"/>
	<path class="st0" d="M892.5,81.5h1l-1-1V81.5z"/>
	<path class="st0" d="M891.5,80.5h1l-1-1V80.5z"/>
	<path class="st0" d="M890.5,79.5h1l-1-1V79.5z"/>
	<path class="st0" d="M889.5,78.5h1l-1-1V78.5z"/>
	<path class="st0" d="M886.5,76.5h1l-1-1V76.5z"/>
	<path class="st0" d="M876.5,70.5h1l-1-1V70.5z"/>
	<path class="st3" d="M807.5,66.5h15l-23-3l4,1L807.5,66.5z"/>
	<path class="st0" d="M708.5,42.5h1l-1-1V42.5z"/>
</g>
<rect x="582.3" y="56.3" class="st10" width="0" height="2.2"/>
<rect x="1071.5" y="119.6" class="st10" width="2.2" height="0"/>
</svg>
