<?xml version='1.0' encoding='utf-8'?>
<!-- Generator: imaengine 6.0   -->
<svg xmlns:xlink="http://www.w3.org/1999/xlink" xmlns="http://www.w3.org/2000/svg" viewBox="0,0,586,586" style="enable-background:new 0 0 586 586;" version="1.1">
<defs/>
<g id="layer0">
<path d="M0,586C37.9962,586 76.0038,586 114,586C150.996,586 188.004,586 225,586C259.996,586 295.004,586 330,586C358.5,586 387.587,586 415,586C437.799,586 461.307,586 483,586C495.687,586 509.49,586 521,586C538.967,587.853 521.22,581.145 518,580C500.908,571.273 482.565,563.159 466,555C448.822,549.379 435.33,539.363 426,527C416.223,517.338 404.054,509.262 402,493C391.77,483.472 401.405,463.343 399,448C396.822,431.104 405.471,424.033 409,414C411.042,403.016 411.884,389.737 412,378C405.151,356.09 423.346,366.065 431,360C435.644,352.976 439.146,343.625 441,335C443.404,328.806 445.275,320.634 446,314C448.276,309.741 450.687,303.933 452,300C452.812,294.968 454.711,289.245 454,284C455.872,279.731 455.054,271.08 454,268C451.487,263.677 441.662,266.75 441,269C432.395,274.389 435.824,261.409 436,259C434.453,249.225 439.314,237.508 439,227C439.596,216.439 438.564,206.188 438,198C437.258,190.144 436.378,180.981 435,175C432.819,156.159 436.779,140.408 438,128C436.468,113.512 424.122,112.031 434,103C433.088,97.5719 425.439,103.949 427,97C422.949,66.0544 408.523,45.4733 387,32C383.214,28.9059 376.706,26.8942 373,25C360.369,23.589 355.777,13.1029 344,12C329.812,13.2921 314.793,22.0546 302,15C269.911,16.9075 250.538,31.5417 233,48C220.738,63.9944 229.07,43.3065 222,51C215.04,61.9531 213.515,78.1287 200,84C186.073,98.2376 172.564,113.487 168,136C167.788,157.354 165.506,178.394 163,199C158.032,215.896 166.555,246.365 160,255C172.702,279.286 148.937,260.75 139,262C129.518,269.195 138.764,287.794 139,298C142.862,308.179 147.159,318.961 151,328C153.828,338.197 160.386,345.761 164,354C164.169,365.237 179.892,361.681 185,364C187.783,373.565 186.992,387.841 188,398C188,408.988 188,421.21 188,431C186.528,440.856 186.859,453.724 181,458C177.88,465.187 171.072,469.973 168,476C162.939,479.537 159.943,486.584 156,490C153.671,495.239 147.612,498.305 146,503C142.472,505.662 139.013,510.122 136,512C106.821,552.814 35.9661,551.973 0,586Z" fill="#6F6F6F"/>
</g>
<g id="layer1">
<path d="M1,582.648C1,580.572 2.97117,579.407 17.75,572.743C40.6824,562.403 57.0255,555.963 73,550.972C96.1968,543.724 107.088,538.688 114.807,531.638C118.503,528.262 126.28,521.353 132.088,516.285C143.006,506.756 151.003,498.219 159.519,487C164.354,480.63 173.947,468.969 176.795,466C179.121,463.575 176.638,467.985 171.582,475.26C163.829,486.414 161.636,491.687 161.705,499C161.801,509.091 165.892,528.66 174.425,559.828C177.386,570.648 180.086,580.737 180.424,582.25L181.038,585L91.0191,585L1,585L1,582.648ZM287,577.91C281.775,574.049 270.975,566.326 263,560.748C229.901,537.598 209.98,521.593 201.074,510.992C195.281,504.097 188.345,491.888 186.344,485.062C185.042,480.624 184.959,478.786 185.89,475.062C187.196,469.837 190.144,425.538 189.327,423.409C189.029,422.634 189.248,422 189.814,422C190.379,422 191.137,423.347 191.499,424.994C191.86,426.641 192.748,428.328 193.471,428.744C194.195,429.16 198.282,434 202.554,439.5C213.177,453.177 227.9,469.722 244,486.072C263.644,506.023 268.412,508 296.877,508C306.478,508 314.083,507.749 313.776,507.443C313.47,507.137 305.633,506.49 296.36,506.006C269.033,504.58 264.732,502.551 243.932,481.272C219.775,456.559 199.19,432.09 194.444,422.446C191.471,416.405 190.018,405.405 190.008,388.859C190.001,379.329 190.487,375.431 192.684,367.359C196.464,353.476 196.602,348.42 193.614,333.362C192.211,326.288 190.172,315.1 189.083,308.5C182.256,267.119 180.299,257.303 178.68,256.302C178.043,255.909 174.842,254.853 171.567,253.956L165.612,252.326L164.348,246.913C162.825,240.388 162.656,216.879 164.018,201C166.247,175.017 166.674,172.559 169.865,167.374C173.655,161.215 176.077,152.86 174.25,152.251C171.471,151.323 174.227,142.503 179.423,135.69C182.15,132.115 185.399,125.065 184.66,124.327C183.932,123.598 174.745,133.759 172.009,138.32C169.868,141.889 169.501,143.775 169.389,151.772C169.318,156.888 169.034,161.3 168.758,161.575C167.814,162.52 168.692,138.507 169.851,131.692C171.171,123.925 172.372,121.268 178.974,111.5C181.576,107.65 184.625,102.7 185.751,100.5C189.546,93.0786 195.713,86.3834 201.41,83.5015C209.106,79.6072 212.836,75.4547 213.519,70.0176C213.825,67.5834 214.17,65.538 214.287,65.4721C218.861,62.8953 221.128,60.4473 220.753,58.4879C220.517,57.2526 221.113,54.7249 222.077,52.8709L223.831,49.5L223.493,53.2192C223.308,55.2648 222.817,57.5148 222.403,58.2192C221.989,58.9236 225.216,56.0675 229.575,51.8721C240.306,41.5432 243.276,39.0832 251.891,33.3869C266.781,23.5415 270.118,21.939 279.97,19.9057C300.348,15.6999 299.564,15.7665 307.602,17.5548C313.528,18.8733 316.004,19.0004 319.309,18.1556C342.6,12.2019 347.056,12.1519 355.367,17.7507C362.001,22.2195 366.22,24.313 373,26.5C381.6,29.2742 385.831,31.7092 395.319,39.3444C410.215,51.3317 420.331,67.6753 422.201,82.7731C422.727,87.0229 423.797,91.774 424.579,93.331C425.36,94.8881 426,96.9991 426,98.022C426,100.167 427.68,101.5 430.385,101.5C431.422,101.5 432.766,102.283 433.373,103.239C434.272,104.656 433.937,105.49 431.566,107.739L428.656,110.5L430.328,107.785C432.461,104.322 432.443,104.202 429.75,103.82C426.509,103.359 423.244,96.1011 421.539,85.5685C419.17,70.9334 410.83,55.811 398.867,44.4569C389.069,35.1576 383.29,31.5346 371.031,27.0064C366.889,25.4764 359.991,22.3741 355.702,20.1123C346.422,15.218 342.389,14.9247 327.36,18.0512C319.239,19.7406 315.471,19.9914 306,19.473C292.773,18.7491 277.858,21.0871 268.567,25.3408C250.306,33.7008 224.604,57.3119 215.002,74.5481C212.235,79.5153 209.266,82.0151 199.717,87.4173C194.296,90.4841 190.724,94.8511 180.934,110.38C174.329,120.856 170.4,129.699 171.235,132.205C171.454,132.863 173.098,131.399 174.888,128.951C176.677,126.503 182.129,119.033 187.002,112.351C198.386,96.744 200.486,95.0478 194.958,105.926C191.079,113.559 190.16,120.475 192.438,124.881C194.649,129.155 200.883,136 202.565,136C204.168,136 202.339,131.081 198.436,124.898C197.096,122.776 196,120.613 196,120.092C196,119.543 198.279,119.38 201.419,119.704C206.8,120.259 206.872,120.23 211.669,115.558C214.326,112.97 215.563,111.312 214.418,111.872C213.273,112.432 211.755,113.59 211.045,114.445C210.336,115.3 208.348,115.968 206.628,115.93C203.974,115.87 203.803,115.729 205.5,115C207.147,114.292 206.881,114.121 204,114.031L200.5,113.922L203.5,112.424C209.991,109.183 216.422,105.046 215,105.026C214.175,105.014 210.836,106.611 207.58,108.575C202.486,111.646 201.87,111.828 203.167,109.875C205.171,106.857 211.517,103.653 215.658,103.568C219.481,103.49 219.796,102.978 217.072,101.277C215.54,100.32 214.255,100.381 210.822,101.575C205.838,103.308 204.305,104.396 201.227,108.385C197.662,113.003 198.324,108.233 201.94,103.242C204.575,99.6046 213.341,92 214.9,92C215.709,92 217.412,87.865 219.635,80.5L221.446,74.5L221.973,84.6649C222.454,93.9362 222.767,95.2109 225.537,99.1649C229.354,104.613 236.99,108.983 242.5,108.874L246.5,108.795L243.149,108.003C238.146,106.821 231.805,101.763 229.168,96.8516C227.127,93.0504 226.888,91.4881 227.28,84.5C227.756,76.0054 229.957,68.3041 233.227,63.6924C234.322,62.1483 235.362,61.029 235.538,61.2051C235.715,61.3813 235.414,63.6125 234.87,66.1634C234.091,69.8153 234.312,73.08 235.912,81.5195C238.145,93.2978 241.227,99.0259 245.301,98.9696C247.275,98.9423 247.321,98.8351 245.75,97.9199C242.87,96.2426 241.113,91.6822 239.511,81.7277C237.14,66.9878 240.221,56.0518 249.204,47.327C254.192,42.4821 270.377,33.6941 283.951,28.4597C293.787,24.6673 309.158,22.3167 307.596,24.8439C307.203,25.4798 305.854,26 304.598,26C295.018,26 269.94,40.1225 261.765,50.1206C256.728,56.2808 251.054,68.0588 249.753,75.0535C248.52,81.6844 249.958,92.7065 252.585,96.75C254.712,100.025 252.603,99.5056 249.683,96.0347C247.138,93.0106 246.557,90.6556 245.414,78.75C244.999,74.4205 245.131,72 245.783,72C246.342,72 247.559,68.5854 248.487,64.412C249.416,60.2387 250.811,55.3031 251.588,53.4442C253.546,48.7578 253.37,48.3042 250.601,50.9052C249.281,52.1449 246.919,55.9358 245.351,59.3296C242.753,64.9519 242.51,66.4328 242.615,76C242.741,87.4805 244.44,93.9122 248.209,97.181C251.432,99.9766 256.602,103.038 258.821,103.466C260.473,103.784 260.266,103.11 257.397,98.847C247.349,83.9158 251.652,67.2224 270.139,49.4071C276.935,42.8581 282,39.0699 282,40.5354C282,40.8686 280.25,43.2469 278.112,45.8206C273.258,51.6624 271.889,54.3996 268.614,64.8016C264.802,76.9096 265.134,86.9907 269.488,91.3448C272.351,94.2083 272.752,93.1723 270.879,87.75C268.621,81.2144 268.534,75.7226 270.594,69.6793C272.714,63.4548 273.482,63.2412 273.587,68.8464C273.686,74.1379 277.522,84.3459 281.096,88.8243C286.38,95.4471 299.218,99.4041 308,97.1165C311.314,96.2531 311.197,96.1993 305.788,96.1024C298.429,95.9705 289.774,92.7077 285.533,88.4667C281.628,84.5618 278,75.6332 278,69.9293C278,64.0356 287.062,46.9959 292.954,41.809C300.959,34.7626 321.369,24.6735 330.049,23.4716C334.874,22.8036 336.257,21.9973 313.129,33.3331C307.261,36.2089 300.566,43.8715 298.054,50.5859C294.011,61.3917 295.962,77.1433 302.451,86.0832C306.043,91.0327 310.193,93.4956 316.5,94.4217L320.5,95.009L317.137,93.7114C311.956,91.7122 306.451,86.556 303.865,81.281C301.97,77.4126 301.52,74.8736 301.511,67.979C301.501,60.3787 301.85,58.7465 304.741,52.874C307.855,46.5488 316.48,37 319.08,37C319.871,37 319.929,37.4009 319.259,38.25C314.451,44.344 310.582,49.8988 309.038,52.9253C306.225,58.4395 304.635,67.8852 305.824,72.0273C306.677,75.0013 306.838,75.141 306.946,73C307.039,71.1423 307.968,72.4111 310.561,77.9382C314.801,86.9792 318.141,91.5045 322.073,93.5378L325.043,95.0736L321.617,90.5856C313.661,80.1621 309.658,66.8632 311.981,58.567C314.23,50.5349 323.683,38.4048 333.134,31.4232C337.082,28.5069 338.563,28.0054 343.134,28.0365L348.5,28.073L343.28,30.5986C333.542,35.3104 326.718,45.344 324.473,58.2509C322.522,69.4665 323.547,73.0917 334.782,94.7353C337.586,100.137 339.632,101.708 338.708,97.75C338.419,96.5125 336.967,92.6099 335.482,89.0776C333.997,85.5453 332.07,79.2164 331.201,75.0134C329.756,68.0243 329.758,66.815 331.229,60.8556C332.77,54.61 339.879,41.2664 344.407,36.1211C351.51,28.0492 369.4,29.3477 378.66,38.6071C383.435,43.3826 384.902,47.6084 380.75,44.6297C373.335,39.3099 369.667,37.7429 363.462,37.2449C354.044,36.4889 348.875,38.6991 344.495,45.3556C340.121,52.0028 338.571,58.414 339.305,66.8284C340.013,74.9488 342.7,82.945 347.438,91.029C349.397,94.372 351,97.7955 351,98.6369C351,99.4783 351.562,99.9695 352.25,99.7284C354.25,99.0273 353.243,94.7654 348.399,83.4246C341.276,66.75 341.281,55.0284 348.415,47.2439C351.361,44.0294 352.351,43.6023 357.757,43.2112C364.223,42.7435 372.852,44.9114 375.045,47.5548C376.043,48.7563 375.775,49 373.456,49C370.27,49 370.605,49.8462 374.055,50.5105C383.14,52.2601 394.351,62.2466 399.924,73.5529C402.707,79.1982 403.436,81.9974 403.817,88.4906C404.24,95.7099 404.131,96.3539 402.695,95.1619C401.066,93.8101 399.475,89.8161 396.586,79.8243C394.714,73.3518 393.093,71.7613 379.807,63.3635C369.982,57.1533 368.916,57.1799 364.839,63.7374C362.861,66.92 362.511,68.7641 362.573,75.6998C362.614,80.2097 362.342,83.7115 361.97,83.4816C360.112,82.3332 357.821,71.6724 358.472,67.2059C359.057,63.2005 359.979,61.7185 364.67,57.25C370.634,51.5695 369.875,50.4213 362.5,53.9671C356.776,56.719 355.476,58.0112 354.039,62.375C352.338,67.5372 353.194,72.9344 357.558,84.5875C361.642,95.4918 362.841,101 361.131,101C360.509,101 360,100.19 360,99.2C360,98.21 359.604,96.9725 359.121,96.45C358.637,95.9275 357.692,93.7823 357.021,91.683C355.194,85.9675 355.03,87.5834 356.552,96.3013C358.516,107.547 357.28,110.93 350.5,112.862C341.744,115.356 316.393,111.41 318.568,107.89C318.87,107.401 320.862,107 322.994,107C327.106,107 332.662,105.328 331.711,104.377C331.082,103.749 328.413,103.328 319.5,102.453C314.15,101.927 312.079,102.352 300.376,106.372C281.623,112.814 276.762,113.901 261.813,115.002C242.665,116.413 240.874,116.916 234.747,122.602C227.464,129.361 226.416,130.82 222.051,140.268C213.045,159.76 211.977,169.52 216.016,195.384C218.805,213.245 218.284,216.332 211.718,220.852C205.729,224.973 198.591,232.899 195.662,238.68C192.477,244.966 191.069,246.091 185.789,246.565L181.5,246.951L185.651,245.936C190.832,244.67 191.327,243.055 189.935,231.953C188.961,224.188 184.449,211.036 182.75,211.011C182.338,211.005 182,212.857 182,215.127C182,217.657 180.853,221.625 179.038,225.377C175.231,233.245 172.283,247.431 174.02,249.524C178.139,254.487 198.328,253.451 204.91,247.939C208.931,244.571 206.068,243.507 200.915,246.452C198.487,247.84 195.54,248.981 194.368,248.988C192.459,248.999 192.617,248.604 195.868,245.231C197.865,243.158 201.404,238.758 203.731,235.455C208.376,228.858 227.358,211.172 231.74,209.357C233.258,208.728 235.679,207.752 237.12,207.188C238.999,206.452 240.977,203.739 244.12,197.585C246.529,192.868 248.838,189.007 249.25,189.005C252.819,188.983 244.233,210.307 239.397,213.476C235.876,215.782 237.307,217.007 243.359,216.867C246.67,216.791 249.88,217.409 252.054,218.541C253.949,219.528 257.3,220.876 259.5,221.535L263.5,222.734L257.5,223.412C253.612,223.852 248.508,223.553 243,222.564C229.177,220.081 227.218,220.335 219.366,225.633C212.959,229.955 204.69,237.023 205.311,237.645C205.462,237.796 208.492,236.997 212.043,235.87C216.997,234.298 223.154,233.595 238.5,232.851C259.899,231.813 264.063,232.031 272.256,234.621C278.619,236.633 279.943,237.787 282.165,243.256L283.888,247.5L283.944,242.399C284.01,236.389 285.675,231 287.467,231C288.486,231 288.499,232.037 287.529,236.25C286.864,239.137 286.525,243.211 286.776,245.302L287.231,249.104L296.478,248.425C302.571,247.978 306.368,248.12 307.612,248.843C309.171,249.748 308.628,249.952 304.5,250.013C299.907,250.081 297.475,250.457 288.25,252.522C285.294,253.184 284.999,253.035 284.985,250.875C284.972,248.975 284.776,248.8 284,250C283.467,250.825 283.024,250.986 283.015,250.357C283.007,249.728 282.36,248.968 281.577,248.668C280.503,248.256 280.273,248.774 280.637,250.78C281.54,255.76 281.664,255.784 303.269,255.258C314.396,254.987 323.814,254.481 324.198,254.133C325.271,253.16 328.211,245.751 327.301,246.313C325.833,247.22 325.93,236.303 327.401,235.082C328.503,234.167 328.897,234.678 329.437,237.724C330.456,243.471 331.036,245 332.197,245C332.902,245 333.04,242.9 332.609,238.75L331.96,232.5L333.729,236L335.498,239.5L336.139,234.256C337.037,226.908 337.871,224 339.078,224C339.65,224 339.815,224.49 339.445,225.089C338.687,226.315 336.959,246.285 337.558,246.889C338.391,247.727 339.98,241.662 340.946,233.958C341.595,228.782 342.644,224.997 343.855,223.457C345.709,221.101 345.796,221.088 347.875,222.891C350.323,225.015 350.57,226 348.655,226C346.157,226 343.999,229.634 342.966,235.582C342.401,238.837 341.478,242.588 340.914,243.918C340.048,245.962 340.11,246.153 341.314,245.154C342.098,244.504 343.495,241.993 344.419,239.574C346.184,234.95 348.72,233.054 350.246,235.216C350.782,235.975 351.325,236.091 351.574,235.5C351.846,234.857 359.124,234.678 371.973,235C390.537,235.465 392.097,235.648 394.035,237.588L396.121,239.676L387.81,239.342C378.207,238.956 378.475,239.3 389.5,241.506C393.9,242.387 399.773,244.179 402.552,245.489C405.33,246.799 411.036,248.881 415.232,250.115C424.642,252.884 425.271,254.246 420.475,261.471C415.755,268.583 414.552,271.785 411.036,286.602C407.189,302.82 403.579,310.356 396.608,316.727C390.275,322.516 383.715,325.016 372.992,325.729C363.426,326.366 351.047,323.242 343.796,318.362C337.592,314.187 336.791,314.121 340.563,318.093C348.625,326.584 367.431,331.004 382.201,327.879C389.815,326.268 400.477,320.509 402.927,316.683C404.049,314.932 404.974,313.853 404.983,314.285C404.992,314.717 404.264,316.194 403.364,317.567C401.918,319.775 401.874,320.917 402.988,327.429C403.794,332.143 404.016,338.339 403.604,344.647C403.25,350.066 402.565,362.15 402.081,371.5C401.597,380.85 400.725,390.075 400.144,392C399.562,393.925 398.634,400.804 398.082,407.287C397.212,417.504 396.586,420.169 393.385,427.287C389.78,435.305 383.539,444.486 378.965,448.5L376.686,450.5L377.229,448.5C377.528,447.4 378.934,442.561 380.355,437.746C382.16,431.628 383.242,424.699 383.95,414.73C385.019,399.687 385.624,395.709 388.934,382C392.413,367.588 391.082,358.745 386.338,364.75C381.782,370.515 380.703,374.419 380.046,387.5C379.687,394.65 379.135,399.825 378.821,399C378.506,398.175 377.455,393.188 376.486,387.919C373.83,373.475 374.468,369.989 382.878,353C386.826,345.025 389.788,339.512 389.461,340.75C388.604,343.987 389.349,343.548 392.552,338.925C394.895,335.544 395.131,334.695 393.938,333.936C393.147,333.433 391.825,333.309 391,333.661C387.29,335.242 369.986,335.179 361.856,333.554C341.398,329.463 333.808,321.058 321.869,289.273C319.744,283.617 317.53,276.854 316.948,274.244C316.365,271.635 315.243,268.509 314.452,267.297C311.266,262.412 300.408,263.636 296.984,269.266C293.426,275.117 292.625,284.051 294.275,299.5C295.125,307.462 295.819,311.314 295.885,308.432C295.948,305.644 296.646,301.144 297.436,298.432C298.226,295.719 299.058,292.15 299.286,290.5C299.514,288.85 299.765,292.9 299.845,299.5C299.989,311.51 298.901,318.623 296.633,320.5C295.266,321.631 288.605,342.571 288.767,345.227C289.048,349.842 297.039,355.727 306.129,358.013C311.217,359.292 314.513,358.211 320.327,353.359C322.348,351.672 324.484,350.971 327.827,350.9L332.5,350.799L328.5,349.872C326.3,349.362 323.748,347.957 322.829,346.751L321.158,344.558L319.994,347.114C319.354,348.519 317.561,350.419 316.01,351.335C312.041,353.68 311.71,353.416 314.645,350.25C317.279,347.409 317.362,346.084 315.452,337.25C314.462,332.666 316.205,333.188 318.796,338.25C319.993,340.587 320.973,342.05 320.973,341.5C320.975,340.03 317.428,329.124 315.445,324.5C314.122,321.415 313.691,317.185 313.559,306C313.464,298.025 313.002,289.956 312.532,288.069L311.677,284.637L315.37,288.725C319.196,292.959 325.438,308.695 324.383,311.444C324.097,312.19 324.569,315.176 325.431,318.081C327.2,324.036 327.643,341.516 326,340.5C324.803,339.76 324.668,344.928 325.836,346.768C326.789,348.271 332.358,350 336.243,350C339.679,350 339.72,348.745 336.51,341.849C335.14,338.907 334.015,335.701 334.01,334.725C334.004,333.749 333.134,330.486 332.076,327.475C331.017,324.464 330.279,322 330.434,322C330.59,322 332.355,324.467 334.356,327.482C336.412,330.578 338.913,336.306 340.103,340.645C343.211,351.972 341.655,358.188 332.571,370.723C331.286,372.496 329.931,375.973 329.56,378.45C328.695,384.216 327.725,384.745 325.722,380.543C321.912,372.554 314.067,376.407 313.968,386.315C313.932,389.946 312.003,393 309.746,393C308.902,393 306.83,391.709 305.141,390.132C302.374,387.547 301,387.164 301,388.978C301,389.333 301.918,390.608 303.039,391.811C305.55,394.507 304.999,394.55 300.09,392.046C296.849,390.392 296.335,389.699 296.749,387.535C297.27,384.806 300.617,383.304 303.748,384.395C305.212,384.905 305.181,384.758 303.559,383.502C301.703,382.066 301.747,381.999 304.559,381.982C306.968,381.967 308.078,381.081 310.691,377.082C313.152,373.318 315.212,371.579 319.691,369.484C326.188,366.444 329,364.309 329,362.415C329,361.479 328.217,361.364 326.054,361.984C320.833,363.482 314.121,368.931 309.971,375.042L305.925,381L300.213,381.035C294.683,381.07 289.224,382.968 289.764,384.669C289.909,385.126 288.89,387.238 287.499,389.363C285.637,392.206 285.394,393.063 286.578,392.609C291.064,390.887 293.386,390.87 297.072,392.533C302.208,394.849 301.38,395.535 295.309,393.994C290.881,392.869 289.648,393.022 279.746,395.917C273.831,397.646 267.306,399.116 265.246,399.184C263.186,399.251 260.471,400.103 259.213,401.077C256.926,402.846 256.927,402.847 262.213,403.445C265.403,403.806 269.88,403.483 273.5,402.632C291.734,398.344 290.04,398.46 299.116,400.876L307.5,403.108L313.407,401.054C321.182,398.35 323.611,398.45 334.949,401.94C340.202,403.558 347.901,405.292 352.059,405.794C361.31,406.912 365.385,408.71 365.834,411.87C366.069,413.523 365.804,413.997 364.943,413.465C362.751,412.11 322.069,412.135 314,413.496C309.169,414.311 304.543,414.474 301,413.954C292.557,412.714 278.061,412.941 272.52,414.4L267.541,415.711L270.52,417.22C272.159,418.049 276.2,418.973 279.5,419.273C283.033,419.594 287.967,420.986 291.5,422.659C296.866,425.2 298.556,425.497 307.5,425.473C315.447,425.451 318.431,425.02 322.034,423.374C324.527,422.236 328.252,420.988 330.312,420.601C332.371,420.215 333.792,419.472 333.469,418.949C332.695,417.697 334.699,417.863 338.97,419.405L342.44,420.658L337.97,423.273C331.992,426.771 323.001,428.065 303.581,428.223C280.916,428.408 274.43,426.848 264.704,418.869C255.851,411.607 244,407.389 244,411.5C244,412.325 243.53,413 242.955,413C241.386,413 242.795,419.705 245.581,425.5C246.903,428.25 251.126,433.824 254.966,437.888C258.806,441.951 261.653,445.752 261.293,446.335C260.098,448.268 261.125,457.458 262.737,459.25C265.029,461.8 272.477,461.484 280.404,458.5C290.986,454.517 295.48,455.497 290.725,460.752C288.685,463.005 286,470.36 286,473.693C286,475.68 285.627,476.016 284,475.5C281.496,474.705 281.272,477.691 283.51,482.02C285.346,485.569 287.856,487.018 292.47,487.191C295.292,487.297 296.633,486.609 299.48,483.59C301.416,481.537 303,479.348 303,478.726C303,478.103 304.688,479.212 306.75,481.188C310.374,484.662 316.05,487.507 314.566,485.107C314.19,484.498 313.342,484 312.682,484C312.021,484 310.919,483.1 310.232,482C309.545,480.9 309.41,480 309.933,480C310.455,480 311.127,480.396 311.426,480.881C312.13,482.019 316.977,482.946 318.724,482.276C321.249,481.307 323.222,476 322.498,472.129C321.462,466.592 318.322,460.398 315.378,458.082L312.73,456L317.328,456C319.857,456 324.305,456.938 327.213,458.085C334.382,460.912 340.716,461.108 342.58,458.559C344.432,456.027 344.387,454.637 342.479,455.37C341.642,455.691 338.38,454.726 335.229,453.227L329.5,450.5L304,450.861C278.522,451.221 278.495,451.224 272.266,454.041C268.837,455.591 265.819,456.516 265.558,456.094C265.298,455.673 265.432,454.031 265.856,452.444C266.711,449.247 268.963,448.259 275.75,448.1C278.087,448.045 280,447.767 280,447.482C280,447.198 276.903,444.043 273.117,440.471C266.887,434.595 262.912,428.755 264.238,427.428C264.518,427.149 269.478,428.316 275.261,430.022L285.776,433.123L309.679,432.275L333.581,431.427L339.291,428.205C342.431,426.433 345,425.428 345,425.973C345,427.861 331.586,441.171 327.553,443.284L323.5,445.407L329.605,446.206C337.721,447.267 343.148,449.233 344.442,451.58C345.024,452.636 345.851,453.76 346.281,454.078C346.71,454.396 346.847,456.387 346.585,458.501C345.958,463.558 342.445,466.996 337.186,467.702C333.428,468.206 333.16,468.431 334.142,470.264C338.429,478.275 324.884,494 313.697,494C311.278,494 307.919,493.519 306.233,492.931C303.793,492.081 302.512,492.201 299.962,493.52C295.965,495.587 292.267,494.973 284.084,490.884C277.729,487.708 275.807,485.251 273.078,476.811C272.221,474.159 270.707,472.43 267.693,470.657C260.098,466.189 258.176,462.635 258.038,452.807C258.012,450.984 256.035,447.837 251.915,443.062C248.569,439.183 244.527,433.645 242.933,430.755C241.34,427.865 240.028,425.815 240.018,426.201C240.008,426.586 241.401,431.311 243.113,436.701C248.804,454.613 258.5,477.702 262.389,482.603C265.91,487.041 274.309,492.307 283,495.525C289.997,498.116 291.439,498.291 304.5,498.135C312.2,498.043 320.975,497.483 324,496.892C330.674,495.587 337.145,492.009 339.947,488.075C344.489,481.696 361.072,441.535 362.618,433.168L363.296,429.5L359.531,434.5C354.452,441.245 346.859,449 345.335,449C344.652,449 342.945,448.476 341.54,447.836C339.087,446.718 339.055,446.597 340.737,444.738C341.7,443.674 345.492,441.049 349.164,438.904C352.835,436.76 357.404,433.178 359.317,430.943C361.484,428.411 362.957,427.37 363.226,428.178C363.464,428.892 364.694,425.287 365.959,420.167C368.682,409.146 368.286,402.243 364.481,394.409C360.675,386.572 359.033,385.518 350.44,385.394C343.201,385.29 338,383.419 338,380.918C338,380.348 337.563,380.152 337.029,380.482C335.508,381.422 334.552,376.036 335.998,374.677C336.964,373.769 337.369,373.83 337.773,374.943C338.06,375.737 339.368,377.459 340.679,378.769C342.861,380.952 343.59,381.096 349.334,380.481C360.018,379.337 367.294,383.825 371.056,393.88C373.897,401.471 373.769,410.244 370.538,429.5C365.775,457.889 356.583,481.417 344.641,495.784C338.681,502.954 337.718,505.932 339.027,513.148C340.408,520.763 341.731,524.284 342.933,523.541C344.592,522.516 347.855,512.442 349.406,503.557C351.18,493.395 352.075,491.909 368.285,472.219C374.547,464.612 382.959,454.014 386.977,448.668C390.995,443.323 394.475,439.142 394.711,439.378C394.947,439.613 394.216,441.616 393.088,443.827C388.642,452.543 386,462.575 386,470.743C386,475.082 385.555,481.078 385.012,484.066C384.469,487.055 383.383,495.69 382.598,503.256C381.58,513.077 380.55,518.298 378.997,521.506C376.555,526.552 374.832,527.405 375.477,523.25C375.711,521.737 376.145,515.016 376.44,508.313C376.735,501.61 377.68,491.755 378.539,486.414C380.326,475.309 379.56,473.031 375.767,478.165C371.751,483.602 364.236,498.189 360.571,507.664C354.012,524.618 341.912,551.515 339.964,553.472C338.011,555.434 338,555.424 338,551.697C338,549.636 338.9,545.389 340,542.26C343.786,531.489 342.578,531.77 328.586,544.919C318.277,554.607 312.507,557.693 306.728,556.609C304.881,556.262 299.718,553.563 295.256,550.61C288.834,546.36 285.824,545.027 280.821,544.217C265.104,541.67 256.374,537.175 244.782,525.661C235.272,516.216 229.177,507.212 216.794,484.314C203.107,459.003 201.511,455.752 198.364,446.75C196.873,442.488 195.282,439 194.827,439C194.372,439 193.89,446.538 193.755,455.75C193.277,488.423 192.986,485.623 197.894,495.523C201.553,502.903 203.895,505.984 211.899,513.943C222.414,524.4 236.799,535.858 255.911,549C262.71,553.675 274.693,562.039 282.541,567.586C298.441,578.825 305.719,582.506 310.248,581.6C315.869,580.476 325.596,574.944 341.778,563.669C361.353,550.029 373.49,539.92 378.856,532.789C388.173,520.406 393.794,506.288 394.1,494.5L394.23,489.5L395.242,493.5C399.456,510.148 390.131,531.088 371.003,547.932C363.581,554.469 338.479,572.878 326.095,580.868L319.69,585L308.095,584.966L296.5,584.932L287,577.91ZM314,549.021C314.825,548.5 315.527,547.719 315.561,547.286C315.781,544.439 319.651,538.322 324.89,532.541C331.079,525.711 332.008,524.064 329.75,523.921C328.75,523.858 328.75,523.741 329.75,523.338C330.438,523.06 331,522.141 331,521.294C331,520.197 330.641,520.042 329.75,520.754C329.062,521.304 325.8,522.065 322.5,522.447C319.2,522.829 314.89,523.961 312.923,524.964C310.636,526.13 305.768,527.055 299.423,527.53C290.224,528.219 278.709,530.67 283.584,530.901C285.82,531.007 295.582,537.413 300.5,542.002C303.69,544.978 310.869,550.01 311.89,549.985C312.225,549.976 313.175,549.543 314,549.021ZM222,441.527C222,441.266 221.098,439.129 219.996,436.777C218.894,434.425 216.452,425.223 214.569,416.329C212.391,406.037 209.85,397.208 207.58,392.045C205.618,387.583 203.729,382.156 203.381,379.984C203.034,377.813 202.408,376.248 201.99,376.506C200.45,377.458 200.047,385.855 200.905,399.1C201.667,410.862 202.114,413.227 204.216,416.6C205.552,418.745 206.952,421.4 207.325,422.5C207.938,424.306 207.818,424.281 206.092,422.25C202.921,418.52 202.713,419.701 205.604,425.013C208.845,430.968 218.573,442 220.584,442C221.363,442 222,441.787 222,441.527ZM310.973,440.394C313.181,439.511 314.738,438.386 314.434,437.894C313.781,436.836 290.661,436.673 289.615,437.718C288.731,438.602 299.299,441.72 303.73,441.882C305.506,441.947 308.766,441.277 310.973,440.394ZM232.997,434.25C232.995,433.837 231.608,427.875 229.915,421C228.222,414.125 225.084,400.201 222.941,390.058C220.468,378.357 218.058,369.667 216.347,366.285C212.148,357.986 210.77,357.725 213.087,365.666C214.183,369.425 216.659,379.475 218.589,388C224.074,412.227 229.152,431.819 230.519,434.031C231.225,435.174 233.001,435.331 232.997,434.25ZM242.574,409.25C243.424,405.808 243.841,405.454 247.65,404.946C250.593,404.553 252.525,403.536 254.297,401.446C255.67,399.826 257.74,397.419 258.897,396.097C260.841,393.876 261.605,392 260.565,392C260.326,392 258.964,392.444 257.538,392.986C255.154,393.892 255.03,393.813 255.997,392.005C256.576,390.923 258.718,388.905 260.757,387.519L264.464,385L260.982,384.919L257.5,384.838L261.491,382.981C263.686,381.959 266.237,380.191 267.159,379.051C268.631,377.234 269.016,377.159 270.299,378.442C271.104,379.247 271.976,379.69 272.238,379.428C272.501,379.166 273.28,379.632 273.97,380.464C275.016,381.724 274.661,382.518 271.838,385.238C269.976,387.032 267.596,388.978 266.551,389.562C265.383,390.214 264.947,391.105 265.42,391.87C266.361,393.393 270.312,392.645 275.614,389.942C277.709,388.874 280.565,387.997 281.961,387.994C284.483,387.988 284.48,387.977 281.5,386.431C277.282,384.243 276.42,383.166 279.332,383.723C281.175,384.075 281.911,383.721 282.187,382.349C282.452,381.031 280.459,378.835 275.242,374.7C270.408,370.868 267.217,367.442 265.838,364.604L263.752,360.309L266.302,349.405C267.705,343.407 269.163,336.064 269.543,333.087C270.105,328.675 270.946,326.917 274.091,323.587L277.95,319.5L277.975,324.713C277.989,327.58 277.162,332.08 276.138,334.713C274.553,338.788 272.906,346.413 271.588,355.774C271.412,357.024 271.658,358.289 272.134,358.583C272.61,358.877 273,358.003 273,356.641C273,352.949 274.009,351 275.918,351C278.851,351 281.839,347.255 282.518,342.73C282.987,339.6 282.594,336.794 281.082,332.494C278.654,325.585 278.572,324.857 280.25,325.075C282.882,325.416 284.091,324.957 283.42,323.87C282.996,323.185 283.268,322.922 284.111,323.203C284.875,323.457 285.784,324.978 286.132,326.582C287.07,330.917 287.222,328.52 287.47,305.5L287.697,284.5L285.411,293.773C282.603,305.165 279.556,311.923 274.184,318.68C265.76,329.273 257.285,332.9 235,335.448C219.32,337.241 211.514,339.219 210.587,341.633C208.949,345.904 212.019,353.716 215.7,354.64C216.98,354.961 220.075,358.044 222.682,361.593C225.257,365.1 227.524,367.81 227.719,367.614C228.343,366.99 225.695,361.674 221.934,356C218.299,350.515 215,344.592 215,343.55C215,343.247 215.787,343.011 216.75,343.024C217.838,343.038 219.358,344.834 220.769,347.774C222.017,350.373 224.201,354.437 225.624,356.804C229.295,362.915 230.975,370.191 230.981,380C230.986,388.714 234.469,407 236.123,407C236.605,407 237,407.527 237,408.171C237,409.46 239.916,413 240.979,413C241.346,413 242.064,411.312 242.574,409.25ZM391.417,411.25C392.271,408.543 394.078,389.745 393.537,389.204C392.247,387.914 389.14,402.77 389.031,410.75C388.994,413.412 390.627,413.754 391.417,411.25ZM315,407.375C325.687,405.321 327.369,404.696 323.42,404.248C321.726,404.056 317.068,404.806 313.068,405.914C306.328,407.782 305.346,407.823 299.648,406.479C296.267,405.682 291.7,405.08 289.5,405.142C286.087,405.237 286.381,405.381 291.5,406.119C294.8,406.595 299.075,407.392 301,407.89C305.937,409.167 305.618,409.179 315,407.375ZM399.523,342.75C400.076,337.183 399.974,335 399.159,335C398.534,335 398.09,334.212 398.17,333.25C398.751,326.315 396.703,323.754 395.753,330.228C395.424,332.47 395.769,333.842 396.863,334.642C398.292,335.686 398.178,336.608 395.717,343.897L392.985,351.991L395.242,359.71L397.5,367.428L398.126,358.964C398.471,354.309 399.1,347.012 399.523,342.75ZM251.312,327.522C263.301,324.982 272.333,319.128 276.934,310.917L279.368,306.573L273.431,312.64C266.522,319.701 262.238,322.102 252.231,324.522C243.036,326.745 230.947,326.135 222.753,323.034C214.969,320.088 206.895,312.572 203.026,304.672C201.364,301.277 198.622,292.875 196.933,286C195.243,279.125 193.437,271.854 192.918,269.841C192.241,267.215 190.955,265.581 188.361,264.051C183.84,261.383 182.85,262.168 186.202,265.76C189.261,269.038 190.567,272.985 191.908,283C194.266,300.621 199.597,315.37 205.87,321.633C208.59,324.348 210.306,324.988 218.754,326.439C224.114,327.359 229.175,328.26 230,328.44C233.947,329.303 245.196,328.818 251.312,327.522ZM251.201,321.876C257.542,320.53 264.451,317.134 268.33,313.455C272.532,309.47 279.388,298.263 281.457,292C282.456,288.975 283.646,285.6 284.102,284.5C284.985,282.369 287.428,272.514 288.329,267.445C288.807,264.754 288.514,264.255 285.863,263.254C283.286,262.282 283.024,262.324 284.042,263.55C285.383,265.167 284.456,274.096 282.842,275.096C282.313,275.424 281.217,279.699 280.406,284.596C278.464,296.328 276.687,300.195 271.754,303.424C266.621,306.785 265.029,306.308 268.321,302.395C269.723,300.729 271.174,298.154 271.546,296.673C271.917,295.193 272.622,293.734 273.111,293.432C273.6,293.129 274,291.709 274,290.274C274,288.84 273.719,287.948 273.376,288.291C273.033,288.634 271.977,287.958 271.031,286.789C268.731,283.95 262.75,284.195 251.235,287.602C240.826,290.681 228.607,291.223 219.165,289.025C212.285,287.423 211.394,286.512 210.049,279.703C209.385,276.34 209.206,277.598 209.153,286C209.079,297.923 210.132,301.843 215.106,308.157L218.5,312.465L215.195,310.125C208.679,305.512 204.832,297.147 202.467,282.454C200.912,272.791 201.646,264.519 204.557,258.889C206.222,255.671 211.597,251 213.636,251C214.451,251 214.866,250.592 214.558,250.094C214.25,249.596 212.986,249.432 211.749,249.732C207.759,250.696 203.263,254.826 200.909,259.687C196.933,267.901 198.217,284.95 203.96,300.202C207.825,310.465 218.006,319.383 228.746,321.914C234.179,323.195 245.072,323.176 251.201,321.876ZM386.157,320.075C392.693,317.592 398.496,311.902 402.452,304.096C405.739,297.608 409.714,281.239 410.573,270.651C411.214,262.755 411.137,262.316 408.578,259.275C405.398,255.496 397.663,252.388 386.569,250.429C382.206,249.66 378.488,249.178 378.307,249.36C377.812,249.855 389.755,254.765 395.75,256.531C400.457,257.918 402.894,260 399.809,260C399.14,260 399.348,260.548 400.283,261.25C403.857,263.934 407.367,280.809 405.146,284.632C404.151,286.344 404.058,286.296 404.03,284.05C403.971,279.233 402.244,283.596 400.488,293C398.305,304.688 396.148,309.156 390.823,313.013C386.22,316.347 381.88,317.286 385.658,314.131C388.338,311.893 393.541,303.384 394.351,299.915C394.683,298.494 394.504,295.794 393.954,293.915C393.015,290.715 393.174,290.311 396.476,287.5C398.414,285.85 400,284.225 400,283.888C400,282.633 384.239,281.91 371.722,282.59C361.876,283.126 359.221,283.547 360.637,284.347C362.898,285.625 377.253,285.811 385.5,284.67L391.5,283.839L388.149,285.966C383.297,289.046 373.451,291.334 368.165,290.609C365.724,290.275 360.076,288.843 355.614,287.427C349.141,285.373 346.415,284.986 342.138,285.512C335.904,286.279 335.456,284.806 340.948,281.598C343.716,279.982 346.387,279.658 357.867,279.549C368.786,279.445 372.157,279.068 374.799,277.658C378.031,275.934 378.21,275.949 383.67,278.449C391.127,281.863 391.662,281.633 385.125,277.823C382.158,276.094 378.866,273.192 377.776,271.345C375.75,267.911 374,266.975 374,269.326C374,270.055 372.839,271.742 371.419,273.076C369.002,275.346 368.1,275.504 357.169,275.563C347.205,275.616 344.887,275.944 341.304,277.806C338.996,279.005 336.647,280.777 336.084,281.743C335.286,283.114 335.057,283.17 335.046,282C335.025,279.976 335.977,278.787 339.32,276.658C344.853,273.135 349.444,272.071 354.062,273.244C359.094,274.521 365.578,273.149 370.256,269.817C373.018,267.851 373.095,267.631 371.362,266.641C370.338,266.056 368.905,265.483 368.177,265.367C367.449,265.25 363.795,264.609 360.057,263.941L353.26,262.726L345.38,266.978C341.046,269.316 336.938,271.683 336.25,272.237C333.677,274.311 335.104,271.273 338.181,268.126C342.487,263.722 348.617,260.366 353.742,259.607C361.147,258.511 382,264.095 382,267.174C382,269.308 390.047,276.522 395.225,279.031L401.011,281.834L396.783,275.806C387.671,262.816 379.036,258.079 363,257.273C351.289,256.685 344.641,258.82 337.115,265.586C330.736,271.322 329.658,274.649 330.221,286.855C331.098,305.855 339.358,316.465 357,321.25C365.559,323.571 378.303,323.058 386.157,320.075ZM275.253,281.656C274.562,280.139 272.126,278.414 268.624,276.963C265.579,275.701 263.306,274.314 263.573,273.882C263.84,273.45 266.108,273.975 268.612,275.048C271.117,276.122 273.388,277 273.66,277C274.721,277 268.345,272.355 265.73,271.224C264.207,270.564 261.301,268.219 259.272,266.013C257.242,263.806 254.889,262.036 254.041,262.079C253.012,262.132 252.915,262.325 253.75,262.662C255.779,263.481 255.181,269.437 252.7,273.102C250.119,276.915 249.962,276.934 232.5,275.541C225.903,275.014 222.05,275.205 218.068,276.258L212.636,277.693L225.068,278.282C231.906,278.605 240.17,279.59 243.434,280.47C248.794,281.916 249.738,281.922 253.204,280.535C260.767,277.509 272.541,279.527 273.724,284.053C274.1,285.491 274.588,285.812 275.307,285.093C276.025,284.375 276.009,283.315 275.253,281.656ZM331.483,261.027C334.636,256.033 338.289,253.714 347.34,250.965C351.692,249.644 353.911,248.511 353.317,247.917C352.117,246.717 338.358,250.064 334.737,252.436C328.544,256.494 324,265.865 324,274.577C324,282.902 325.294,282.549 327.118,273.727C328.137,268.796 330,263.377 331.483,261.027ZM248.686,272.826C251.813,269.888 251.623,268.362 248.393,270.478C246.558,271.68 244.113,272.114 240.143,271.94C231.527,271.564 229.958,272.098 235.5,273.523C242.969,275.443 246.075,275.278 248.686,272.826ZM221.427,268.203C231.539,261.755 234.936,260.751 247.078,260.617C257.401,260.503 257.746,260.572 261.44,263.5C263.522,265.15 266.187,267.154 267.362,267.954C269.192,269.199 269.142,269.01 267.022,266.647C265.659,265.129 262.059,262.449 259.022,260.693C253.87,257.714 252.864,257.5 244,257.5C235.602,257.5 233.833,257.827 228.753,260.322C222.626,263.331 212,271.444 212,273.114C212,274.234 211.823,274.326 221.427,268.203ZM214.613,265.453C220.085,259.982 234.117,253.68 243,252.704C245.435,252.437 244.82,252.271 240.98,252.16C234.183,251.963 221.81,255.252 216.671,258.622C212.565,261.314 209.916,266.218 210.136,270.718C210.255,273.138 210.329,273.202 210.711,271.208C210.953,269.948 212.708,267.358 214.613,265.453ZM246.202,266.671C248.787,265.989 251.225,265.108 251.618,264.715C252.764,263.57 240.611,263.891 237.149,265.098C229.582,267.736 237.17,269.054 246.202,266.671ZM170.955,237.415C171.883,231.179 173.294,226.734 176.112,221.165C178.246,216.949 180.032,213.95 180.082,214.5C180.131,215.05 180.567,214.177 181.05,212.56C181.57,210.82 181.554,209.167 181.01,208.512C180.505,207.904 179.984,199.552 179.853,189.953L179.615,172.5L184.273,160.272C186.836,153.547 189.769,146.312 190.792,144.194C192.65,140.348 192.65,140.344 190.544,140.747C187.811,141.269 184.557,146.095 180.932,155.003C179.333,158.932 176.23,164.705 174.037,167.831C168.712,175.423 167.191,180.95 166.01,197C164.395,218.967 164.688,236.721 166.75,241.736C167.713,244.077 168.765,245.994 169.089,245.996C169.413,245.998 170.253,242.137 170.955,237.415ZM205.898,217.25C210.882,214.4 211.338,211.993 210.1,195.031C207.842,164.086 208.726,156.239 216.304,140C221.561,128.736 234.02,111.332 237.28,110.702C238.633,110.44 238.049,110.219 235.785,110.136C232.967,110.033 231.248,110.721 228.67,112.985C224.5,116.646 216.33,128.364 212.15,136.677C207.844,145.243 206.644,145.412 210.08,136.968C213.379,128.861 216.976,123.425 223.457,116.75C228.795,111.253 228.052,110.553 221.877,115.263C215.845,119.864 209.728,127.713 208.054,133C207.177,135.77 204.629,139.638 201.425,143.06C198.562,146.118 194.848,151.339 193.171,154.661C189.483,161.968 185.741,172.772 186.484,173.973C186.78,174.453 187.469,177.203 188.016,180.084C188.884,184.663 188.694,186.237 186.505,192.579C183.664,200.81 183.299,203.947 185.7,199.5C186.59,197.85 190.172,192.758 193.66,188.185C197.147,183.611 200.067,179.111 200.148,178.185C200.229,177.258 200.342,172.45 200.398,167.5C200.472,160.973 200.941,157.877 202.106,156.233C203.613,154.105 203.721,154.87 203.847,168.625C204.014,186.677 202.263,193.075 194.848,201.52C193.135,203.471 192.019,205.352 192.367,205.7C192.715,206.048 193,205.848 193,205.255C193,204.662 193.773,204.29 194.717,204.429C197.293,204.807 201.196,212.829 200.452,216.217C199.717,219.565 201.318,219.869 205.898,217.25ZM194.93,133.75C192.606,131.963 189.922,129.028 188.967,127.23C187.538,124.54 187.112,124.265 186.569,125.68C185.679,127.999 188.76,131.969 193.594,134.734C199.22,137.951 199.818,137.51 194.93,133.75ZM297,101.828L302.5,100.5L288,99.9974C270.446,99.3889 268.044,98.4399 264.434,90.6849C261.248,83.8428 261.279,77.0018 264.538,67.2912C265.934,63.1324 266.924,59.2733 266.738,58.7154C266.214,57.1428 260.311,67.0176 259.096,71.5C255.581,84.4635 262.024,99.2547 272.704,102.738C277.172,104.195 289.036,103.751 297,101.828ZM346,98.4715C346,98.1808 344.663,95.2948 343.029,92.0581C338.853,83.7839 335.704,70.9583 335.601,61.7934C335.493,52.3404 333.941,53.0875 333.237,62.9311C332.634,71.3525 334.692,81.0497 339.348,91.7309C341.523,96.7207 343.042,98.9678 344.25,98.9809C345.212,98.9914 346,98.7622 346,98.4715ZM292.479,85.7423C287.324,80.5876 284.587,72.9269 286.062,67.7838C286.578,65.985 287,63.6676 287,62.6342C287,59.4269 284.162,62.6848 282.912,67.327C281.09,74.0925 284.849,83.1634 291.403,87.8197C296.452,91.4071 297.03,90.2929 292.479,85.7423ZM317.984,71.4719C317.415,68.9752 317.468,64.9642 318.128,60.6724C318.706,56.9172 318.95,53.6162 318.67,53.3367C317.299,51.9653 315.54,58.2382 315.54,64.5C315.54,68.4201 316.117,72.5277 316.851,73.8356C318.653,77.0449 319.06,76.1939 317.984,71.4719ZM351.714,53.5733C352.932,52.0593 355.615,49.961 357.676,48.9103L361.423,47L358.346,47C354.469,47 350.515,50.0702 347.972,55.0547C345.48,59.9389 345.317,63.8855 347.792,59.413C348.731,57.7151 350.497,55.0873 351.714,53.5733ZM384.305,582.943C384.77,581.164 384.628,581.062 383.258,582.193C381.844,583.359 381.739,583.069 382.287,579.5C382.625,577.3 383.217,570.373 383.602,564.107L384.303,552.713L378.901,556.684C372.38,561.479 364.07,566.403 363.486,565.819C363.252,565.586 367.286,561.73 372.449,557.252C377.612,552.773 384.46,545.972 387.668,542.137C390.875,538.303 393.599,535.266 393.722,535.389C393.844,535.511 393.057,538.286 391.972,541.556C389.803,548.089 386.315,570.888 386.816,575.25C387.094,577.658 387.562,578 390.588,578C393.404,578 395.039,577.03 399.435,572.75C407.032,565.354 408.515,560.131 408.452,541C408.42,531.209 407.807,523.415 406.565,517C405.553,511.775 404.56,505.925 404.358,504C403.992,500.502 403.992,500.503 405.356,504.635C406.107,506.91 408.086,510.51 409.755,512.635C411.424,514.761 413.341,518.3 414.015,520.5C414.69,522.7 415.815,526.075 416.516,528C418.56,533.615 433.224,564.819 438.766,575.345L443.849,585L431.569,585L419.289,585L418.688,578.75C418.358,575.312 417.428,570.475 416.621,568C415.815,565.525 414.867,561.767 414.513,559.648C414.16,557.529 413.696,555.971 413.482,556.185C413.268,556.398 412.161,561.957 411.021,568.537C408.101,585.391 408.221,585 405.981,585C403.611,585 403.587,584.691 405.463,578.456C406.268,575.781 406.798,573.465 406.641,573.308C406.485,573.151 404.139,575.714 401.428,579.004L396.5,584.986L390.133,584.993C384.199,585 383.803,584.86 384.305,582.943ZM461.798,577.642C455.917,565.757 451.464,559.516 441.147,548.697C429.481,536.464 417.582,522.084 418.427,521.24C418.762,520.905 424.54,526.262 431.268,533.144C444.116,546.288 449.157,549.637 467.878,557.466C474.576,560.267 525.198,583.945 525.917,584.613C526.146,584.826 512.632,585 495.886,585L465.439,585L461.798,577.642ZM508.48,583.032C509.124,581.99 501.457,577.896 485.063,570.528C466.108,562.009 473.446,567.949 494.5,578.167C507.398,584.427 507.579,584.49 508.48,583.032ZM193.941,579.28C188.365,572.93 181.06,554.206 179.516,542.307C178.727,536.228 179.954,537.971 183.598,548.108C185.06,552.174 189.123,561.231 192.628,568.236C196.133,575.24 199,581.428 199,581.986C199,583.941 197.178,582.967 193.941,579.28ZM207.219,533.017C199.317,527.468 190.328,517.594 184.613,508.186C180.604,501.586 177,492.458 177,488.903C177,487.107 177.246,486.959 178.5,488C179.325,488.685 180,489.663 180,490.175C180,490.686 182.588,495.688 185.75,501.291C190.49,509.688 193.766,513.808 204.398,524.739C211.491,532.032 216.624,538 215.804,538C214.984,538 211.121,535.758 207.219,533.017ZM333.117,396.059C325.969,393.482 323.278,392.107 324.479,391.646C325.71,391.174 325.933,390.611 325.235,389.738C324.69,389.057 323.915,387.426 323.512,386.114C322.84,383.926 322.998,383.783 325.415,384.389C327.985,385.034 328.964,385.709 334.408,390.59C337.772,393.606 340.188,394.89 342.591,394.938C345.833,395.003 352,396.19 352,396.749C352,398.005 348.297,399.931 346,399.869C344.625,399.832 338.828,398.118 333.117,396.059ZM185.684,363.376C184.066,361.213 183.356,361.017 179.167,361.572C171.188,362.631 168.571,360.853 162.857,350.491C151.515,329.926 143.482,309.05 138.426,287C134.963,271.899 135.422,266 140.059,266C142.528,266 158.825,281.429 160.488,285.341C161.655,288.086 161.717,287.982 162.315,282.258C163.038,275.346 163.857,272.793 165.105,273.565C165.597,273.869 166,273.529 166,272.809C166,271.916 164.491,271.496 161.25,271.487C157.4,271.476 155.484,270.765 151.138,267.737C146.068,264.204 143.921,263.473 139.692,263.84C138.594,263.935 138.154,263.559 138.572,262.883C139.892,260.747 147.833,262.606 153.519,266.381C156.516,268.371 159.596,270 160.362,270C163.957,270 165.926,263.343 163.449,259.563C160.861,255.612 162.282,255.442 168.441,258.966C173.515,261.869 174.496,262.967 174.101,265.302C172.359,275.599 172.071,282.227 172.895,293.056C173.686,303.454 174.583,307.81 178.351,319.552C181.92,330.676 183.094,336.147 183.982,345.805C184.599,352.516 185.782,359.628 186.611,361.611C188.442,365.993 188.112,366.622 185.684,363.376ZM166.67,342.416C167.005,341.545 168.216,340.486 169.362,340.062C171.369,339.319 171.331,339.177 168.299,336.146C166.4,334.246 164.133,333 162.577,333C159.598,333 159.607,333.025 161.236,329.315C161.916,327.767 162.488,323.8 162.506,320.5C162.524,317.2 162.934,311.803 163.415,308.507C164.22,303.004 164.157,302.625 162.646,303.879C161.741,304.63 160.993,305.977 160.985,306.872C160.972,308.179 160.798,308.23 160.102,307.13C159.401,306.024 159.022,306.12 158.135,307.63C156.487,310.436 155.034,307.649 155.015,301.643C155.003,297.733 155.292,296.898 156.5,297.362C157.325,297.678 158,297.501 158,296.969C158,296.436 157.339,296 156.531,296C155.724,296 155.269,295.438 155.521,294.75C155.99,293.472 146.224,279.443 145.423,280.244C145.18,280.487 145.885,285.081 146.99,290.453C148.096,295.825 149,302.444 149,305.163C149,311.271 151.617,323.117 153.521,325.632C154.342,326.716 154.95,326.975 154.968,326.25C155.025,324.003 156.998,324.939 157.076,327.25C157.193,330.702 159.629,336.529 160.844,336.262C161.44,336.131 162.465,337.819 163.122,340.012C164.378,344.204 165.653,345.068 166.67,342.416ZM174.62,323.781C172.692,315.926 170.596,306.864 169.964,303.643C169.331,300.422 168.481,298.172 168.073,298.643C166.712,300.218 168.427,323.269 170.146,326.5C175.018,335.659 176,337.77 176.662,340.5L177.389,343.5L177.758,340.781C177.961,339.285 176.549,331.635 174.62,323.781ZM170,269.968C170,266.462 167.755,260.585 166.002,259.501C165.077,258.93 165.063,259.25 165.943,260.893C166.603,262.126 166.808,264.506 166.429,266.525C166.014,268.739 166.227,270.568 167.009,271.511C168.933,273.83 170,273.279 170,269.968ZM416.25,360.969C414.437,360.24 414,359.28 414,356.022C414,351.171 417.126,336.778 419.957,328.593C421.081,325.345 422,321.871 422,320.875C422,319.675 422.507,319.257 423.5,319.638C425.513,320.411 425.389,322.781 423.004,329.161C420.848,334.929 418.303,350.786 418.816,355.25C419.062,357.386 419.661,358 421.499,358C422.992,358 424.101,357.257 424.504,355.988C425.405,353.15 425.443,344.113 424.57,340.238C423.984,337.634 424.507,335.577 427.168,330.025C429.001,326.201 431.023,323.252 431.661,323.471C432.868,323.885 432.39,321.491 430.107,315.685C428.258,310.982 428.827,306.668 432.872,294.752C437.278,281.775 438.012,280.204 440.884,277.605C442.022,276.575 442.731,275.374 442.46,274.935C442.188,274.496 442.987,273.389 444.233,272.476C446.254,270.995 446.283,270.874 444.5,271.36C435.65,273.772 432.711,273.276 430.497,268.995C429.651,267.358 427.84,265.286 426.474,264.391C424.357,263.004 423.743,262.965 422.32,264.132C420.874,265.317 420.89,265.132 422.44,262.75C423.425,261.238 424.516,260.015 424.865,260.033C426.88,260.139 433.513,265.926 434.019,268.021C434.66,270.674 434.353,270.637 445.167,269.366C449.396,268.87 449.997,269.065 451.558,271.448C453.019,273.678 453.176,275.478 452.592,283.289C451.9,292.537 449.273,304.742 446.616,311.063L445.19,314.452L444.386,309.476C443.012,300.978 443.327,281.813 444.886,279L446.271,276.5L443.618,278.941C440.657,281.665 438.414,288.16 437.46,296.773C436.961,301.275 437.245,303.473 438.791,307.048C441.861,314.153 442.297,318.907 440.565,326.375C438.851,333.766 435.932,340.254 435.242,338.208C434.885,337.153 434.517,337.153 433.228,338.208C431.992,339.221 432.038,338.905 433.44,336.75C435.588,333.45 434.475,333.249 430.878,336.286C426.897,339.649 425.684,342.541 427.127,345.237C428.802,348.367 428.795,358.338 427.116,360.36C425.628,362.153 419.983,362.469 416.25,360.969ZM426.495,295C426.762,291.975 427.058,284.456 427.151,278.29C427.319,267.205 428.127,265.046 429.774,271.286C430.985,275.873 429.576,292.844 427.639,297L426.008,300.5L426.495,295ZM429.5,250.951C427.85,249.831 425.038,248.282 423.25,247.508C421.462,246.735 420,245.603 420,244.992C420,244.381 420.45,244.16 421,244.5C421.55,244.84 422,244.641 422,244.059C422,242.839 425.666,242.603 426.167,243.791C426.35,244.227 428.188,245.855 430.25,247.41C432.312,248.965 434,250.859 434,251.619C434,253.493 433.035,253.35 429.5,250.951ZM309.555,246.277C313.41,245.923 313.669,245.685 314.79,241.495C315.438,239.071 316.781,236.652 317.774,236.121C319.466,235.216 319.517,235.525 318.599,241.078L317.619,247L311.56,246.825C306.951,246.692 306.471,246.561 309.555,246.277ZM428.533,242.148C428.156,240.433 427.995,235.197 428.174,230.511C428.446,223.411 428.708,222.275 429.75,223.687C430.524,224.737 430.994,228.642 430.985,233.941C430.968,243.268 429.706,247.492 428.533,242.148ZM401,240.326C395.196,235.929 387.935,228.674 386.379,225.717C385.574,224.187 384.528,223.174 384.055,223.466C383.582,223.758 382.727,222.656 382.155,221.016C381.584,219.376 378.39,214.453 375.058,210.076C371.726,205.699 369,201.834 369,201.488C369,200.571 371.716,197.999 372.679,198.004C373.13,198.006 375.432,200.031 377.794,202.504C380.156,204.977 382.938,207 383.976,207C386.466,207 389.115,210.934 392.393,219.5C396.72,230.808 397.954,233.167 402.179,238.213C406.655,243.56 406.244,244.299 401,240.326ZM436.741,223C437.03,213.925 437.432,206.313 437.633,206.083C438.323,205.3 437.804,228.49 437.009,234C436.535,237.283 436.427,232.85 436.741,223ZM400.798,227.75C400.011,226.512 398.281,222.8 396.955,219.5C394.924,214.446 394.619,212.317 395.022,206C395.285,201.875 395.5,192.616 395.5,185.425C395.5,170.819 396.579,173.787 385.709,158.5C383.337,155.164 379.987,148.425 378.164,143.321C374.284,132.456 370.315,126.576 365.505,124.567C363.577,123.761 362,122.659 362,122.118C362,121.577 361.016,120.822 359.813,120.441C357.702,119.77 357.691,119.699 359.504,118.373C362.44,116.227 366.825,116.749 371.07,119.75C375.64,122.981 380.718,132.056 383.852,142.593C385.869,149.374 393.693,162.89 397.328,165.872C399.995,168.061 399.311,166.272 394.562,158.636C390.22,151.655 387.589,146.078 388.301,145.366C388.85,144.817 397.779,159.241 399.926,164.144C402.783,170.672 403.582,187.943 401.583,200C399.5,212.566 399.592,217.904 401.999,224.239C404.32,230.343 404.253,230 403.115,230C402.628,230 401.586,228.988 400.798,227.75ZM304.018,213.938C296.901,212.985 286.675,209.518 284.989,207.486C283.718,205.956 288.586,206.856 296,209.524C298.475,210.414 303.65,211.391 307.5,211.693C313.557,212.17 315.338,211.891 320.72,209.622C326.638,207.127 332.498,206.046 330.45,207.826C328.578,209.453 317.432,213.858 314,214.327C312.075,214.59 307.583,214.415 304.018,213.938ZM226.275,205.812C226.613,204.884 227.376,201.44 227.971,198.158C229.073,192.081 228.935,190.974 225.543,178.778C224.668,175.631 223.538,169.781 223.033,165.778C222.265,159.701 222.378,158.094 223.719,156.038C225.29,153.628 225.38,153.818 227.987,165.038C229.452,171.342 231.381,178.188 232.275,180.251C233.168,182.315 234.172,186.671 234.506,189.932C235.035,195.1 234.801,196.352 232.686,199.681C229.809,204.209 225.283,208.537 226.275,205.812ZM410.006,199.309C410.018,191.496 411.319,179.079 412.076,179.547C413.644,180.516 414.264,191.24 413.063,196.609C411.61,203.104 409.998,204.527 410.006,199.309ZM421,167.789C410.347,144.801 395.392,121.597 381.351,106.268C379.508,104.256 378,102.325 378,101.977C378,100.965 389.711,90 390.792,90C391.332,90 391.971,91.35 392.213,93C392.514,95.0472 392.232,96 391.327,96C390.597,96 390,96.2389 390,96.531C390,97.5893 404.264,117.66 409.522,124C416.922,132.923 419.725,138.936 420.943,148.5C421.504,152.9 423.336,160.709 425.015,165.854C427.788,174.355 429.852,184.02 428.886,183.987C428.674,183.979 425.125,176.69 421,167.789ZM243.323,179.501C240.628,176.615 238.301,154.134 240.613,153.318C241.225,153.101 242.219,154.179 242.821,155.712C244.199,159.224 248,175.552 248,177.962C248,180.142 244.88,181.168 243.323,179.501ZM432.671,158C432.902,152.225 433.035,143.765 432.966,139.199C432.896,134.634 433.315,130.325 433.896,129.625C434.617,128.757 434.649,126.488 433.998,122.488C433.473,119.262 433.248,116.419 433.498,116.168C434.087,115.58 434.738,117.622 435.36,122C435.634,123.925 436.17,126.753 436.552,128.285C437.048,130.273 436.747,131.623 435.5,133C434.253,134.377 433.952,135.727 434.448,137.715C436.03,144.058 436.129,146.884 434.846,149.136C434.106,150.436 433.219,155.325 432.875,160C432.349,167.148 432.317,166.83 432.671,158ZM396.784,153.245C392.108,147.112 384.608,130.992 385.853,129.747C386.408,129.192 387.827,130.218 389.453,132.35C392.395,136.206 401.281,155.657 400.783,157.15C400.613,157.662 398.813,155.905 396.784,153.245ZM238.122,397.412C238.242,393.611 237.954,389.6 237.483,388.5C236.72,386.72 236.81,386.65 238.307,387.868C239.232,388.62 240.884,389.002 241.977,388.716C243.574,388.299 243.795,388.521 243.098,389.848C242.621,390.757 241.914,393.84 241.528,396.7C241.142,399.56 240.169,402.445 239.365,403.112C238.105,404.158 237.934,403.376 238.122,397.412ZM350.575,268.614L347.651,267.257L349.903,266.052C352.879,264.459 357.145,264.433 364.75,265.959C370.786,267.171 372.868,268.438 369.25,268.697C368.288,268.766 364.35,269.08 360.5,269.396C355.638,269.795 352.607,269.556 350.575,268.614Z" fill="#000000"/>
</g>
</svg>
