<?xml version='1.0' encoding='utf-8'?>
<!-- Generator: imaengine 6.0   -->
<svg xmlns:xlink="http://www.w3.org/1999/xlink" xmlns="http://www.w3.org/2000/svg" viewBox="0,0,1400,1400" style="enable-background:new 0 0 1400 1400;" version="1.1">
<defs/>
<g id="layer0">
<path d="M32.0352,1396.07C30.4242,1393.06 30.7539,1369.37 32.5,1362.66C33.325,1359.49 34,1354.93 34,1352.52C34,1350.1 34.5153,1346.86 35.145,1345.32C35.7748,1343.77 36.6418,1340.47 37.0717,1338C37.5016,1335.53 38.3818,1331.47 39.0276,1329C39.6734,1326.53 40.6338,1322.7 41.1617,1320.5C41.6896,1318.3 42.7436,1314.25 43.5039,1311.5C44.2641,1308.75 45.3801,1304.47 45.9838,1302C46.5874,1299.53 48.2311,1293 49.6364,1287.5C57.3603,1257.27 58.1764,1251.32 59.0308,1219C59.5395,1199.76 60.2464,1189.25 61.3853,1184C62.2804,1179.88 63.4229,1174.25 63.9241,1171.5C64.4253,1168.75 65.3224,1165.23 65.9177,1163.68C66.513,1162.14 67.0107,1159.21 67.0237,1157.18C67.0368,1155.16 68.1597,1150.8 69.5191,1147.5C70.8785,1144.2 71.9928,1141.11 71.9954,1140.63C71.9979,1140.14 73.0753,1137.22 74.3896,1134.13C75.7039,1131.03 78.2124,1124.73 79.9642,1120.11C81.7159,1115.5 85.0774,1107.62 87.4342,1102.61C89.7909,1097.6 92.3095,1091.92 93.0311,1090C96.5397,1080.64 106.966,1063 108.989,1063C109.461,1063 111.142,1061.91 112.726,1060.58C116.17,1057.68 126.586,1054 131.346,1054C133.222,1054 136.371,1054.67 138.346,1055.5C141.042,1056.63 146.021,1057 158.345,1057C171.712,1057 174.986,1057.28 176,1058.5C176.685,1059.33 177.077,1060.03 176.872,1060.06C176.668,1060.09 170.703,1060.95 163.618,1061.96C150.873,1063.8 150.656,1063.87 143.118,1069.07C138.928,1071.95 134.696,1075 133.714,1075.85C132.037,1077.28 128,1085.24 128,1087.1C128,1089.18 133.651,1091.32 141.267,1092.11C145.795,1092.58 150.562,1093.18 151.861,1093.45C153.16,1093.71 161.71,1094.06 170.861,1094.21C188.108,1094.51 189.06,1094.37 204,1089.3C206.475,1088.46 210.39,1087.39 212.7,1086.93C215.011,1086.46 217.711,1085.64 218.7,1085.11C219.69,1084.58 222.975,1083.4 226,1082.49C229.025,1081.58 233.975,1079.46 237,1077.78C240.025,1076.1 245.321,1073.24 248.77,1071.42C252.218,1069.6 257.079,1066.74 259.571,1065.06C262.064,1063.37 265.318,1061.35 266.802,1060.56C268.286,1059.77 270.807,1057.97 272.406,1056.56C274.004,1055.15 275.69,1054 276.153,1054C276.616,1054 278.683,1052.51 280.747,1050.69C282.811,1048.86 286.525,1046.15 289,1044.66C293.079,1042.2 298.607,1038.16 319.615,1022.3C323.402,1019.44 328.75,1015.91 331.5,1014.46C342.641,1008.56 351.89,1003.87 359,1000.53C367.535,996.519 369.836,995.147 383.907,985.674C389.483,981.92 394.504,979.001 395.063,979.188C396.356,979.619 387.635,992.087 378.368,1003.06C361.4,1023.14 353.582,1044.75 360.411,1052.69L362.822,1055.49L366.661,1053.31C368.773,1052.11 375.9,1046.83 382.5,1041.58C389.1,1036.33 398.08,1029.21 402.456,1025.76C416.996,1014.32 425.348,1001.54 433.02,979C437.706,965.237 438.874,962.678 446.487,949.5C449.346,944.55 454.223,936.111 457.325,930.746C460.426,925.381 463.246,919.868 463.59,918.496C464.64,914.314 461.854,915.53 457.282,921.25C445.036,936.571 400,976.49 400,972.023C400,971.46 399.332,971 398.515,971C395.843,971 368.578,980.616 362.848,983.579C361.179,984.442 359.586,984.919 359.307,984.64C358.469,983.802 370.825,978.471 381.5,975.064C387,973.309 396.976,969.163 403.669,965.852C413.951,960.765 417.395,958.41 425.883,950.666C438.199,939.428 455.975,920.583 459.447,915.084C460.86,912.846 463.793,909.893 465.965,908.522C468.137,907.151 470.45,905.01 471.106,903.765C471.761,902.519 473.355,900.228 474.649,898.673C475.942,897.119 477,894.906 477,893.757C477,892.607 477.275,891.942 477.612,892.279C478.406,893.072 476.634,903.325 472.994,919C469.577,933.714 467.806,946.549 465.061,976.5C461.975,1010.17 460.631,1030.48 461.317,1033.1C461.793,1034.93 461.157,1036.3 458.589,1038.99C454.037,1043.76 451.691,1051.65 448.024,1074.5C446.347,1084.95 443.865,1098.9 442.508,1105.5C438.259,1126.16 435.132,1147.31 433.974,1163.19C433.36,1171.61 431.991,1187.95 430.931,1199.5C429.872,1211.05 428.541,1226.8 427.975,1234.5C427.408,1242.2 426.305,1255.92 425.524,1265C424.743,1274.08 423.636,1289.6 423.065,1299.5C422.493,1309.4 421.534,1325.83 420.934,1336C418.941,1369.82 418.087,1386.44 418.043,1392.25L418,1398L225.535,1398C36.2743,1398 33.0531,1397.97 32.0352,1396.07ZM279.904,1186.38C280.512,1181.49 281.467,1172.33 282.026,1166C282.585,1159.67 283.708,1150.67 284.521,1146C285.334,1141.33 286.248,1134.58 286.553,1131C286.857,1127.42 287.53,1122.92 288.047,1121C288.565,1119.08 288.991,1116.06 288.994,1114.31C288.997,1112.55 289.402,1110.87 289.894,1110.57C290.385,1110.26 292.443,1104.98 294.465,1098.84C298.075,1087.87 303.101,1077.27 308.309,1069.66C309.755,1067.54 311.714,1064.05 312.662,1061.91C313.609,1059.76 314.965,1058 315.673,1058C317.037,1058 318.657,1053.32 317.644,1052.31C316.728,1051.39 306,1060.95 306,1062.68C306,1063.52 304.91,1065.07 303.577,1066.12C302.244,1067.17 300.858,1069.37 300.498,1071.01C300.137,1072.65 299.05,1074.56 298.082,1075.25C297.115,1075.94 295.993,1077.85 295.59,1079.5C295.187,1081.15 293.575,1083.85 292.009,1085.5C290.442,1087.15 288.224,1089.51 287.08,1090.75C285.936,1091.99 285,1094.35 285,1096C285,1097.89 284.487,1099 283.617,1099C282.856,1099 281.032,1101.54 279.562,1104.64C277.344,1109.33 276.81,1112.09 276.419,1120.89C276.16,1126.73 275.477,1134.15 274.903,1137.4C274.328,1140.64 274.123,1144.36 274.448,1145.65C274.808,1147.08 274.595,1148 273.901,1148C273.092,1148 272.945,1150.38 273.393,1156.25C273.795,1161.51 273.594,1165.95 272.84,1168.5C271.195,1174.06 271.732,1192.88 273.589,1194.73C274.365,1195.51 275,1196.94 275,1197.9C275,1198.87 275.307,1199.97 275.683,1200.35C276.915,1201.58 278.777,1195.42 279.904,1186.38ZM118,1070.14C119.375,1069.13 120.635,1067.4 120.801,1066.29C121.101,1064.29 123.021,1062.94 128.25,1061.05C129.762,1060.5 131,1059.36 131,1058.52C131,1056.05 125.656,1056.69 118.601,1060.03C110.835,1063.7 107.964,1067.42 108.889,1072.62C109.089,1073.75 115.445,1072.02 118,1070.14ZM528.592,1394.75C533.508,1360.46 538.468,1325.44 540.028,1314C545.26,1275.65 552.268,1228.94 553.53,1224C557.172,1209.76 567.231,1185.02 572.95,1176.24C575.008,1173.08 579.855,1166.77 583.721,1162.22C589.776,1155.09 590.861,1153.21 591.544,1148.72C593.444,1136.22 590.776,1114.46 586.123,1104.5C581.372,1094.33 575,1088.5 575,1094.33C575,1097.14 571.513,1100.6 567.741,1101.54C564.076,1102.45 563.5,1103.55 563.5,1109.67C563.5,1115.49 563.186,1116.06 559.863,1116.23C557.11,1116.38 550.02,1121.93 526.639,1142.25C517.305,1150.36 509.115,1157 508.441,1157C505.991,1157 506.177,1154.06 508.863,1150.32C519.46,1135.58 536.637,1110.16 542.519,1100.5C551.136,1086.35 570.126,1061.79 580.456,1051.43C589.693,1042.16 602.612,1032 605.154,1032C605.736,1032 607.14,1033.18 608.274,1034.62C609.408,1036.06 611.821,1037.86 613.636,1038.62C617.605,1040.28 630.146,1040.45 631.727,1038.87C635.143,1035.46 652.063,1053.05 674.5,1083.35C682.62,1094.31 691,1108.24 691,1110.77C691,1111.3 688.656,1112.05 685.791,1112.43C679.987,1113.2 668.293,1120.2 665.227,1124.74C664.277,1126.15 661.392,1129.37 658.816,1131.9C653.14,1137.48 652.116,1140.73 651.308,1155.75C650.975,1161.94 650.32,1167 649.851,1167C649.383,1167 649,1166.62 649,1166.15C649,1165.68 647.903,1164.11 646.562,1162.66C644.249,1160.17 644.093,1160.13 643.499,1162C643.154,1163.09 643.521,1165.22 644.312,1166.74C647.756,1173.35 650.397,1179.66 651.093,1182.95C652.454,1189.39 654.794,1194.51 656.251,1194.25C657.276,1194.06 657.536,1194.8 657.214,1197C656.89,1199.2 657.174,1200 658.28,1200C660.16,1200 661.314,1202.71 659.694,1203.32C658.876,1203.63 659.039,1204.2 660.212,1205.14C661.234,1205.95 662.794,1210.33 664.079,1216C665.264,1221.22 666.949,1228.42 667.824,1232C669.954,1240.7 669.846,1288.85 667.637,1315C666.13,1332.85 663.501,1369.61 662.363,1388.75L661.813,1398L594.97,1398L528.126,1398L528.592,1394.75ZM826,1397.05C826,1396.52 827.6,1388.76 829.556,1379.8C831.512,1370.83 834.005,1359.22 835.097,1354C836.188,1348.78 837.708,1341.8 838.473,1338.5C842.084,1322.93 850.222,1275.44 854.494,1245C855.382,1238.67 857.412,1224.5 859.006,1213.5C862.409,1190.01 865.396,1166.24 867.494,1145.94C868.322,1137.94 870.345,1123.36 871.991,1113.56C873.636,1103.75 875.694,1089.82 876.563,1082.61C877.433,1075.4 879.013,1065.22 880.074,1060C888.54,1018.3 890.097,1008.99 890.704,996.423C891.336,983.334 890.653,977 888.61,977C886.88,977 884,980.261 884,982.219C884,983.077 882.056,986.421 879.679,989.649C875.75,994.986 868,1009.44 868,1011.43C868,1011.88 865.095,1018.22 861.544,1025.52C857.456,1033.92 854.648,1041.18 853.888,1045.31C852.831,1051.04 852.485,1051.7 850.995,1050.76C848.355,1049.12 844.407,1050.67 842.145,1054.24C841.011,1056.03 837.14,1061.67 833.542,1066.78C829.944,1071.88 827,1076.34 827,1076.7C827,1077.05 826.392,1078.05 825.649,1078.92C824.905,1079.79 823.218,1082.52 821.899,1084.99C819.209,1090.02 816.228,1094.14 807.496,1104.87C799.954,1114.14 797.131,1118.16 797.058,1119.75C797.026,1120.44 796.58,1121 796.067,1121C795.554,1121 794.856,1121.88 794.516,1122.95C794.164,1124.06 793.312,1124.67 792.539,1124.38C786.984,1122.25 775.344,1136.95 758,1168C751.658,1179.36 749.513,1181.95 747,1181.29C743.223,1180.3 744.089,1177.83 752.015,1166.98C756.407,1160.97 760,1155.81 760,1155.51C760,1155.22 764.181,1149.7 769.291,1143.24C774.4,1136.78 779.463,1130.31 780.541,1128.86C781.618,1127.41 786.845,1120.88 792.155,1114.36C851.557,1041.41 860.007,1028.92 870.944,998C880.583,970.743 882.984,951.15 879.03,932C876.332,918.93 870.165,899.809 865.11,888.836C861.493,880.986 858,870.723 858,867.945C858,866.397 866.242,873.606 878.314,885.713C895.654,903.103 901.276,909.764 908.5,921.475C909.6,923.258 911.995,926.469 913.822,928.609C915.65,930.749 919.744,936.1 922.921,940.5C926.098,944.9 931.703,951.2 935.376,954.5C939.049,957.8 947.105,965.169 953.277,970.876C964.615,981.358 983.389,996.818 992.399,1003.09C995.093,1004.97 999.143,1007.81 1001.4,1009.41C1003.65,1011.01 1008.65,1013.85 1012.5,1015.71C1034.3,1026.29 1062.13,1041.56 1066.86,1045.54C1068.47,1046.89 1070.08,1048 1070.43,1048C1070.79,1048 1072.3,1048.84 1073.79,1049.86C1075.28,1050.88 1081.81,1055.21 1088.29,1059.47C1094.77,1063.73 1100.62,1067.74 1101.29,1068.38C1101.96,1069.01 1106.78,1071.73 1112,1074.41C1117.22,1077.1 1122.62,1080.16 1124,1081.2C1125.38,1082.25 1129.5,1085.22 1133.17,1087.8C1144.87,1096.05 1152.29,1101.43 1153.41,1102.5C1154.01,1103.07 1159.21,1106.88 1164.98,1110.97C1170.74,1115.07 1177.04,1119.84 1178.98,1121.58C1184.31,1126.38 1190.04,1130 1192.3,1130C1193.4,1130 1195.75,1131.1 1197.52,1132.45C1199.28,1133.79 1201.92,1135.19 1203.37,1135.56C1204.83,1135.92 1206.27,1136.62 1206.57,1137.11C1206.87,1137.6 1208.04,1138 1209.17,1138C1211.23,1138 1218.1,1141.3 1221.07,1143.71C1222.87,1145.17 1231.57,1147.97 1234.35,1147.99C1235.37,1148 1237.71,1148.72 1239.55,1149.59C1242.42,1150.95 1244.43,1151.03 1253.7,1150.15C1269.16,1148.66 1281.23,1146.93 1283.21,1145.91C1284.15,1145.43 1285.5,1145.25 1286.21,1145.52C1286.92,1145.79 1288.96,1145.11 1290.75,1144.02C1294.5,1141.73 1295.11,1137.91 1292.25,1134.68C1290.88,1133.14 1291.4,1133.27 1294.64,1135.3C1296.92,1136.72 1300.26,1138.27 1302.07,1138.74L1305.36,1139.59L1301.68,1141.76C1297.6,1144.17 1297.21,1145.87 1299.48,1151.31C1300.3,1153.26 1301.49,1160.33 1302.12,1167.01C1303.09,1177.22 1303,1182.05 1301.56,1197.33C1300.62,1207.32 1299.18,1218.88 1298.36,1223C1297.54,1227.12 1296.01,1237.25 1294.96,1245.5C1293.91,1253.75 1292.75,1262.75 1292.39,1265.5C1291.95,1268.88 1292.07,1270.18 1292.76,1269.5C1294.28,1268 1296.59,1257.64 1301.99,1228C1304.17,1216.04 1305.92,1203.07 1306.5,1194.5C1307.63,1177.9 1310.12,1159.97 1312.08,1154.28C1314.23,1148.03 1316.32,1145.22 1319.85,1143.87C1321.36,1143.3 1322,1142.44 1321.63,1141.49C1319.57,1136.11 1329.69,1146.5 1333.82,1154C1336.81,1159.42 1339.35,1167.2 1341.01,1176C1341.48,1178.47 1342.4,1182 1343.06,1183.84C1344.47,1187.78 1343.78,1217.44 1342.15,1223C1341.58,1224.92 1340.55,1231.19 1339.87,1236.93C1338.68,1246.94 1338.72,1247.61 1340.9,1253.43C1342.15,1256.77 1343.54,1262.13 1343.99,1265.35C1344.44,1268.57 1345.3,1271.7 1345.9,1272.3C1346.51,1272.91 1349.26,1273.98 1352.02,1274.68C1362.1,1277.26 1365.86,1282.35 1369.5,1298.28C1370.78,1303.9 1374.61,1316.6 1378,1326.5C1381.4,1336.4 1385.94,1350.35 1388.09,1357.5C1390.24,1364.65 1393.34,1374.33 1394.98,1379C1396.8,1384.19 1397.97,1389.55 1397.98,1392.75L1398,1398L1112,1398C931.216,1398 826,1397.65 826,1397.05ZM266.09,1026.62C266.415,1026.27 270.915,1024.25 276.09,1022.12C289.635,1016.56 301.663,1011.04 325.627,999.38C337.247,993.726 348.047,988.83 349.627,988.499C352.073,987.988 351.905,988.211 348.5,989.999C346.3,991.155 339.325,994.398 333,997.206C326.675,1000.01 319.7,1003.37 317.5,1004.66C306.34,1011.23 263.287,1029.61 266.09,1026.62ZM611.81,1025.6C605.013,1023.77 598.812,1018.43 560.373,981.264C537.338,958.994 523.695,944.439 517.293,935.304C498.089,907.903 494.206,899.587 495.504,888.644C495.904,885.265 496.23,879.913 496.227,876.75C496.224,873.587 496.622,871 497.111,871C497.6,871 498.007,875.837 498.015,881.75C498.024,887.958 498.386,891.939 498.872,891.173C499.402,890.337 499.915,892.19 500.258,896.173C500.752,901.91 503.6,909.763 507.249,915.45C513.96,925.91 519.565,934.413 522.713,938.914C527.336,945.522 549.885,968.553 563.5,980.573C569,985.428 573.725,989.664 574,989.986C574.275,990.309 578.1,993.471 582.5,997.014C586.9,1000.56 591.08,1004.01 591.788,1004.69C593.73,1006.56 602.929,1011 604.86,1011C605.792,1011 607.318,1010.11 608.25,1009.02C609.182,1007.93 610.587,1007.29 611.371,1007.59C612.156,1007.89 613.095,1007.66 613.458,1007.07C613.821,1006.48 613.529,1005.96 612.809,1005.9C612.089,1005.85 612.625,1005.44 614,1005C617.427,1003.9 633.756,1003.8 634.417,1004.87C635.01,1005.82 632.342,1008.46 630,1009.23C629.175,1009.5 630.525,1010.16 633,1010.69C635.475,1011.22 637.403,1012.13 637.284,1012.72C636.932,1014.47 641.1,1012.94 646.487,1009.34C649.229,1007.5 652.031,1006 652.714,1006C653.396,1006 654.691,1004.88 655.592,1003.5C656.493,1002.12 657.741,1001 658.365,1001C659.813,1000.99 666.209,995.137 668.367,991.844L670.016,989.326L665.28,989.75C662.676,989.983 659.769,990.588 658.821,991.096C657.604,991.747 655.872,991.38 652.929,989.846C649.609,988.116 646.192,987.528 636.131,986.957C621.992,986.155 616.462,984.956 611.729,981.667C607.063,978.424 591,962.815 591,961.524C591,960.477 582.252,952.743 578.365,950.354C576.96,949.49 576.78,948.914 577.637,948.016C578.359,947.26 578.998,947.188 579.388,947.819C580.338,949.357 584,947.974 584,946.078C584,945.149 582.875,942.864 581.5,941C577.688,935.833 578.442,935.66 585.04,940.188C591.695,944.755 596.176,948.915 606.131,959.77C614.208,968.576 616.194,968.97 621.135,962.75C626.713,955.728 631.716,947.683 632.446,944.562C632.824,942.946 633.831,941.113 634.685,940.488C635.956,939.559 636.015,938.997 635.013,937.392C633.175,934.449 627.167,930.759 621.064,928.824C618.075,927.877 614.437,926.22 612.98,925.144C611.524,924.067 608.73,922.743 606.772,922.203C604.814,921.662 600.709,919.37 597.649,917.11C594.589,914.849 591.648,913 591.114,913C589.779,913 583,906.508 583,905.23C583,903.764 577.049,901.701 573.58,901.964C571.909,902.091 569.416,903.43 567.753,905.093C566.154,906.692 564.539,908 564.163,908C563.788,908 563.485,909.462 563.49,911.25C563.499,914.036 563.117,914.544 560.813,914.81C557.485,915.195 555.371,912.308 554.135,905.691C553.655,903.123 552.793,900.454 552.221,899.76C551.648,899.067 550.843,896.704 550.433,894.508C549.719,890.69 547.277,885.374 543.768,880C542.87,878.625 541.831,876.263 541.459,874.75C541.087,873.237 540.205,872 539.499,872C538.017,872 537,869.81 537,866.618C537,865.398 536.545,863.945 535.988,863.388C534.881,862.281 532.368,857.747 527.737,848.5C526.084,845.2 519.504,834.636 513.116,825.024C506.727,815.413 498.786,803.038 495.47,797.524C491.607,791.102 488.861,787.543 487.828,787.621C486.721,787.704 483.963,783.387 479.03,773.854C475.078,766.216 472.003,759.492 472.196,758.911C472.39,758.331 473.578,759.801 474.837,762.178L477.126,766.5L476.613,760.5C476.33,757.2 475.386,751.35 474.514,747.5C472.344,737.916 471.096,727.846 471.044,719.493C471.02,715.64 470.561,710.956 470.025,709.086C469.488,707.216 468.563,700.019 467.968,693.093C465.365,662.795 459.761,630.141 453.364,608C452.014,603.325 450.697,596.575 450.439,593L449.969,586.5L451.592,589.714C452.485,591.482 453.713,592.832 454.321,592.714C454.929,592.596 455.887,593.513 456.451,594.75C457.014,595.987 457.964,597 458.563,597C459.162,597 460.742,598.186 462.076,599.636C463.409,601.086 466.457,603.151 468.849,604.227C472.596,605.91 473.133,606.526 472.723,608.669C471.796,613.519 474.695,621.249 479.786,627.5C481.109,629.124 482.331,632.405 482.114,633.75C482.003,634.438 482.382,635 482.956,635C483.53,635 484,635.912 484,637.026C484,638.141 484.929,642.637 486.065,647.018C487.2,651.398 487.822,655.479 487.447,656.086C487.071,656.694 487.201,658.16 487.735,659.345C488.269,660.53 490.37,665.1 492.403,669.5C494.436,673.9 496.721,679.75 497.482,682.5C498.243,685.25 500.876,693.35 503.334,700.5C509.506,718.456 516.39,741.063 516.428,743.5C516.508,748.584 531.857,783.624 534.438,784.615C535.297,784.944 536,785.878 536,786.69C536,787.502 537.573,789.817 539.495,791.833C541.418,793.85 543.866,796.423 544.936,797.551C547.99,800.771 548.033,810.112 545.012,814.197C542.857,817.112 542.777,817.66 543.952,821.426C544.651,823.667 545.291,826.997 545.374,828.827C545.467,830.891 546.216,832.542 547.346,833.174C548.569,833.858 548.99,834.904 548.626,836.356C548.231,837.929 549.025,839.438 551.541,841.899C553.448,843.763 555,846.285 555,847.518C555,848.748 555.675,850.315 556.5,851C557.325,851.685 558,852.817 558,853.515C558,854.214 558.675,855.045 559.5,855.362C560.325,855.678 561,856.611 561,857.433C561,858.256 561.895,859.408 562.988,859.994C564.082,860.579 565.235,862.09 565.552,863.351C565.868,864.612 567.449,866.425 569.064,867.379C570.679,868.333 572,869.538 572,870.057C572,870.575 573.987,871 576.417,871C578.943,871 581.003,871.509 581.23,872.19C581.697,873.592 591.613,874.44 604.427,874.174C611.31,874.031 614.128,873.532 616.734,871.994C620.824,869.581 627.713,869.407 633.898,871.561C639.198,873.406 651.012,872.589 655.027,870.099C658.905,867.693 665,860.514 665,858.351C665,857.303 665.742,855.386 666.648,854.092C667.555,852.797 668.26,850.443 668.215,848.86C668.153,846.683 668.808,845.634 670.902,844.551C673.249,843.337 673.6,842.632 673.203,839.932C672.851,837.53 673.076,836.858 674.118,837.202C674.878,837.453 675.959,838.57 676.521,839.686C677.329,841.292 678.021,841.536 679.845,840.862C681.211,840.356 682.906,840.415 684.009,841.005C686.745,842.469 689,842.217 689,840.448C689,839.594 690.348,838.426 691.995,837.852C694.361,837.027 694.884,836.355 694.485,834.654C693.917,832.23 694.619,830.986 697.433,829.433C700.283,827.86 701.784,825.121 700.303,824.195C699.513,823.702 699.423,822.946 700.037,821.974C700.55,821.163 700.976,819.297 700.985,817.828C701.003,814.689 698.764,813.756 687.055,812.023C682.96,811.417 679.135,810.536 678.555,810.065C677.975,809.595 674.541,808.301 670.925,807.191C667.309,806.082 662.584,804.431 660.425,803.524C658.266,802.617 653.418,801.689 649.65,801.461C643.626,801.097 642.742,801.27 642.316,802.899C641.179,807.247 617.311,806.801 611.89,802.331C611.125,801.7 607.881,800.703 604.68,800.113C601.479,799.524 597.654,798.376 596.18,797.561C594.706,796.747 592.263,795.568 590.75,794.942C589.237,794.316 588,793.506 588,793.142C588,792.777 585.485,790.472 582.412,788.02C579.339,785.567 576.192,782.338 575.419,780.844C572.842,775.859 573.94,775.323 586.796,775.287C606.795,775.231 650.153,773.258 657.5,772.069C666.848,770.556 673.379,768.344 675.537,765.959C676.512,764.881 678.084,764 679.029,764C679.975,764 682.52,763.375 684.686,762.611C688.048,761.424 689.106,761.425 691.941,762.617L695.26,764.013L694.715,772.919C694.174,781.736 694.194,781.832 696.623,782.441C697.973,782.78 700.522,782.407 702.288,781.612C704.055,780.816 707.294,779.566 709.486,778.833C714.107,777.288 730.251,761.987 731.474,757.994C731.895,756.622 733.044,753.7 734.03,751.5C735.325,748.607 735.724,745.701 735.47,741C734.779,728.189 732.933,714.533 730.536,704.5C730.05,702.464 737.26,689.879 739.834,688.27C741.301,687.355 742.678,686.478 742.896,686.323C743.114,686.168 743.65,683.775 744.088,681.005C744.677,677.283 744.489,675.02 743.368,672.338C742.093,669.286 742.03,667.365 742.972,660.285C744.02,652.412 747.403,643 749.186,643C749.619,643 750.585,641.538 751.333,639.75C752.081,637.962 753.879,635.375 755.329,634C756.779,632.625 757.973,630.993 757.983,630.372C757.992,629.752 758.629,628.723 759.397,628.086C760.165,627.448 760.584,626.124 760.327,625.143C760.071,624.163 760.567,622.774 761.43,622.058C764.231,619.734 763.27,616.406 758.622,612.335C753.596,607.933 748.788,605.825 722.5,596.502C701.854,589.179 694.163,585.706 686.567,580.27C680.389,575.85 678.422,576.567 678.824,583.092C679.496,593.998 680.192,600.31 681.956,611.5C682.997,618.1 684.093,625.593 684.392,628.152C684.691,630.71 685.899,635.59 687.078,638.995C690.277,648.24 690.114,657.953 686.642,665C683.697,670.976 681,680.248 681,684.394C681,686.324 680.487,687 679.02,687C677.724,687 676.349,688.355 675.037,690.927C673.935,693.087 672.112,695.147 670.986,695.505C669.859,695.862 667.865,697.311 666.554,698.725C664.42,701.026 663.673,701.227 659.409,700.643C656.789,700.284 653.938,699.371 653.073,698.615C652.208,697.86 650.056,696.51 648.291,695.616C646.526,694.722 643.959,692.868 642.586,691.495C638.031,686.94 631.028,689.056 629.417,695.475C628.689,698.374 628.234,698.492 625.559,696.468C622.629,694.252 620.612,694.681 618.121,698.05C615.508,701.585 611.353,703.538 609.579,702.065C607.791,700.582 605.746,691.435 606.467,688.151C607.543,683.251 601.716,679.388 591.783,678.414C586.151,677.862 583,676.542 583,674.735C583,674.077 581.477,671.056 579.617,668.02C577.756,664.984 575.917,661.023 575.53,659.219C575.111,657.261 572.791,653.833 569.779,650.719C563.098,643.812 561.008,640.263 561.004,635.813C561,631.765 560.501,631.879 571.104,633.495C574.36,633.991 576,632.418 576,628.8C576,623.763 579.296,625.466 588,635C596.739,644.572 598.433,645.378 602.727,642C605.391,639.904 611.44,639.285 612.5,641C612.84,641.55 614.201,642 615.524,642C618.04,642 620,639.487 620,636.262C620,633.971 624.337,629.816 633.281,623.539C639.423,619.229 643,614.977 643,611.988C643,611.376 641.823,608.388 640.385,605.348C638.567,601.505 637.788,598.246 637.831,594.66C637.918,587.279 636.56,584.523 631.937,582.707C629.614,581.795 627.656,580.214 627.136,578.833C625.325,574.015 628.033,552.813 634.459,521.5C637.126,508.505 637.3,504.344 635.486,496.943C633.737,489.808 633.817,487.91 636.099,482.3C637.258,479.45 637.187,478.862 635.45,476.92C634.378,475.721 631.7,473.584 629.5,472.17C626.138,470.009 624.383,469.61 618.5,469.666C605.491,469.791 599,474.464 599,483.706C599,495.707 594.926,513.043 590.915,518.107C589.26,520.197 586.228,526.932 583.919,533.648C579.256,547.213 576.111,553.495 573.982,553.498C573.167,553.499 569.06,557.101 564.855,561.502C551.454,575.526 536.444,581.665 513,582.709C497.138,583.416 488.539,582.022 478.885,577.178C473.197,574.324 470.467,572.155 466.703,567.5C456.335,554.677 449.842,539.651 445.019,517.323C440.863,498.084 437.595,490.5 433.46,490.5C431.718,490.5 431.444,491.391 431,498.5C430.583,505.179 430.374,505.934 429.739,503.071C429.321,501.186 429.232,497.586 429.542,495.071C429.941,491.839 429.54,489.036 428.174,485.5C427.112,482.75 425.894,479.6 425.467,478.5C424.85,476.909 425.323,477.087 427.778,479.372C430.436,481.845 438.677,484.641 439.859,483.471C440.057,483.275 439.269,481.782 438.109,480.153C436.949,478.524 435.986,476.811 435.968,476.346C435.951,475.881 435.268,474.615 434.45,473.534C433.058,471.693 433.004,471.772 433.607,474.784C434.604,479.771 431.116,479.082 427.107,473.5C425.23,470.886 423.081,469 421.98,469C420.802,469 419.126,467.364 417.553,464.681C414.524,459.513 413.547,455.229 414.381,450.785L414.999,447.5L422.749,447.182C427.012,447.007 434.55,446.033 439.5,445.018C444.45,444.003 450.705,442.908 453.4,442.585C456.094,442.262 459.694,441.281 461.4,440.405C466.374,437.851 475.211,434.913 479,434.554C480.925,434.371 483.625,433.777 485,433.234C486.444,432.663 496.581,432.347 509,432.484C520.825,432.615 531.283,432.321 532.241,431.831C533.387,431.244 534.959,431.445 536.84,432.417C538.473,433.262 543.557,434.083 548.702,434.334C553.654,434.575 558.672,435.289 559.853,435.921C562.077,437.112 562.369,436.802 562.029,433.611C561.866,432.09 562.283,431.844 564.164,432.347C565.449,432.691 566.765,432.979 567.089,432.986C567.414,432.994 568.192,434.125 568.818,435.5C570.185,438.499 572,438.785 572,436C572,434.9 572.273,434 572.607,434C572.942,434 575.599,436.501 578.513,439.558C581.581,442.776 584.086,444.67 584.464,444.058C585.564,442.279 587.735,442.879 588.322,445.124C588.762,446.806 589.389,447.119 591.339,446.63C593.645,446.051 593.822,446.293 594.155,450.48C594.485,454.63 594.32,454.99 591.839,455.535C590.369,455.858 588.923,456.758 588.625,457.535C587.679,460 590.944,460.819 596.39,459.483C605.147,457.334 635.223,455.589 639.451,456.984C643.889,458.448 645.213,457.57 646.861,452.07C647.609,449.571 649.575,446.808 652.203,444.559C656.279,441.07 657.431,440.622 661.537,440.933C663.8,441.104 678.854,433.548 680.471,431.429C683.354,427.649 707.053,425.7 732,427.191C741.075,427.733 751.425,427.816 755,427.375C762.278,426.478 764.593,426.582 767.5,427.937C770.036,429.119 781.544,431 786.237,431C788.832,431 790.918,431.925 793.856,434.379C796.08,436.238 799.61,438.074 801.7,438.46C803.79,438.846 806.4,439.982 807.5,440.985C810.013,443.276 816.17,444.987 821.925,444.994C824.949,444.998 828.592,446.103 833.425,448.481C839.696,451.567 853.998,455.943 857.95,455.985C860.811,456.015 857.442,454.204 850.5,451.979C846.65,450.745 840.575,448.479 837,446.943C833.425,445.406 827.882,443.369 824.681,442.416C821.481,441.463 817.026,439.292 814.782,437.591C812.537,435.891 809.433,433.6 807.884,432.5C806.334,431.4 799.814,424.988 793.395,418.25C786.975,411.513 781.276,406 780.729,406C778.683,406 760.707,385.282 761.559,383.905C761.866,383.407 761.425,383 760.578,383C758.261,383 757.316,377.973 759.353,376.484C760.259,375.822 761,374.568 761,373.699C761,372.829 761.408,371.866 761.906,371.558C762.404,371.25 762.561,370.039 762.255,368.867C761.871,367.4 762.386,366.218 763.908,365.069C765.123,364.153 766.224,362.682 766.353,361.802C766.482,360.922 767.097,359.588 767.719,358.839C771.241,354.595 774.955,338.098 775.043,326.308C775.091,319.898 778.421,312.51 781.272,312.487C783.901,312.466 784.046,311.659 782.919,303.287C781.926,295.905 782.008,294.887 783.918,290.933C785.063,288.563 786,285.944 786,285.112C786,283.988 786.29,283.89 787.13,284.73C787.799,285.399 788.31,289.871 788.38,295.68C788.481,303.974 788.176,306.048 786.416,309.025C784.445,312.36 784.416,312.78 785.879,316.792C787.119,320.192 787.196,321.642 786.269,324.099C785.497,326.144 785.426,327.99 786.056,329.647C787.956,334.646 786.972,342.097 782.706,355C781.888,357.475 781.197,360.175 781.17,361C781.144,361.825 780.631,364.464 780.03,366.865C778.641,372.419 779.454,375.219 782.336,374.808C784.552,374.493 785.915,372.226 791.844,359C793.447,355.425 795.678,350.475 796.802,348C797.926,345.525 800.247,340.125 801.961,336C803.675,331.875 805.513,327.825 806.045,327C807.345,324.985 807.726,323.989 808.436,320.75C808.898,318.64 809.622,318 811.55,318C815.443,318 815.952,320.735 814.062,331.5C812.795,338.713 812.268,343.073 811.454,353.06C810.939,359.381 811.11,360.846 812.495,361.996C813.653,362.957 814.356,363.041 814.829,362.276C815.201,361.674 817.43,360.412 819.782,359.471C822.134,358.529 824.511,356.914 825.064,355.88C825.733,354.63 827.163,354 829.334,354C832.142,354 832.771,354.478 833.834,357.417C835.533,362.116 841.754,365.386 847.232,364.461C850.657,363.882 851.66,364.196 855.023,366.898C857.146,368.604 859.521,370 860.302,370C861.998,370 868.939,374.49 870.869,376.836C872.069,378.295 872.142,378.13 871.465,375.5C871.04,373.85 870.638,366.875 870.573,360C870.473,349.594 870.101,346.731 868.353,342.909C865.667,337.036 858.965,330.602 852.2,327.401C845.898,324.42 839.217,317.593 824.842,299.443C819.154,292.261 812.844,284.633 810.821,282.491C808.797,280.35 804.997,274.975 802.376,270.549C796.871,261.253 787.665,248.91 782.836,244.35C779.907,241.585 772.513,237 770.982,237C770.681,237 769.232,237.967 767.762,239.15C765.837,240.699 765.324,241.747 765.927,242.9C766.387,243.78 766.381,245.512 765.914,246.75C765.196,248.652 764.324,249 760.271,249C755.618,249 740.435,246.262 721,241.917C712.394,239.993 704.42,237.94 682,231.875C675.384,230.086 671.697,229.859 650.733,229.955C636.76,230.018 625.839,230.497 624.233,231.116C619.555,232.919 612.732,232.985 607.806,231.275C603.459,229.766 602.605,229.768 596.243,231.303C592.464,232.215 585.9,234.095 581.656,235.481C571.416,238.823 560.23,238.917 551.004,235.738C544.327,233.438 543.144,231.941 547.191,230.914C549.296,230.379 549.148,230.176 545.508,228.614C543.313,227.671 540.388,226.97 539.008,227.056C534.278,227.35 533.486,227.114 534.8,225.8C536.67,223.93 536.24,222.664 533,220.5C530.777,219.015 530.009,217.727 530.017,215.5C530.031,211.974 532.119,205.629 534.889,200.697C535.972,198.769 536.654,196.988 536.405,196.738C536.156,196.489 536.638,195.716 537.476,195.02C538.314,194.324 539,193.166 539,192.446C539,190.726 544.696,186.694 545.993,187.496C546.547,187.838 547.03,188.879 547.066,189.809C547.102,190.739 548.703,187.24 550.623,182.034C553.671,173.767 560.35,163.016 561.637,164.304C561.864,164.531 561.117,166.893 559.977,169.553C558.837,172.212 558.039,175.538 558.202,176.944C558.449,179.066 559.137,178.241 562.25,172.093C564.312,168.018 566,163.856 566,162.843C566,161.829 566.42,161 566.933,161C567.446,161 568.172,159.988 568.546,158.75C569.92,154.207 582.06,142.424 588.5,139.381C593.062,137.226 601,136.112 601,137.627C601,137.972 599.588,141.122 597.863,144.627C594.505,151.448 591.264,153.431 592.35,148C593.106,144.222 592.52,144.229 589.317,148.036C579.331,159.903 573.039,175.152 573.033,187.5C573.029,194.207 574.334,194.509 577.288,188.484C578.768,185.468 580.476,183 581.085,183C581.693,183 583.47,182.089 585.033,180.977C587.688,179.086 587.938,179.066 588.84,180.679C589.681,182.181 590.027,182.222 591.502,180.998C594.177,178.778 601.639,168.753 604.028,164.171C605.224,161.877 606.606,160 607.101,160C608.313,160 608.242,160.879 606.578,166.406C605.407,170.299 605.381,171.691 606.431,174.315C607.131,176.067 607.989,178.307 608.338,179.293C609.378,182.242 612.325,179.803 617.129,172.019C619.511,168.159 621.807,165 622.23,165C622.654,165 623,169.327 623,174.615L623,184.23L625.465,182.615C628.545,180.596 629,180.598 629,182.625C629,184.985 634.983,183.614 637.266,180.73C639.73,177.618 645.944,164.529 646.663,160.937C647.798,155.261 649.25,156.505 648.628,162.621C647.972,169.068 647.743,173.99 647.899,178.309C648.015,181.538 649.644,181.067 651.037,177.403C652.183,174.388 653.649,174.324 654.586,177.25C655.164,179.055 655.881,177.719 658.21,170.5C659.807,165.55 661.502,161.108 661.977,160.629C663.317,159.28 664.334,168.476 663.692,176.135C663.36,180.088 663.509,183 664.041,183C664.55,183 666.132,180.7 667.556,177.89C670.052,172.965 670.208,172.847 671.873,174.64C672.824,175.663 673.932,177.367 674.337,178.428C674.996,180.151 675.234,180.194 676.591,178.837C678.679,176.75 679.628,161.178 678.106,153.983C676.58,146.769 672.852,139.5 667.961,134.203C665.783,131.844 664,129.35 664,128.662C664,126.734 673.019,120.303 678.024,118.663C688.652,115.18 701.597,115.837 711.478,120.361C717.787,123.25 724.329,129.125 723.836,131.459C723.577,132.685 722.363,132.108 718.535,128.937C715.805,126.676 710.68,123.515 707.147,121.913C699.762,118.564 699.306,118.459 701,120.5C701.685,121.325 702.687,122 703.228,122C704.841,122 709.804,126.591 713.721,131.707C720.924,141.115 722.641,151.624 718.671,162C709.211,186.726 705.494,193.803 698.761,199.914C694.842,203.472 693.728,205.784 696.75,204.089C702.204,201.03 711.023,190.489 716.106,180.952C717.851,177.678 719.689,175 720.19,175C720.692,175 721.851,173.312 722.767,171.25C724.401,167.571 724.439,167.551 724.778,170.201C724.968,171.686 724.646,173.794 724.062,174.885C722.729,177.375 722.681,181 723.981,181C724.52,181 725.258,179.762 725.62,178.25C725.982,176.738 727.791,172.888 729.639,169.696C731.488,166.504 733,162.99 733,161.887C733,160.784 733.45,160.16 734,160.5C735.493,161.423 735.179,173.613 733.477,180.837C732.655,184.322 730.788,189.212 729.327,191.704C726.068,197.267 716.971,206.316 711.25,209.686C708.817,211.12 707,212.94 707,213.944C707,215.085 705.406,216.356 702.441,217.579C698.269,219.299 698.087,219.513 700.288,220.102C704.296,221.174 714.143,219.124 720.5,215.894C730.232,210.951 736.12,204.517 741.241,193.232C742.556,190.335 743.869,188.202 744.159,188.493C744.873,189.206 747.567,182.804 749.57,175.636C752.885,163.77 747.934,144.301 738.283,131.251C733.059,124.186 720.297,112.864 716.032,111.51C714.914,111.155 714,110.446 714,109.933C714,108.719 715.003,108.756 718.902,110.116C722.861,111.496 724.227,110.516 720.629,108.877C716.909,107.182 717.369,106 721.75,106.001C728.973,106.002 750.85,112.894 763.411,119.124C776.124,125.431 787.103,136.554 788.558,144.6C788.946,146.745 789.685,149.316 790.201,150.314C790.842,151.554 790.721,152.629 789.819,153.713C787.289,156.753 780.486,176.819 781.605,177.939C782.993,179.326 790.072,166.519 791.489,160.057C792.199,156.816 792.326,156.726 793.642,158.526C794.412,159.578 795.499,162.14 796.059,164.219C796.64,166.376 797.697,168 798.519,168C800.49,168 801.317,171.937 800.812,178.916C800.276,186.333 795.467,194.652 788.75,199.783C786.138,201.778 784,203.783 784,204.237C784,206.072 787.46,206.177 792.968,204.51C798.323,202.888 799.106,202.26 802.791,196.624C804.993,193.256 807.734,188.618 808.883,186.318C811.397,181.283 812.383,180.551 814.009,182.511C814.689,183.33 816.289,184 817.566,184C818.842,184 820.546,184.941 821.351,186.091C823.788,189.57 826.373,188.143 827.418,182.742C828.503,177.135 830.667,176.473 833.306,180.94C834.564,183.071 834.867,184.977 834.406,187.861C833.79,191.714 833.896,191.906 837.704,193.849C844.935,197.538 858.894,209.777 858.976,212.5C858.993,213.05 860.804,216.2 863,219.5C865.196,222.8 866.995,226.007 866.997,226.628C866.999,227.248 867.667,228.309 868.483,228.986C869.299,229.663 870.734,232.756 871.673,235.858C872.612,238.961 873.969,242.21 874.69,243.079C875.41,243.947 876,245.882 876,247.378C876,248.875 876.723,251.497 877.606,253.204C878.575,255.079 879.006,257.579 878.692,259.512C878.337,261.698 878.786,263.631 880.106,265.607C881.527,267.732 881.883,269.471 881.447,272.159C881.059,274.559 881.396,276.866 882.427,278.86C884.453,282.776 884.434,287.935 882.384,290.862C880.03,294.223 879.392,319.863 881.463,327.858C882.282,331.02 883.012,336.282 883.085,339.553C883.158,342.824 883.618,350 884.108,355.5C884.597,361 885.44,370.9 885.98,377.5C886.519,384.1 887.64,396.475 888.469,405C890.144,422.22 890.365,448.54 888.905,457C888.383,460.025 887.601,467.675 887.168,474C886.538,483.174 885.937,486.208 884.193,489C881.936,492.614 881.102,501 883,501C884.95,501 883.966,502.866 881.85,503.18C878.044,503.746 875.601,508.377 875.18,515.826C874.886,521.028 875.151,522.881 876.332,523.86C878.452,525.62 881.28,523.634 888.657,515.203C902.611,499.255 904.001,496.599 898.811,495.799C896.651,495.466 896.72,495.324 899.863,493.638C904.674,491.054 912.917,490.386 916.566,492.284C924.551,496.437 927.197,503.585 927.753,522.5C927.964,529.65 927.697,537.075 927.16,539C926.623,540.925 925.658,545.425 925.014,549C924.37,552.575 922.51,559.468 920.879,564.318C919.248,569.168 917.483,575.131 916.957,577.568C916.431,580.006 915.562,584.031 915.028,586.514C914.493,588.997 913.593,591.893 913.028,592.949C912.462,594.005 911.997,595.911 911.993,597.184C911.984,600.294 908.022,611.719 903.608,621.364C901.629,625.69 899.382,631.342 898.615,633.924C896.578,640.783 891.612,650.1 888.344,653.191C883.124,658.129 877.465,659.954 867.289,659.978L858.078,660L852.553,655.5C849.514,653.025 846.797,651 846.514,651C846.231,651 846,652.548 846,654.441C846,656.334 845.55,658.16 845,658.5C844.386,658.88 843.969,667.682 843.92,681.309C843.877,693.514 843.405,707.325 842.873,712C841.789,721.519 839.602,787.033 839.853,802.5C840.265,828.039 836.392,858.343 831.475,868.048C823.003,884.769 804.516,902.82 766.5,931.491C757.15,938.543 747.373,946.214 744.773,948.539C742.173,950.863 731.598,957.829 721.273,964.018C710.948,970.208 696.891,978.923 690.035,983.386C665.098,999.619 658.468,1003.98 656.825,1005.23C655.904,1005.93 654.163,1007.17 652.957,1008C649.145,1010.61 643.69,1014.86 637.744,1019.85C629.358,1026.9 622.37,1028.45 611.81,1025.6ZM493.985,742.411C493.993,741.811 492.818,740.783 491.374,740.125C488.995,739.04 488.794,738.521 489.237,734.594C489.883,728.855 488.694,726.802 485.197,727.618C480.955,728.609 480.042,730.035 480.676,734.684C481.215,738.646 481.53,738.983 486.623,741.05C490.021,742.429 492.006,743.834 492.015,744.866C492.029,746.286 492.157,746.304 493,745C493.533,744.175 493.976,743.01 493.985,742.411ZM666.818,623.461C672.97,621.635 673.353,620.078 669.53,612.437C665.699,604.781 661.67,601 657.344,601C654.597,601 648,608.755 648,611.985C648,614.851 651.348,620.342 654.706,622.984C657.783,625.403 659.986,625.49 666.818,623.461ZM881.604,610.521C884.337,609.379 885.071,608.547 884.822,606.873C884.287,603.269 881.631,602.329 877.523,604.288C873.722,606.1 872.419,608.044 873.362,610.5C874.092,612.403 877.082,612.411 881.604,610.521ZM901.278,608.996C906.272,605.068 908.108,599.276 908.083,587.526C908.06,576.406 906.847,571.787 903.795,571.199C901.889,570.832 897.978,576.389 896.194,582C894.522,587.255 893.528,602.59 894.808,603.381C895.416,603.757 895.627,605.523 895.303,607.518C894.816,610.52 895.014,611 896.734,611C897.832,611 899.877,610.098 901.278,608.996ZM889.29,596.905C890.559,594.889 889.597,590.953 887.084,587.876C885.566,586.019 884.875,585.763 883.918,586.703C882.103,588.486 882.164,596.857 884,598.035C885.986,599.31 888.054,598.868 889.29,596.905ZM788.159,592.607C791.752,590.89 800,581.165 800,578.647C800,576.911 803.881,568.896 805.75,566.772C806.586,565.822 807.385,563.994 807.526,562.71C807.667,561.426 808.71,558.154 809.843,555.438C813.942,545.616 814.316,542.46 812.128,536.186C809.615,528.978 808.017,525.467 805.069,520.677C802.291,516.163 801.316,516.733 798.522,524.5C794.697,535.133 787.389,548.395 781.076,556.158C768.411,571.732 751.226,579 727.066,579C713.256,579 701.82,576.981 690.562,572.556C681.308,568.919 679.194,568.607 683.182,571.466C691.289,577.279 697.787,580.612 709.848,585.147L723.5,590.279L742.5,591.662C752.95,592.422 764.425,593.439 768,593.923C776.935,595.131 783.82,594.681 788.159,592.607ZM869.282,587.197C873.501,581.735 873.65,579.639 870.346,572.141C865.95,562.163 864.782,563.114 863.231,577.936C862.514,584.775 862.159,590.973 862.442,591.708C863.142,593.533 865.68,591.859 869.282,587.197ZM530,578.931C552.394,573.34 565.927,561.819 573.558,541.848C575.233,537.464 576.542,535.259 577.015,536.025C577.434,536.702 578.277,536.947 578.888,536.569C580.537,535.55 580.236,532 578.5,532C577.507,532 577,531.007 577,529.065C577,524.443 578.697,521 580.975,521C582.108,521 583,520.339 583,519.5C583,518.675 582.64,518 582.201,518C581.453,518 579,512.306 579,510.571C579,510.138 580.115,510.063 581.478,510.405C583.541,510.923 584.062,510.6 584.596,508.473C585.005,506.845 584.698,505.3 583.749,504.21C582.931,503.269 582.484,501.881 582.755,501.125C583.058,500.284 582.716,499.925 581.875,500.2C581.119,500.448 579.963,502.191 579.306,504.075C578.65,505.959 578.056,507.275 577.986,507C577.916,506.725 577.633,504.333 577.357,501.685C577.082,499.037 575.937,495.313 574.814,493.409C571.466,487.735 566.627,486.366 569.4,491.877C571.219,495.493 572.214,500 571.193,500C570.729,500 569.258,498.834 567.924,497.408C563.745,492.94 561.943,492.431 559.868,495.131L558.049,497.5L554.576,493.75C552.665,491.688 550.627,490 550.047,490C549.467,490 548.432,492.095 547.747,494.655C546.318,500 544.525,501.092 534.06,502.989C525.299,504.578 522.04,503.74 516.062,498.366C510.827,493.659 508,493.169 508,496.969C508,498.404 507.34,499.004 505.75,499.015C504.512,499.024 502.878,499.424 502.118,499.906C496.835,503.252 527.471,510.317 535.309,507.56C538.471,506.448 539.958,507.78 539.985,511.75C540.01,515.515 541.858,514.258 542.19,510.25C542.439,507.238 542.943,506.437 544.75,506.18C546.042,505.997 547,506.387 547,507.097C547,507.777 547.284,508.049 547.631,507.702C547.979,507.355 549.204,507.73 550.354,508.535C553.177,510.513 553.912,510.379 553.29,508C553.002,506.9 553.157,506.016 553.633,506.036C555.018,506.093 560.626,510.99 559.313,510.995C558.661,510.998 557.986,512.462 557.813,514.25C557.506,517.434 557.28,517.574 546.687,521.158C531.144,526.417 524.743,527.342 513.337,525.981C503.771,524.838 498.274,522.876 492,518.363C488.707,515.994 487.885,515.864 478.095,516.172L467.69,516.5L465.095,511.826C463.668,509.255 461.488,506.076 460.25,504.761C459.012,503.447 458,501.898 458,501.32C458,500.743 457.086,499.107 455.968,497.687L453.937,495.104L455.968,494.017C458.957,492.417 458.494,490.214 453.647,482.989C448.202,474.872 447.67,473.185 449.47,469.719C450.264,468.19 450.705,466.39 450.451,465.719C449.987,464.495 453.765,460.11 457.498,457.54C458.598,456.783 459.163,455.83 458.755,455.421C457.612,454.279 447.345,456.899 444.781,458.987C442.596,460.765 442.507,461.411 442.655,474.248C443.086,511.496 455.727,556.389 469.215,568.575C474.144,573.028 485.69,578.528 494.249,580.5C502.565,582.416 518.919,581.698 530,578.931ZM747.5,574.495C765.883,569.455 778.154,559.464 786.235,542.958C788.781,537.756 791.556,531.388 792.402,528.806C794.274,523.087 796.075,512.357 795.44,510.706C795.185,510.043 793.035,509.375 790.662,509.222C786.972,508.984 786.193,509.281 785.285,511.275C784.615,512.743 782.608,514.126 779.861,515.009C777.462,515.781 773.587,517.241 771.248,518.254C764.926,520.992 747.605,524.053 738.5,524.041C734.1,524.035 726.225,523.111 721,521.988C706.204,518.807 696.733,517.073 693.946,517.035C692.31,517.013 690.173,518.258 688,520.5C685.883,522.684 683.648,524.005 682.054,524.014C676.298,524.044 675.274,524.918 673.47,531.34C671.035,540.01 670.951,548.689 673.263,552.706C675.567,556.709 683.573,563.974 689.52,567.459C695.422,570.917 705.838,574.803 712.322,575.965C719.776,577.3 740.412,576.438 747.5,574.495ZM902.829,552.5C903.239,547.517 901.377,541 899.544,541C897.645,541 892,548.335 892,550.802C892,553.151 897.512,556.967 900.5,556.687C902.072,556.54 902.57,555.644 902.829,552.5ZM533.518,516.278C534.544,514.813 534.679,513.92 533.943,513.465C533.343,513.094 532.622,513.729 532.316,514.899C531.899,516.494 530.978,517 528.49,517C526.441,517 524.989,516.414 524.614,515.437C523.925,513.642 522.461,514.271 521.007,516.986C520.073,518.732 520.417,518.846 526.009,518.643C530.87,518.466 532.301,518.016 533.518,516.278ZM729,515.2C729,514.76 728.512,513.912 727.915,513.315C727.319,512.719 726.981,511.214 727.165,509.97C727.418,508.264 728.602,507.382 732,506.37C734.475,505.633 737.365,505.024 738.422,505.015C739.48,505.007 742.05,504.212 744.135,503.25C747.138,501.863 747.805,501.085 747.35,499.5C746.341,495.987 745.146,495.517 742.763,497.696C739.265,500.896 734.447,503 730.619,503C727.772,503 727.081,502.591 726.82,500.75C726.568,498.982 725.75,498.432 723,498.183C719.69,497.884 719.609,497.948 721.5,499.366C722.961,500.461 723.203,501.167 722.399,501.984C721.587,502.808 720.199,502.663 717.13,501.435C712.22,499.471 709.298,496.106 708.415,491.399C707.65,487.318 707.068,487.23 703.077,490.589C699.597,493.517 699.339,494.612 701.552,497.058C702.971,498.625 702.871,498.956 700.39,500.908C698.897,502.083 696.511,503.317 695.088,503.652C691.544,504.485 680,510.209 680,511.133C680,512.809 682.235,513.097 683.856,511.63C684.808,510.769 688.492,509.327 692.043,508.425C695.594,507.523 698.95,506.427 699.5,505.99C701.035,504.77 704.348,504.455 705.837,505.388C706.616,505.876 707.639,505.761 708.287,505.113C710.06,503.34 713.4,503.819 715.379,506.13C716.885,507.889 717.005,508.694 716.064,510.759C714.734,513.678 714.711,513.638 718.166,514.506C720.764,515.158 720.81,515.09 720.043,511.688C719.116,507.581 720.012,505.661 722.62,506.17C724.047,506.448 724.541,507.496 724.669,510.518C724.762,512.708 724.874,514.837 724.919,515.25C725.028,516.262 729,516.213 729,515.2ZM844.773,304.75C844.193,299.692 835.397,281.356 830.501,275C828.595,272.525 826.134,268.843 825.032,266.818C820.693,258.844 818.785,260.765 821.915,269.957C823.343,274.153 824.063,278.116 823.765,280.146C822.799,286.727 830.569,304 834.495,304C835.261,304 837.151,305.111 838.694,306.468C840.237,307.826 842.346,308.951 843.38,308.968C845.005,308.996 845.194,308.423 844.773,304.75ZM821,239.783C811.072,233.516 811.081,233.519 809.737,234.863C808.32,236.28 810.817,238.32 816.5,240.387C822.882,242.709 825.152,242.404 821,239.783ZM818.8,224.8C820.651,222.949 820.36,222.523 814.934,219.149C811.013,216.712 808.736,216 804.868,216C799.78,216 796,217.294 796,219.035C796,219.566 796.614,220 797.365,220C798.116,220 799.803,220.833 801.115,221.851C806.006,225.646 816.246,227.354 818.8,224.8ZM805,210.621C808.171,209.165 808.236,206.604 805.114,206.163C802.784,205.833 794,209.649 794,210.991C794,213.26 799.665,213.07 805,210.621ZM695.302,197.823C701.585,191.578 707.7,180.092 709.983,170.247C710.653,167.358 711.606,164.744 712.1,164.438C713.28,163.709 713.267,155.283 712.085,154.553C711.582,154.242 711.013,154.461 710.82,155.039C710.627,155.618 709.158,153.584 707.556,150.521C702.731,141.299 691.775,132.318 689.615,135.814C689.338,136.262 689.761,139.525 690.554,143.064C694.96,162.729 694.781,170.171 689.498,186.844C688.044,191.433 687.105,195.439 687.413,195.746C688.076,196.409 691.802,191.936 694.208,187.587C695.148,185.889 695.925,185.175 695.936,186C695.98,189.292 691.937,195.783 686.614,200.966C683.526,203.972 681,206.728 681,207.09C681,208.865 690.169,202.924 695.302,197.823ZM780.42,165.14C782.224,159.428 781.873,156.99 779.877,161.371C779.218,162.817 778.278,164 777.788,164C776.434,164 773.793,171.018 774.477,172.8C775.438,175.306 778.424,171.457 780.42,165.14ZM781.515,147.952C781.873,146.826 781.684,145.325 781.097,144.617C779.599,142.812 772.872,140.737 769.946,141.178C767.548,141.539 767.581,141.63 771.632,145.773C776.281,150.528 780.409,151.438 781.515,147.952ZM843.75,970.221C841.748,969.963 841,969.303 841,967.794C841,966.653 840.245,965.168 839.321,964.493C836.921,962.738 836.793,953.195 839.164,952.787C840.658,952.53 840.694,952.096 839.505,948.664C838.66,946.223 838.341,942.125 838.63,937.398C839.009,931.19 838.816,929.867 837.458,929.345C836.155,928.846 836.097,928.554 837.166,927.876C838.229,927.202 838.189,927.028 836.969,927.015C834.853,926.994 832.56,920.898 834.262,919.817C834.991,919.354 833.855,918.992 831.5,918.936C829.3,918.885 828.062,918.615 828.75,918.338C830.513,917.626 830.302,915.941 828.262,914.449C826.773,913.361 826.284,913.542 824.862,915.711C823.276,918.128 823.154,918.156 822.17,916.318C821.001,914.133 821.68,912.657 824.298,911.69C825.751,911.153 825.969,910.354 825.436,907.513C825.029,905.34 825.171,904 825.809,904C826.377,904 827.136,902.655 827.497,901.011C828.283,897.435 830,896.027 830,898.96C830,900.716 830.426,900.938 832.75,900.395C835.759,899.691 839.298,897 837.214,897C836.546,897 836,896.491 836,895.868C836,895.1 837.366,894.948 840.25,895.396C847.112,896.459 848.413,896.728 850.084,897.425C852.068,898.253 855.988,907.537 856.035,911.519C856.055,913.159 856.714,915.625 857.5,917C858.286,918.375 858.945,920.573 858.965,921.885C858.984,923.197 860.095,925.285 861.433,926.525C863.653,928.583 863.834,929.402 863.505,935.905C863.287,940.212 863.517,942.798 864.088,942.445C864.608,942.124 864.731,941.373 864.362,940.776C863.961,940.129 864.156,939.979 864.845,940.405C866.337,941.326 866.35,945 864.862,945C864.072,945 863.922,946.677 864.371,950.5C864.897,954.971 864.742,956 863.544,956C862.733,956 861.589,956.9 861,958C860.411,959.1 859.158,960.045 858.215,960.1C857.179,960.16 857.487,960.474 858.995,960.894C862.144,961.77 862.509,963.851 860.03,966.801C858.188,968.994 857.955,969.028 855.071,967.537C852.136,966.019 852.027,966.043 851.446,968.361C850.836,970.791 849.913,971.014 843.75,970.221ZM571.44,946.731C570.373,946.148 569.191,945.202 568.814,944.63C568.436,944.057 566.636,943.42 564.814,943.215C560.628,942.743 558,940.412 558,937.174C558,935.79 557.38,933.947 556.622,933.079C555.576,931.881 555.412,929.812 555.94,924.5C556.404,919.829 556.899,918.082 557.425,919.25C557.859,920.212 558.793,921 559.5,921C561.238,921 561.895,923.065 560.932,925.5C559.204,929.867 559.878,933.597 562.663,935.081C564.128,935.861 566.151,937.85 567.159,939.5C568.168,941.15 568.994,942.151 568.996,941.724C569.002,940.482 574.701,943.779 575.316,945.38C576.053,947.302 573.874,948.062 571.44,946.731ZM660,762.753C660,760.768 666.975,754 669.021,754C671.223,754 673,751.99 673,749.5C673,748.345 673.521,746.879 674.158,746.242C675.932,744.468 673.662,742.391 667.371,740.038C660.768,737.567 651.411,737.381 640.338,739.5C629.791,741.518 619.251,741.35 609,739C599.689,736.865 585.356,736.447 578,738.095C568.688,740.182 563.373,740.285 557.951,738.484C553.326,736.947 551.892,736.888 546.037,737.993C540.195,739.095 538.992,739.047 536.191,737.599C530.771,734.796 531.878,732.011 542.175,722.547C544.615,720.304 549.115,718.804 551.461,719.452C552.582,719.761 554.415,721.474 555.534,723.257C558.278,727.632 561.141,727.418 577.5,721.618C584.65,719.083 591.977,717.007 593.782,717.004C597.202,717 605.067,719.383 613.333,722.927C615.991,724.067 618.916,725.005 619.833,725.012C620.75,725.018 625.754,722.89 630.954,720.283C642.848,714.319 649.903,713.555 661.207,717.006C671.748,720.224 683.039,722.05 685.211,720.887C686.449,720.224 687,718.757 687,716.12C687,711.432 689.102,709.373 694.5,708.77C696.7,708.525 699.221,708.003 700.102,707.612C701.257,707.098 703.485,708.743 708.102,713.52C711.621,717.16 714.725,720.67 715,721.32C715.275,721.969 716.764,724.446 718.309,726.824C719.854,729.202 720.975,731.891 720.8,732.799C720.381,734.976 716.307,736.967 712.232,736.985C705.934,737.014 696.331,743.724 689.972,752.541C689.162,753.663 686.925,755.676 685,757.014C683.075,758.351 680.628,760.245 679.561,761.223C678.468,762.225 676.07,763.004 674.061,763.009C672.103,763.013 668.138,763.301 665.25,763.648C660.936,764.166 660,764.007 660,762.753ZM458.546,680.21C457.381,674.906 454.183,671.126 448.285,668.082C443.949,665.844 443.094,665.084 444.872,665.048C446.895,665.007 447.056,664.773 445.965,663.458C445.199,662.535 445.05,661.553 445.592,661.015C446.836,659.781 456.838,659.42 457.895,660.57C458.775,661.529 460.418,683 459.611,683C459.362,683 458.883,681.744 458.546,680.21ZM432.116,588.528C431.383,586.043 431.056,583.298 431.39,582.427C431.77,581.436 430.875,579.721 428.999,577.845C425.193,574.039 425.236,572.917 429.32,569.377C431.147,567.795 432.961,565.637 433.353,564.583C434.734,560.867 436.483,564.882 437.15,573.297C437.507,577.809 438.117,582.711 438.505,584.191C439.069,586.343 438.633,587.501 436.331,589.965L433.45,593.047L432.116,588.528ZM413.002,537.28C413.001,536.609 411.699,535.098 410.108,533.922C408.518,532.746 406.38,530.038 405.358,527.904C402.576,522.093 400.668,522.744 401.416,529.25L402.019,534.5L399.93,528.108C398.682,524.29 398.225,521.472 398.795,521.108C399.319,520.774 400.052,519.099 400.424,517.388C400.795,515.676 402.288,513.241 403.742,511.976L406.386,509.677L409.943,513.743C414.518,518.973 422.814,535.229 421.185,535.772C420.533,535.989 420,536.804 420,537.583C420,538.582 418.97,538.925 416.502,538.749C414.554,538.61 413.003,537.959 413.002,537.28ZM634.178,452.169C632.312,450.734 631.92,449.609 632.178,446.442C632.438,443.255 632.924,442.44 634.715,442.185C636.433,441.941 637.08,442.5 637.603,444.685C637.973,446.233 638.599,447.95 638.993,448.5C639.388,449.05 639.959,450.512 640.262,451.75C640.706,453.562 640.393,453.996 638.656,453.978C637.47,453.966 635.455,453.152 634.178,452.169ZM433.189,339.5C433.158,332.522 433.455,329.231 434,330.5C435.047,332.938 435.047,343.383 434,347.5C433.507,349.437 433.22,346.601 433.189,339.5ZM745.25,332.338C744.562,332.06 744,330.552 744,328.986C744,326.795 743.482,326.065 741.75,325.819C740.138,325.59 739.589,324.932 739.814,323.5C739.986,322.4 740.123,320.664 740.118,319.642C740.112,318.62 740.931,317.569 741.937,317.306C743.074,317.009 743.966,315.594 744.295,313.568C745.11,308.547 750.71,301.333 755.182,299.544C760.436,297.442 761.683,297.587 763.608,300.525C765.07,302.756 765.113,303.755 763.976,309.115C763.268,312.451 761.634,316.734 760.344,318.634C759.055,320.534 758,322.352 758,322.674C758,323.764 748.559,333.001 747.526,332.921C746.962,332.878 745.938,332.615 745.25,332.338ZM433.046,314C433.011,309.875 432.702,304.165 432.359,301.312L431.736,296.123L435.335,297.812C439.254,299.65 439.552,300.445 437.91,304.685C437.31,306.233 435.985,310.65 434.965,314.5L433.11,321.5L433.046,314ZM472.638,302.499C472.251,301.489 472.615,299.711 473.479,298.391C474.318,297.111 475.972,293.477 477.155,290.314C478.339,287.152 480.588,282.23 482.153,279.377C483.719,276.525 485,273.11 485,271.789C485,270.469 486.125,267.864 487.5,266C488.875,264.136 490,262.106 490,261.488C490,260.009 502.786,243.803 508.76,237.71C516.396,229.922 521.003,233.2 515.535,242.531C513.367,246.23 504.096,258.218 502.025,260C498.625,262.926 484.168,284.8 479.214,294.514C477.535,297.806 475.523,301.351 474.742,302.39C473.396,304.181 473.286,304.187 472.638,302.499ZM456.488,255.023C457.32,253.415 458,249.882 458,247.172C458,244.198 458.548,241.79 459.382,241.098C460.143,240.467 460.79,238.114 460.821,235.87C460.852,233.625 461.13,231.537 461.439,231.228C461.747,230.919 462,231.836 462,233.266C462,234.987 462.676,236.08 464.001,236.5C465.102,236.85 466.494,238.055 467.096,239.179C468.024,240.914 467.388,242.408 462.88,249.087C457.462,257.111 453.511,260.781 456.488,255.023ZM468.545,232.05C466.106,229.355 465.327,217.924 467.026,209.742C468.45,202.882 474.471,189 476.022,189C476.56,189 477,188.377 477,187.615C477,186.853 478.012,185.582 479.25,184.79C483.826,181.862 485.074,181.868 487.844,184.829C492.248,189.536 494.679,190.425 497.817,188.475C499.901,187.181 499.677,187.612 496.817,190.404C493.43,193.711 492.658,194 487.222,194C479.634,194 478.398,195.336 477.508,204.5C477.134,208.35 475.893,213.975 474.751,217C473.609,220.025 472.636,224.938 472.588,227.917C472.491,233.878 471.301,235.095 468.545,232.05ZM817.25,174.78C814.762,173.579 814.076,170.708 816.5,171.638C818.923,172.568 818.348,167.414 815.75,164.909L813.5,162.74L816.5,163.406C819.94,164.169 825,169.175 825,171.816C825,175.602 821.629,176.891 817.25,174.78ZM642.087,106.064C629.554,105.224 633.486,103.308 653.5,100.504C655.7,100.196 662.225,100.623 668,101.454C673.775,102.284 678.837,102.972 679.25,102.982C679.663,102.992 680,103.373 680,103.828C680,106.512 663.396,107.491 642.087,106.064Z" fill="#000000"/>
</g>
</svg>
